<svg version="1.1" xmlns="http://www.w3.org/2000/svg" xmlns:xlink="http://www.w3.org/1999/xlink" width="99.20614" height="119.40827" viewBox="0,0,99.20614,119.40827"><defs><linearGradient x1="217.0243" y1="146.32088" x2="217.0243" y2="151.03626" gradientUnits="userSpaceOnUse" id="color-1"><stop offset="0" stop-color="#ff0000"/><stop offset="1" stop-color="#c3ff00"/></linearGradient></defs><g transform="translate(-190.39693,-120.29588)"><g data-paper-data="{&quot;isPaintingLayer&quot;:true}" stroke-miterlimit="10" stroke-dasharray="" stroke-dashoffset="0" style="mix-blend-mode: normal"><path d="M289.60307,129.31305v101.37565c0,4.97152 -4.04218,9.01545 -9.01718,9.01545h-81.17351c-4.96979,0 -9.01545,-4.04392 -9.01545,-9.01544v-101.37738c0,-4.97152 4.04566,-9.01545 9.01545,-9.01545h81.17351c4.975,0 9.01718,4.04566 9.01718,9.01719z" fill-opacity="0.74902" fill="#d2d3d4" fill-rule="nonzero" stroke="none" stroke-width="1" stroke-linecap="butt" stroke-linejoin="miter"/><path d="M287.06513,163.26163v65.07452c0,4.97152 -4.04219,9.01545 -9.01719,9.01545l-76.09761,0.25093c-4.96979,0 -9.01545,-4.04392 -9.01545,-9.01545v-65.07627z" fill-opacity="0.85882" fill="#ffffff" fill-rule="nonzero" stroke="none" stroke-width="1" stroke-linecap="butt" stroke-linejoin="miter"/><text transform="translate(197.4876,200.16945) scale(0.28036,0.28036)" font-size="40" xml:space="preserve" fill="#000000" fill-rule="nonzero" stroke="#000000" stroke-width="1" stroke-linecap="butt" stroke-linejoin="miter" stroke-miterlimit="10" stroke-dasharray="" stroke-dashoffset="0" font-family="&quot;ヒラギノ角ゴ Pro W3&quot;, &quot;Hiragino Kaku Gothic Pro&quot;, Osaka, &quot;メイリオ&quot;, Meiryo, &quot;ＭＳ Ｐゴシック&quot;, &quot;MS PGothic&quot;" font-weight="normal" text-anchor="start" style="mix-blend-mode: normal"><tspan x="0" dy="0">ゲームセンター</tspan></text><g fill-rule="nonzero" stroke="none" stroke-linecap="butt" stroke-linejoin="miter"><g fill="#45b5e6" stroke-width="0"><path d="M208.75315,213.93832l-6.05509,-6.05509l0.90827,-0.90827l6.05509,6.05509z"/><path d="M207.66481,204.70311c0.3036,0.3036 0.30354,0.79598 0,1.09952l-6.13918,6.13917c-0.3036,0.3036 -0.79592,0.30347 -1.09945,-0.00006l-2.54359,-2.54359c-0.3036,-0.3036 -0.3036,-0.79579 0,-1.0994l6.13911,-6.13911c0.30374,-0.30374 0.79586,-0.30366 1.09946,-0.00006l2.54358,2.54358z"/></g><text transform="translate(209.44316,210.32878) scale(0.19587,0.20747)" font-size="40" xml:space="preserve" fill="#585858" fill-rule="nonzero" stroke="none" stroke-width="1" stroke-linecap="butt" stroke-linejoin="miter" stroke-miterlimit="10" stroke-dasharray="" stroke-dashoffset="0" font-family="Sans Serif" font-weight="normal" text-anchor="start" style="mix-blend-mode: normal"><tspan x="0" dy="0">90,000G</tspan></text></g><g stroke-width="1"><g data-paper-data="{&quot;index&quot;:null}"><path d="M204.68463,214.69793c0.0443,-0.02953 0.11815,-0.01477 0.13292,0.04431l0.38401,1.58035c0,0 0.94524,0.69416 1.22588,1.18158c0.47263,0.81232 0.48739,1.47697 0.48739,1.47697c0,0 1.04864,0.31017 1.22589,1.15203c0.17723,0.84187 -0.47263,2.43699 -3.24931,2.98347c-2.7767,0.54647 -5.00691,-0.20678 -6.05557,-1.89052c-1.04864,-1.68374 0.60554,-3.69241 0.51693,-3.57425l-0.31017,-2.64377c-0.01477,-0.05909 0.05908,-0.10339 0.11814,-0.07385l1.78713,1.16681c0,0 0.66464,-0.25109 1.35881,-0.28063c0.41356,-0.02953 0.76802,0 1.10772,0.05909z" fill="#45b5e6" fill-rule="evenodd" stroke="#45b5e6" stroke-linecap="butt" stroke-linejoin="miter"/><path d="M209.58817,219.20268c-0.69417,0.56124 -1.7576,0.57601 -1.7576,0.57601" fill="#45b5e6" fill-rule="evenodd" stroke="#45b5e6" stroke-linecap="round" stroke-linejoin="round"/><path d="M209.39615,220.85687c-0.93048,0.07385 -1.50651,-0.20676 -1.50651,-0.20676" fill="#45b5e6" fill-rule="evenodd" stroke="#45b5e6" stroke-linecap="round" stroke-linejoin="round"/><path d="M197.72814,219.15836c0,0 1.27017,0.41356 1.78711,0.87141" fill="#45b5e6" fill-rule="evenodd" stroke="#45b5e6" stroke-linecap="round" stroke-linejoin="round"/><path d="M199.55957,220.54671c-0.6351,0.25108 -1.72804,0.08862 -1.72804,0.08862" fill="#45b5e6" fill-rule="evenodd" stroke="#45b5e6" stroke-linecap="round" stroke-linejoin="round"/><g fill="none" fill-rule="nonzero" stroke="none" stroke-linecap="butt" stroke-linejoin="miter" font-family="sans-serif" font-weight="normal" font-size="12" text-anchor="start"/><g fill="none" fill-rule="nonzero" stroke="none" stroke-linecap="butt" stroke-linejoin="miter" font-family="sans-serif" font-weight="normal" font-size="12" text-anchor="start"/></g><text transform="translate(209.44316,222.38156) scale(0.19588,0.20747)" font-size="40" xml:space="preserve" fill="#585858" fill-rule="nonzero" stroke="none" stroke-width="1" stroke-linecap="butt" stroke-linejoin="miter" stroke-miterlimit="10" stroke-dasharray="" stroke-dashoffset="0" font-family="Sans Serif" font-weight="normal" text-anchor="start" style="mix-blend-mode: normal"><tspan x="0" dy="0">450G</tspan></text></g><g fill-rule="nonzero" stroke="none" stroke-linecap="butt"><path d="M248.03087,215.93531c0.41438,-0.94222 1.30869,-1.59712 2.34778,-1.59712c1.4325,0 2.5951,1.24099 2.5951,2.77006c0,3.0114 -4.94287,7.00154 -4.94287,7.00154c0,0 -4.94286,-3.89088 -4.94286,-7.00154c0,-1.52908 1.1626,-2.77006 2.5951,-2.77006c1.03907,0 1.9334,0.65487 2.34776,1.59712z" fill="#45b5e6" stroke-width="0" stroke-linejoin="round"/><text transform="translate(253.23743,222.41856) scale(0.19589,0.20748)" font-size="40" xml:space="preserve" fill="#585858" fill-rule="nonzero" stroke="none" stroke-width="1" stroke-linecap="butt" stroke-linejoin="miter" stroke-miterlimit="10" stroke-dasharray="" stroke-dashoffset="0" font-family="Sans Serif" font-weight="normal" text-anchor="start" style="mix-blend-mode: normal"><tspan x="0" dy="0">9%</tspan></text></g><g fill-rule="nonzero" stroke="none" stroke-linecap="butt" stroke-linejoin="miter"><g fill="#45b5e6" stroke-width="0"><path d="M241.85852,206.60629l5.64578,-1.34827l3.23916,3.23917l-1.34825,5.64577l-3.23077,-3.23077l-0.02081,-1.06159h-1.04078z"/><path d="M254.06963,202.84012l-4.99544,4.99545l-0.90828,-0.90827l4.99544,-4.99545z"/></g><text transform="translate(252.97427,210.4311) scale(0.19589,0.20748)" font-size="40" xml:space="preserve" fill="#585858" fill-rule="nonzero" stroke="none" stroke-width="1" stroke-linecap="butt" stroke-linejoin="miter" stroke-miterlimit="10" stroke-dasharray="" stroke-dashoffset="0" font-family="Sans Serif" font-weight="normal" text-anchor="start" style="mix-blend-mode: normal"><tspan x="0" dy="0">900G</tspan></text></g><g fill-rule="nonzero" stroke-linecap="butt" stroke-linejoin="miter"><path d="M194.8904,186.32394v-60.49176h90.21921v60.49176z" fill="#7a8fa3" stroke="#666666" stroke-width="2"/><path d="M205.30004,180.84056l-2,-16h27.8l-2,16z" fill="#889ebf" stroke="#666666" stroke-width="2"/><path d="M229.10008,157.64056l2,7.2h-27.8l2,-7.2z" fill="#889ebf" stroke="#666666" stroke-width="2"/><path d="M205.30001,157.64056v-13.4h23.8v13.4z" fill="#47fdff" stroke="#666666" stroke-width="2"/><path d="M250.90012,180.84056l-2,-16h27.8l-2,16z" data-paper-data="{&quot;index&quot;:null}" fill="#88bf95" stroke="#666666" stroke-width="2"/><path d="M274.70007,157.64056l2,7.2h-27.8l2,-7.2z" data-paper-data="{&quot;index&quot;:null}" fill="#88bf95" stroke="#666666" stroke-width="2"/><path d="M250.90012,157.64056v-13.4h23.8v13.4z" data-paper-data="{&quot;index&quot;:null}" fill="#47fdff" stroke="#666666" stroke-width="2"/><path d="M195.90997,185.40644v-3.6523h88.18031v3.6523z" fill="#c0c0c0" stroke="none" stroke-width="0"/><path d="M213.75569,155.82309v-0.57156h5.46555v0.57156z" fill="#000000" stroke="#000000" stroke-width="0.5"/><path d="M212.14817,149.75025h-3.10786v-3.42937h15.96799v4.71538h-12.86013z" fill="url(#color-1)" stroke="#000000" stroke-width="0.5"/><path d="M214.02667,153.54037c0,-0.32553 0.26389,-0.58942 0.58942,-0.58942c0.32553,0 0.58942,0.26389 0.58942,0.58942c0,0.32553 -0.26389,0.58942 -0.58942,0.58942c-0.32553,0 -0.58942,-0.26389 -0.58942,-0.58942z" fill="#ffb248" stroke="#000000" stroke-width="0.5"/><path d="M252.11258,156.42076v-3.54762h9.92857v3.54762z" fill="#b38059" stroke="#000000" stroke-width="0.5"/><path d="M263.92204,152.9234v-1.74074h2.2381v1.74074z" fill="#b38059" stroke="#000000" stroke-width="0.5"/><path d="M272.08874,156.42076v-3.71429h1.35714v3.71429z" fill="#b38059" stroke="#000000" stroke-width="0.5"/><path d="M261.94586,151.08742v-1.85714h0.64286v1.85714z" fill="#000000" stroke="#000000" stroke-width="0.5"/><path d="M261.60711,151.744l0.56266,-1.26113l0.04349,0.0194l-0.56266,1.26113z" fill="#000000" stroke="#000000" stroke-width="0.5"/><path d="M263.352,151.68568l-0.91102,-1.16155l0.07494,-0.05878l0.91102,1.16155z" fill="#000000" stroke="#000000" stroke-width="0.5"/><path d="M260.79112,149.57552v-0.04762h1.42857v0.04762z" fill="#000000" stroke="#000000" stroke-width="0.5"/><path d="M262.78144,149.34869l-0.02641,-0.03962l1.18865,-0.79243l0.02641,0.03962z" fill="#000000" stroke="#000000" stroke-width="0.5"/><path d="M261.7435,148.50409c0,-0.24984 0.20254,-0.45238 0.45238,-0.45238c0.24984,0 0.45238,0.20254 0.45238,0.45238c0,0.24984 -0.20254,0.45238 -0.45238,0.45238c-0.24984,0 -0.45238,-0.20254 -0.45238,-0.45238z" fill="#000000" stroke="#000000" stroke-width="0.5"/><path d="M267.82683,151.97102v-1.74074h2.2381v1.74074z" fill="#b38059" stroke="#000000" stroke-width="0.5"/><path d="M274.70014,139.44056v4.8h-23.8v-4.8z" data-paper-data="{&quot;index&quot;:null}" fill="#88bf95" stroke="#666666" stroke-width="2"/><path d="M253.7813,141.58671c-0.00138,0.91759 0.17033,0.57088 0.18866,-0.00537l-0.17953,0.01856c0,0 -0.00345,-0.0046 -0.00913,-0.0132zM253.68264,141.26153c0.00376,-0.1164 0.05413,-0.24639 0.20777,-0.36162c0.4,-0.3 0.7,0.1 0.7,0.1l0.36592,0.74584c-0.39142,1.70645 -2.16918,1.83672 -2.17502,-0.17311c0,0 0,-0.5 0.5,-0.5c0.20889,0 0.33051,0.08727 0.40132,0.18889z" fill="#000000" stroke="none" stroke-width="0.5"/><path d="M256.74974,143.07989c-0.22481,0 -0.34854,-0.10108 -0.41664,-0.21234c-0.09838,-0.05903 -0.19677,-0.11806 -0.29515,-0.17709c0,0 -0.42875,-0.25725 -0.1715,-0.68599c0.0438,-0.073 0.09257,-0.12611 0.14335,-0.16399c-0.12826,-0.06078 -0.26006,-0.18569 -0.26006,-0.4424c0,-0.5 0.5,-0.5 0.5,-0.5c1.25042,0 1.62679,-0.11156 1.13689,1.24128l-0.23739,0.24422l0.1005,0.19633c0,0 0,0.5 -0.5,0.5z" fill="#000000" stroke="none" stroke-width="0.5"/><path d="M260.93154,142.44353c0,0.5 -0.5,0.5 -0.5,0.5l-0.22247,-0.01762c-0.27122,-0.07683 -0.55552,-0.11872 -0.83758,-0.11889l-0.03551,0.06685c0,0 -0.29398,0.40445 -0.69842,0.11047c-0.40445,-0.29398 -0.11047,-0.69842 -0.11047,-0.69842l0.18743,-0.2375c0.07871,-0.06938 0.16713,-0.14907 0.26113,-0.22568c-0.11648,-0.06624 -0.22593,-0.19073 -0.22593,-0.42466c0,-0.5 0.5,-0.5 0.5,-0.5c0.18182,0 0.36364,0 0.54545,0h0.5c0.27614,0 0.5,0.22386 0.5,0.5c0,0.16849 -0.08334,0.31752 -0.21106,0.40811l-0.18675,0.13582c0.02501,0.00618 0.04995,0.01256 0.07482,0.01914l-0.04065,-0.01762c0,0 0.5,0 0.5,0.5z" fill="#000000" stroke="none" stroke-width="0.5"/><path d="M265.15885,142.21626c0,0.5 -0.5,0.5 -0.5,0.5l0.03036,-0.01493c-1.54922,0.38619 -2.40049,0.58045 -1.92452,-1.33361c0,0 0.12127,-0.48507 0.60634,-0.3638c0.48507,0.12127 0.3638,0.60634 0.3638,0.60634c-0.02116,0.08421 -0.05068,0.20453 -0.08873,0.31954c0.26541,-0.0835 0.60913,-0.15062 0.80057,-0.19861l0.21218,-0.01493c0,0 0.5,0 0.5,0.5z" fill="#000000" stroke="none" stroke-width="0.5"/><path d="M267.12071,141.89441l-0.02699,-0.05727c-0.09091,-0.15152 -0.18182,-0.30303 -0.27273,-0.45455c0,0 -0.00053,-0.00088 -0.00149,-0.00258c0.03399,0.12889 0.01308,0.24386 0.01308,0.24386c-0.1103,0.60361 -0.0654,0.54177 0.30779,0.30424c-0.01311,-0.02061 -0.01966,-0.03372 -0.01966,-0.03372zM266.99251,140.6966c0.42875,-0.25725 0.68599,0.1715 0.68599,0.1715c0.09091,0.15152 0.18182,0.30303 0.27273,0.45455l0.06392,0.12455c0,0 0.00561,0.01122 0.01328,0.03101c0.0496,-0.01854 0.10096,-0.03675 0.15412,-0.05447l0.02542,-0.01833c0,0 0.44721,-0.22361 0.67082,0.22361c0.22361,0.44721 -0.22361,0.67082 -0.22361,0.67082l-0.1564,0.07258c-1.44429,0.4813 -3.05599,1.3175 -2.65005,-0.92742c0,0 0.08944,-0.49193 0.58138,-0.40249c0.17941,0.03262 0.28149,0.11877 0.33878,0.21507c-0.0435,-0.14662 -0.05941,-0.39116 0.22362,-0.56098z" fill="#000000" stroke="none" stroke-width="0.5"/><path d="M273.24974,142.6708c0,0.5 -0.5,0.5 -0.5,0.5h-0.22727c-0.48559,0 -0.79967,-0.01107 -1.12889,-0.08222l-0.00729,0.08016l-0.49492,-0.04499c-0.25735,-0.02047 -0.45981,-0.23579 -0.45981,-0.49841c0,-0.16227 0.07731,-0.30649 0.1971,-0.39784l0.36358,-0.28278c0.61872,-0.83983 0.47737,-0.79809 -0.20712,-0.10219c0,0 -0.35355,0.35355 -0.70711,0c-0.35355,-0.35355 0,-0.70711 0,-0.70711c1.444,-1.42532 2.61653,-0.48432 1.93666,0.98746c0.16292,0.0163 0.34024,0.04791 0.5078,0.04791h0.22727c0,0 0.5,0 0.5,0.5z" fill="#000000" stroke="none" stroke-width="0.5"/><path d="M229.15014,139.44056v4.8h-23.8v-4.8z" data-paper-data="{&quot;index&quot;:null}" fill="#889ebf" stroke="#666666" stroke-width="2"/><path d="M210.39704,142.1524l-0.41605,0.10095v0.1705c0,0 0,0.5 -0.5,0.5c-0.5,0 -0.5,-0.5 -0.5,-0.5c0,-0.31356 0,-0.90363 0,-1.25c0,-0.02185 0,-0.04272 0,-0.0625c0,0 0,-0.5 0.5,-0.5c0.1248,0 0.21845,0.03115 0.28873,0.0779c0.99241,0.08367 1.26953,0.47577 0.62733,1.46315z" fill="#7a5c98" stroke="none" stroke-width="0.5"/><path d="M213.27204,140.75779c0.25778,0.25778 0.13966,0.51557 0.05674,0.63631c-0.16289,0.97618 -0.59624,1.30251 -1.09259,1.01514c-0.0029,0.02556 -0.00592,0.0511 -0.00907,0.07662l-0.11143,0.28659c0,0 -0.22361,0.44721 -0.67082,0.22361c-0.44721,-0.22361 -0.22361,-0.67082 -0.22361,-0.67082l0.01357,0.03659c0.04211,-0.3314 0.05925,-0.66642 0.05864,-1.00048c0,0 0,-0.39836 0.35558,-0.48394c0.00693,-0.00428 0.01404,-0.00851 0.02135,-0.01269c0.43412,-0.24807 0.68219,0.18605 0.68219,0.18605c0.00772,0.01367 0.01508,0.02715 0.02209,0.04042l0.19024,-0.33341c0,0 0.35355,-0.35355 0.70711,0z" fill="#7a5c98" stroke="none" stroke-width="0.5"/><path d="M215.05225,141.41431c0.14535,0.10769 0.27732,0.23183 0.3998,0.36619l0.04181,-0.04878l0.43503,0.37288c0.10831,0.09172 0.17707,0.2287 0.17707,0.38174c0,0.2574 -0.19451,0.46938 -0.44456,0.49696l-0.49342,0.06168l-0.00127,-0.01018l-0.02968,0.01307c-0.20003,-0.00085 -0.40003,-0.00563 -0.59995,-0.0133l-0.48647,0.12162c-0.04209,0.01151 -0.0864,0.01765 -0.13215,0.01765c-0.27614,0 -0.5,-0.22386 -0.5,-0.5c0,-0.09343 0.02563,-0.18088 0.07023,-0.25569l0.24054,-0.42094c0.15861,-0.31602 0.29133,-0.64579 0.40239,-0.98148c0,0 0.15811,-0.47434 0.63246,-0.31623c0.47434,0.15811 0.31623,0.63246 0.31623,0.63246c-0.00922,0.02749 -0.01858,0.05494 -0.02806,0.08235z" fill="#7a5c98" stroke="none" stroke-width="0.5"/><path d="M219.04347,142.29885c0,0.5 -0.5,0.5 -0.5,0.5h-0.125c-1.57566,-0.00325 -1.87007,-0.15861 -1.68364,-1.74952c0,0 0.06202,-0.49614 0.55816,-0.43412c0.49614,0.06202 0.43412,0.55816 0.43412,0.55816c-0.03539,0.26977 -0.08532,0.57397 -0.27585,0.76821c-0.22821,0.23265 0.64131,-0.14213 0.96721,-0.14272h0.125c0,0 0.5,0 0.5,0.5z" fill="#7a5c98" stroke="none" stroke-width="0.5"/><path d="M221.85597,140.86135c0.5,0 0.5,0.5 0.5,0.5l-0.02566,0.47061c-0.60932,0.99259 -0.98786,0.82447 -1.47434,0.35127v0.42812c0,0 0,0.5 -0.5,0.5c-0.5,0 -0.5,-0.5 -0.5,-0.5c0,-0.35417 0,-1.14583 0,-1.5c0,0 0,-0.28916 0.21989,-0.42768c0.32069,-0.31838 0.67186,-0.01111 0.67186,-0.01111c0.13739,0.12031 0.44297,0.53509 0.62644,0.79825l-0.01819,-0.10947c0,0 0,-0.5 0.5,-0.5z" fill="#7a5c98" stroke="none" stroke-width="0.5"/><path d="M224.38237,140.53913c0.44721,-0.22361 0.67082,0.22361 0.67082,0.22361l0.2621,0.52604c0.29365,1.41603 -0.56858,1.69731 -1.65442,1.63671l0.00712,0.05699l-0.49218,0.06152c-0.02282,0.00319 -0.04614,0.00484 -0.06984,0.00484c-0.27614,0 -0.5,-0.22386 -0.5,-0.5c0,-0.11048 0.03583,-0.2126 0.09652,-0.29535l0.30912,-0.43277l0.01102,0.00787l0.01434,-0.04044c0.13432,-0.13512 0.26864,-0.27024 0.40296,-0.40537c0,0 0.35355,-0.35355 0.70711,0c0.18128,0.18128 0.17666,0.36256 0.12912,0.49619c0.26607,0.05065 0.43184,0.1017 0.12051,-0.19507l-0.2379,-0.47396c0,0 -0.22361,-0.44721 0.22361,-0.67082z" fill="#7a5c98" stroke="none" stroke-width="0.5"/></g><path d="M286.08835,126.38078v59.3949c0,0.9386 -0.76314,1.70207 -1.7024,1.70207h-88.77223c-0.93827,0 -1.70207,-0.76347 -1.70207,-1.70207v-59.39522c0,-0.9386 0.7638,-1.70208 1.70207,-1.70208h88.77223c0.93926,0 1.7024,0.7638 1.7024,1.7024z" fill="none" fill-rule="nonzero" stroke="#666666" stroke-width="2" stroke-linecap="butt" stroke-linejoin="miter"/><g fill-rule="nonzero" stroke="none" stroke-linecap="butt" stroke-linejoin="miter"><text transform="translate(252.9769,234.29901) scale(0.19588,0.20747)" font-size="40" xml:space="preserve" fill="#585858" fill-rule="nonzero" stroke="none" stroke-width="1" stroke-linecap="butt" stroke-linejoin="miter" stroke-miterlimit="10" stroke-dasharray="" stroke-dashoffset="0" font-family="Sans Serif" font-weight="normal" text-anchor="start" style="mix-blend-mode: normal"><tspan x="0" dy="0">-8</tspan></text><path d="M244.4761,236.41881l1.7486,-4.14478l-2.20732,-0.69125l5.87862,-5.12252l-1.71443,4.10799l2.18486,0.71764z" fill="#e6c245" stroke-width="0"/></g></g></g></svg>