<svg version="1.1" xmlns="http://www.w3.org/2000/svg" xmlns:xlink="http://www.w3.org/1999/xlink" width="480" height="597.58933" viewBox="0,0,480,597.58933"><g transform="translate(0,179.98881)"><g data-paper-data="{&quot;isPaintingLayer&quot;:true}" stroke-linejoin="miter" stroke-miterlimit="10" stroke-dasharray="" stroke-dashoffset="0" style="mix-blend-mode: normal"><path d="M0,360.01119v-540h480v540z" fill-opacity="0.6" fill="#333333" fill-rule="nonzero" stroke="none" stroke-width="NaN" stroke-linecap="butt"/><path d="M362.331,396.39631c0,11.69291 -9.50718,21.20421 -21.20826,21.20421h-202.24953c-11.68886,0 -21.20422,-9.51122 -21.20422,-21.20421v-236.39292c0,-11.69296 9.51531,-21.20421 21.20422,-21.20421h202.24953c11.7011,0 21.20826,9.51535 21.20826,21.20828z" fill="#8c858a" fill-rule="nonzero" stroke="none" stroke-width="1" stroke-linecap="butt"/><g fill-rule="nonzero"><path d="M320.56428,161.06602c0,-7.29563 5.91427,-13.2099 13.2099,-13.2099c7.29563,0 13.2099,5.91427 13.2099,13.2099c0,7.29563 -5.91427,13.2099 -13.2099,13.2099c-7.29563,0 -13.2099,-5.91428 -13.2099,-13.2099z" fill="#736d72" stroke="none" stroke-width="0" stroke-linecap="butt"/><g fill="none" stroke="#ffffff" stroke-width="3.5" stroke-linecap="round"><path d="M328.28073,155.57257l10.9869,10.98692"/><path d="M339.26763,155.57257l-10.9869,10.98692"/></g></g><text transform="translate(158.22432,171.34953) scale(0.63427,0.63427)" font-size="40" xml:space="preserve" fill="#ffffff" fill-rule="nonzero" stroke="#ffffff" stroke-width="1" stroke-linecap="butt" stroke-linejoin="miter" stroke-miterlimit="10" stroke-dasharray="" stroke-dashoffset="0" font-family="&quot;ヒラギノ角ゴ Pro W3&quot;, &quot;Hiragino Kaku Gothic Pro&quot;, Osaka, &quot;メイリオ&quot;, Meiryo, &quot;ＭＳ Ｐゴシック&quot;, &quot;MS PGothic&quot;" font-weight="normal" text-anchor="start" style="mix-blend-mode: normal"><tspan x="0" dy="0">読み込み失敗</tspan></text><text transform="translate(143.34826,205.82731) scale(0.43748,0.43748)" font-size="40" xml:space="preserve" fill="#f2e6ef" fill-rule="nonzero" stroke="none" stroke-width="1" stroke-linecap="butt" stroke-linejoin="miter" stroke-miterlimit="10" stroke-dasharray="" stroke-dashoffset="0" font-family="&quot;ヒラギノ角ゴ Pro W3&quot;, &quot;Hiragino Kaku Gothic Pro&quot;, Osaka, &quot;メイリオ&quot;, Meiryo, &quot;ＭＳ Ｐゴシック&quot;, &quot;MS PGothic&quot;" font-weight="normal" text-anchor="start" style="mix-blend-mode: normal"><tspan x="0" dy="0">正しくセーブコードが</tspan><tspan x="0" dy="48px">取得できませんでした。</tspan></text><g fill-rule="nonzero" stroke-width="1" stroke-linecap="butt"><path d="M303.08783,284.99624c0,2.38835 -1.94188,4.33107 -4.33189,4.33107h-117.5127c-2.38751,0 -4.33108,-1.94271 -4.33108,-4.33107v-28.49834c0,-2.38835 1.94356,-4.33107 4.33108,-4.33107h117.51271c2.39002,0 4.33189,1.94355 4.33189,4.3319z" fill="#736f72" stroke="none"/><text transform="translate(181.83055,276.32175) scale(0.46456,0.46456)" font-size="40" xml:space="preserve" fill="#ffffff" fill-rule="nonzero" stroke="#ffffff" stroke-width="1" stroke-linecap="butt" stroke-linejoin="miter" stroke-miterlimit="10" stroke-dasharray="" stroke-dashoffset="0" font-family="&quot;ヒラギノ角ゴ Pro W3&quot;, &quot;Hiragino Kaku Gothic Pro&quot;, Osaka, &quot;メイリオ&quot;, Meiryo, &quot;ＭＳ Ｐゴシック&quot;, &quot;MS PGothic&quot;" font-weight="normal" text-anchor="start" style="mix-blend-mode: normal"><tspan x="0" dy="0">もう一度試す</tspan></text></g><g fill-rule="nonzero" stroke-width="1" stroke-linecap="butt"><path d="M303.08783,334.55426c0,2.38835 -1.94188,4.33107 -4.33189,4.33107h-117.5127c-2.38751,0 -4.33108,-1.94271 -4.33108,-4.33107v-28.49834c0,-2.38835 1.94356,-4.33107 4.33108,-4.33107h117.51271c2.39002,0 4.33189,1.94355 4.33189,4.3319z" fill="#736f72" stroke="none"/><text transform="translate(218.224,325.87978) scale(0.46456,0.46456)" font-size="40" xml:space="preserve" fill="#ffffff" fill-rule="nonzero" stroke="#ffffff" stroke-width="1" stroke-linecap="butt" stroke-linejoin="miter" stroke-miterlimit="10" stroke-dasharray="" stroke-dashoffset="0" font-family="&quot;ヒラギノ角ゴ Pro W3&quot;, &quot;Hiragino Kaku Gothic Pro&quot;, Osaka, &quot;メイリオ&quot;, Meiryo, &quot;ＭＳ Ｐゴシック&quot;, &quot;MS PGothic&quot;" font-weight="normal" text-anchor="start" style="mix-blend-mode: normal"><tspan x="0" dy="0">戻る</tspan></text></g><path d="M123.75008,350.73688c0,-1.98795 1.54755,-3.599 3.45021,-3.599c0.03757,0.00002 0.0507,0.00015 0.06743,0.00079c0.01741,0.00067 0.02884,0.00178 0.03246,0.00247l0.70103,0.13525l-0.24946,-0.67808c-0.10022,-0.27243 -0.14963,-0.56779 -0.14963,-0.89017c0,-1.51697 1.18653,-2.74782 2.63952,-2.74782c0.48784,0 0.94837,0.13641 1.35372,0.39642l0.30335,0.19459l0.22474,-0.28384c1.23345,-1.5578 3.06549,-2.47688 5.04051,-2.47688c3.60201,0 6.5205,3.0274 6.5205,6.77132c0,0.09904 -0.00048,0.13997 -0.0028,0.18812c-0.00205,0.04249 -0.00546,0.08008 -0.01062,0.11607l-0.11182,0.77866l0.69158,-0.35665c0.41737,-0.21524 0.87223,-0.3278 1.34862,-0.3278c1.68639,0 3.06374,1.42589 3.06374,3.18646c0,1.76223 -1.37643,3.18647 -3.06374,3.18647h-18.3991c-1.90595,0 -3.45021,-1.60402 -3.45021,-3.59639z" fill="#e6ffff" fill-rule="evenodd" stroke="none" stroke-width="0" stroke-linecap="butt"/></g></g></svg>