<svg version="1.1" xmlns="http://www.w3.org/2000/svg" xmlns:xlink="http://www.w3.org/1999/xlink" width="47.10834" height="54.56162" viewBox="0,0,47.10834,54.56162"><g transform="translate(-195.6917,-142.47012)"><g data-paper-data="{&quot;isPaintingLayer&quot;:true}" fill-rule="nonzero" stroke-miterlimit="10" stroke-dasharray="" stroke-dashoffset="0" style="mix-blend-mode: normal"><path d="M227.68423,179.01651v0c0,0.22473 -0.0245,0.37997 -0.03776,0.44972c-0.96418,1.28513 -3.06475,3.49398 -3.85296,3.37924c-0.08373,-0.01326 -0.29945,-0.04525 -0.29945,-0.85245c0,-0.23875 0.44795,-2.99253 0.42146,-3.12901c0.35823,-0.34297 1.67536,-1.50865 2.82654,-1.26716c0.79792,0.16674 0.94216,0.90543 0.94216,1.41966z" data-paper-data="{&quot;index&quot;:null}" fill="#ffc93e" stroke="#603813" stroke-width="0.65" stroke-linecap="butt" stroke-linejoin="miter"/><path d="M230.876,182.87521v0c-0.20924,0.22725 -0.46249,0.33773 -0.77445,0.33724c-0.39474,0 -0.75746,-0.74646 -0.98795,-1.49238l-0.30796,-0.8537c-0.43096,-0.92318 -0.94044,-2.12712 -0.96919,-2.1761c-0.06198,-0.10675 -0.08372,-0.19522 -0.08372,-0.26825c0,-0.08323 0.02799,-0.14823 0.05799,-0.1997c0.29598,-0.51223 1.53613,-0.8517 2.25357,-0.86044c0.20999,0.07023 1.44916,0.53744 1.44916,1.88335c0,0.02374 -0.00178,0.08848 -0.00178,0.08848l0.00102,0.01552c0.00075,0.00625 0.01624,0.20795 0.01624,0.51121c0,0.71469 -0.0815,2.3948 -0.65293,3.01476z" data-paper-data="{&quot;index&quot;:null}" fill="#ffc93e" stroke="#603813" stroke-width="0.65" stroke-linecap="butt" stroke-linejoin="miter"/><path d="M213.35014,171.04443v0c-2.57642,0.99712 -3.7159,1.16688 -4.32021,0.05522c-0.23635,-0.43495 -0.23328,-0.9373 0.00691,-1.45194c0.58893,-1.25852 2.76576,-2.92736 5.17251,-3.41297c1.6431,-0.33178 6.46175,0.48432 7.11151,1.30602c0.05445,0.06754 0.10569,0.19488 0.08833,0.23403c-0.00519,0.19425 -0.15053,0.43369 -0.39927,0.60514c-0.69039,0.47615 -1.95282,0.91514 -3.27103,1.25861c-1.02436,0.2659 -2.18706,0.56878 -3.33364,1.00117z" data-paper-data="{&quot;index&quot;:null}" fill="#ffc93e" stroke="#603813" stroke-width="0.65" stroke-linecap="butt" stroke-linejoin="miter"/><path d="M231.3987,154.33985v0c1.42113,0.77369 2.64504,-0.6197 3.72421,-1.84937c0.8847,-1.00716 1.97759,-2.29483 2.74206,-1.99885c0.20671,0.08022 0.34572,0.20698 0.42496,0.38747c0.28773,0.65621 -0.46148,2.24607 -0.8572,3.25249c-0.4207,1.07168 -0.72444,1.84586 -0.26146,2.15409c0.44519,0.29674 1.0864,-0.15321 1.75286,-0.47169c0.82193,-0.39199 1.63587,-0.8012 1.86361,-0.41674c0.20524,0.347 -0.70346,1.82363 -1.26641,2.83554c-0.94292,1.69487 -2.01135,3.61572 -1.44366,4.99687l0.44971,0.74894c0.7827,1.16844 2.66907,3.29454 2.30783,7.02873c-0.41445,4.28395 -4.51716,7.27345 -4.55416,7.30296l-0.15099,0.11948l0.06576,0.18049c0.41799,1.14892 0.67045,2.94704 0.32846,3.70597c-0.14296,0.31822 -0.31821,0.49347 -0.55669,0.55722c-0.71518,0.1915 -0.66997,-0.43072 -1.17741,-1.09816c-2.52958,-3.32502 -4.50691,-3.15877 -4.50691,-3.15877l-0.06775,0.01948c-1.25967,0.37349 -2.5858,0.56348 -3.9417,0.56348c-7.31046,0 -12.77205,-4.38591 -12.77205,-10.61645c0,-2.94229 1.55311,-6.08278 3.64149,-8.67284l0.01549,-0.01899l0.01123,-0.02276c0,0 0.03052,-0.05651 0.04902,-0.1c0.05799,-0.17872 1.41039,-4.39368 1.66963,-5.79555l0.10924,-0.63047c0.19771,-1.17865 0.70519,-4.3604 1.47712,-4.34865c0.51245,0.00874 0.68047,1.73686 0.83519,2.6918c0.16851,1.03942 0.0985,1.53363 0.62795,1.97533c0.64947,0.53974 1.58964,0.68572 1.60716,0.66748c0.9944,-1.05145 2.29381,-2.64556 2.29381,-2.64556l1.81761,-2.07037c1.78313,-2.09208 6.18155,-7.28269 7.10224,-6.78373c0.47594,0.25773 -0.98844,3.00801 -1.80962,4.63641c-1.5024,2.97824 -3.05529,6.05702 -1.55063,6.87473z" data-paper-data="{&quot;index&quot;:null}" fill="#ffc93e" stroke="#603813" stroke-width="0.65" stroke-linecap="round" stroke-linejoin="round"/><g data-paper-data="{&quot;index&quot;:null}" stroke="none" stroke-width="0.65" stroke-linecap="butt" stroke-linejoin="miter"><path d="M228.10092,171.07411c-1.12439,0 -2.03558,-0.9112 -2.03558,-2.03487c0,-1.12439 0.91141,-2.03683 2.03558,-2.03683c1.12469,0.00049 2.03612,0.91244 2.03612,2.03683v0c0,1.12368 -0.91169,2.03487 -2.03612,2.03487z" fill="#ffffff"/><path d="M228.83962,167.97133c0.2595,0.25924 0.41998,0.61743 0.41998,1.01266c0,0.39523 -0.16048,0.75346 -0.41998,1.01267c-0.25921,0.2595 -0.61744,0.41999 -1.01267,0.41999c-0.39519,0 -0.75343,-0.16049 -1.01267,-0.41999c-0.25947,-0.2592 -0.41995,-0.61744 -0.41995,-1.01267c0,-0.39522 0.16048,-0.75342 0.41995,-1.01266c0.25924,-0.25947 0.61747,-0.41999 1.01267,-0.41999c0.39523,0 0.75346,0.16052 1.01267,0.41999z" fill="#603813"/></g><g data-paper-data="{&quot;index&quot;:null}" stroke="none" stroke-width="0.65" stroke-linecap="butt" stroke-linejoin="miter"><path d="M218.29344,171.07411c-1.12367,0 -2.03562,-0.9112 -2.03562,-2.03487c0,-1.12439 0.91145,-2.03683 2.03562,-2.03683c1.12492,0.00049 2.03634,0.91244 2.03634,2.03683v0c0,1.12368 -0.91142,2.03487 -2.03634,2.03487z" fill="#ffffff"/><path d="M218.02019,170.41613c-0.79091,0 -1.43261,-0.64042 -1.43261,-1.43213c0,-0.79069 0.64169,-1.43265 1.43261,-1.43265c0.79144,0 1.43239,0.6417 1.43239,1.43265v0c0,0.79118 -0.64094,1.43213 -1.43239,1.43213z" fill="#603813"/></g><path d="M230.04385,178.39259v0c-0.85877,-0.9285 -0.33027,-1.9542 1.44366,-4.07263l0.72024,-0.8689c0.77924,-0.94624 1.43791,-1.94861 2.02164,-2.83361c0.74788,-1.13801 1.57018,-2.19233 2.24331,-2.69261c0.24241,-0.18041 0.51514,-0.2416 0.70036,-0.18316c0.04337,-0.00445 0.14695,0.08565 0.194,0.15819c0.56853,0.87932 -0.20791,5.7046 -1.05054,7.15371c-1.23382,2.12199 -3.51329,3.64695 -4.89574,3.79938c-0.56539,0.06215 -1.04091,-0.0968 -1.37693,-0.46038z" data-paper-data="{&quot;index&quot;:null}" fill="#ffc93e" stroke="#603813" stroke-width="0.65" stroke-linecap="butt" stroke-linejoin="miter"/><path d="M224.45548,174.33586c-1.29765,1.11214 -3.15079,1.11067 -3.15079,1.11067" data-paper-data="{&quot;index&quot;:null}" fill="none" stroke="#603813" stroke-width="0.65" stroke-linecap="round" stroke-linejoin="round"/><path d="M227.65004,195.78174v-14.1l13.7,0.4l-0.3,-20.2l0.5,33.9" fill="none" stroke="#8d6547" stroke-width="2.5" stroke-linecap="round" stroke-linejoin="miter"/><path d="M239.4167,180.36507c0,0.35898 -2.73107,0.65 -6.1,0.65c-3.36893,0 -6.1,-0.29102 -6.1,-0.65c0,-0.35898 2.73107,-0.65 6.1,-0.65c3.36893,0 6.1,0.29102 6.1,0.65z" fill="#4c4c4c" stroke="#666666" stroke-width="2" stroke-linecap="butt" stroke-linejoin="miter"/><path d="M196.9417,194.76507v-22.9h22.8l-10.1,22.9z" fill="none" stroke="#b28059" stroke-width="2.5" stroke-linecap="butt" stroke-linejoin="miter"/></g></g></svg>