<svg version="1.1" xmlns="http://www.w3.org/2000/svg" xmlns:xlink="http://www.w3.org/1999/xlink" width="99.20614" height="119.40827" viewBox="0,0,99.20614,119.40827"><defs><linearGradient x1="240" y1="146.46463" x2="240" y2="156.04646" gradientUnits="userSpaceOnUse" id="color-1"><stop offset="0" stop-color="#93f2ff"/><stop offset="1" stop-color="#d0ffcb"/></linearGradient><linearGradient x1="240" y1="156.04646" x2="240" y2="161.93486" gradientUnits="userSpaceOnUse" id="color-2"><stop offset="0" stop-color="#636666"/><stop offset="1" stop-color="#a8adad"/></linearGradient></defs><g transform="translate(-190.39693,-120.29588)"><g data-paper-data="{&quot;isPaintingLayer&quot;:true}" stroke-miterlimit="10" stroke-dasharray="" stroke-dashoffset="0" style="mix-blend-mode: normal"><path d="M289.60307,129.31305v101.37565c0,4.97152 -4.04218,9.01545 -9.01718,9.01545h-81.17351c-4.96979,0 -9.01545,-4.04392 -9.01545,-9.01544v-101.37738c0,-4.97152 4.04566,-9.01545 9.01545,-9.01545h81.17351c4.975,0 9.01718,4.04566 9.01718,9.01719z" fill-opacity="0.74902" fill="#d2d3d4" fill-rule="nonzero" stroke="none" stroke-width="1" stroke-linecap="butt" stroke-linejoin="miter"/><path d="M287.06513,163.32664v65.07452c0,4.97152 -4.04219,9.01545 -9.01719,9.01545l-76.09761,0.25093c-4.96979,0 -9.01545,-4.04392 -9.01545,-9.01545v-65.07627z" fill-opacity="0.96471" fill="#fafafa" fill-rule="nonzero" stroke="none" stroke-width="1" stroke-linecap="butt" stroke-linejoin="miter"/><text transform="translate(197.4876,200.16945) scale(0.28036,0.28036)" font-size="40" xml:space="preserve" fill="#000000" fill-rule="nonzero" stroke="#000000" stroke-width="1" stroke-linecap="butt" stroke-linejoin="miter" stroke-miterlimit="10" stroke-dasharray="" stroke-dashoffset="0" font-family="&quot;ヒラギノ角ゴ Pro W3&quot;, &quot;Hiragino Kaku Gothic Pro&quot;, Osaka, &quot;メイリオ&quot;, Meiryo, &quot;ＭＳ Ｐゴシック&quot;, &quot;MS PGothic&quot;" font-weight="normal" text-anchor="start" style="mix-blend-mode: normal"><tspan x="0" dy="0">ATM</tspan></text><g fill-rule="nonzero" stroke="none" stroke-linecap="butt" stroke-linejoin="miter"><g fill="#45b5e6" stroke-width="0"><path d="M208.75315,213.93832l-6.05509,-6.05509l0.90827,-0.90827l6.05509,6.05509z"/><path d="M207.66481,204.70311c0.3036,0.3036 0.30354,0.79598 0,1.09952l-6.13918,6.13917c-0.3036,0.3036 -0.79592,0.30347 -1.09945,-0.00006l-2.54359,-2.54359c-0.3036,-0.3036 -0.3036,-0.79579 0,-1.0994l6.13911,-6.13911c0.30374,-0.30374 0.79586,-0.30366 1.09946,-0.00006l2.54358,2.54358z"/></g><text transform="translate(209.44316,210.32878) scale(0.19587,0.20747)" font-size="40" xml:space="preserve" fill="#585858" fill-rule="nonzero" stroke="none" stroke-width="1" stroke-linecap="butt" stroke-linejoin="miter" stroke-miterlimit="10" stroke-dasharray="" stroke-dashoffset="0" font-family="Sans Serif" font-weight="normal" text-anchor="start" style="mix-blend-mode: normal"><tspan x="0" dy="0">580,000G</tspan></text></g><g stroke-width="1"><g data-paper-data="{&quot;index&quot;:null}"><path d="M204.68463,214.69793c0.0443,-0.02953 0.11815,-0.01477 0.13292,0.04431l0.38401,1.58035c0,0 0.94524,0.69416 1.22588,1.18158c0.47263,0.81232 0.48739,1.47697 0.48739,1.47697c0,0 1.04864,0.31017 1.22589,1.15203c0.17723,0.84187 -0.47263,2.43699 -3.24931,2.98347c-2.7767,0.54647 -5.00691,-0.20678 -6.05557,-1.89052c-1.04864,-1.68374 0.60554,-3.69241 0.51693,-3.57425l-0.31017,-2.64377c-0.01477,-0.05909 0.05908,-0.10339 0.11814,-0.07385l1.78713,1.16681c0,0 0.66464,-0.25109 1.35881,-0.28063c0.41356,-0.02953 0.76802,0 1.10772,0.05909z" fill="#45b5e6" fill-rule="evenodd" stroke="#45b5e6" stroke-linecap="butt" stroke-linejoin="miter"/><path d="M209.58817,219.20268c-0.69417,0.56124 -1.7576,0.57601 -1.7576,0.57601" fill="#45b5e6" fill-rule="evenodd" stroke="#45b5e6" stroke-linecap="round" stroke-linejoin="round"/><path d="M209.39615,220.85687c-0.93048,0.07385 -1.50651,-0.20676 -1.50651,-0.20676" fill="#45b5e6" fill-rule="evenodd" stroke="#45b5e6" stroke-linecap="round" stroke-linejoin="round"/><path d="M197.72814,219.15836c0,0 1.27017,0.41356 1.78711,0.87141" fill="#45b5e6" fill-rule="evenodd" stroke="#45b5e6" stroke-linecap="round" stroke-linejoin="round"/><path d="M199.55957,220.54671c-0.6351,0.25108 -1.72804,0.08862 -1.72804,0.08862" fill="#45b5e6" fill-rule="evenodd" stroke="#45b5e6" stroke-linecap="round" stroke-linejoin="round"/><g fill="none" fill-rule="nonzero" stroke="none" stroke-linecap="butt" stroke-linejoin="miter" font-family="sans-serif" font-weight="normal" font-size="12" text-anchor="start"/><g fill="none" fill-rule="nonzero" stroke="none" stroke-linecap="butt" stroke-linejoin="miter" font-family="sans-serif" font-weight="normal" font-size="12" text-anchor="start"/></g><text transform="translate(209.44316,222.38156) scale(0.19588,0.20747)" font-size="40" xml:space="preserve" fill="#585858" fill-rule="nonzero" stroke="none" stroke-width="1" stroke-linecap="butt" stroke-linejoin="miter" stroke-miterlimit="10" stroke-dasharray="" stroke-dashoffset="0" font-family="Sans Serif" font-weight="normal" text-anchor="start" style="mix-blend-mode: normal"><tspan x="0" dy="0">30G</tspan></text></g><g fill-rule="nonzero" stroke="none" stroke-linecap="butt" stroke-linejoin="miter"><g fill="#45b5e6" stroke-width="0"><path d="M241.85852,206.60629l5.64578,-1.34827l3.23916,3.23917l-1.34825,5.64577l-3.23077,-3.23077l-0.02081,-1.06159h-1.04078z"/><path d="M254.06963,202.84012l-4.99544,4.99545l-0.90828,-0.90827l4.99544,-4.99545z"/></g><text transform="translate(252.97427,210.4311) scale(0.19589,0.20748)" font-size="40" xml:space="preserve" fill="#585858" fill-rule="nonzero" stroke="none" stroke-width="1" stroke-linecap="butt" stroke-linejoin="miter" stroke-miterlimit="10" stroke-dasharray="" stroke-dashoffset="0" font-family="Sans Serif" font-weight="normal" text-anchor="start" style="mix-blend-mode: normal"><tspan x="0" dy="0">2,900G</tspan></text></g><path d="M194.89041,186.32393v-60.49176h90.21921v60.49176z" fill="#ffffff" fill-rule="nonzero" stroke="#666666" stroke-width="2" stroke-linecap="butt" stroke-linejoin="miter"/><path d="M286.08836,126.38077v59.3949c0,0.9386 -0.76314,1.70207 -1.7024,1.70207h-88.77223c-0.93827,0 -1.70207,-0.76347 -1.70207,-1.70207v-59.39522c0,-0.9386 0.7638,-1.70208 1.70207,-1.70208h88.77223c0.93926,0 1.7024,0.7638 1.7024,1.7024z" fill="none" fill-rule="nonzero" stroke="#666666" stroke-width="2" stroke-linecap="butt" stroke-linejoin="miter"/><g fill-rule="nonzero" stroke-linejoin="miter"><g><path d="M203.5398,235.0135h-3.44983c-0.52022,0 -0.94337,-0.42298 -0.94337,-0.94356v-6.55078c0,-0.52004 0.42316,-0.94337 0.94337,-0.94337h3.45001c0.52022,0 0.94337,0.42333 0.94337,0.94337v6.55078c0,0.52058 -0.42334,0.94356 -0.94356,0.94356z" fill="#3dcc4b" stroke="#f7f7f7" stroke-width="0.5" stroke-linecap="butt"/><path d="M206.8039,235.04654h-2.55763c-0.52022,0 -0.94337,-0.42297 -0.94337,-0.94355v-4.60115c0,-0.52004 0.42315,-0.94337 0.94337,-0.94337h2.55781c0.52022,0 0.94337,0.42334 0.94337,0.94337v4.60115c0,0.52058 -0.42334,0.94355 -0.94356,0.94355z" fill="#3dcc4b" stroke="#f7f7f7" stroke-width="0.5" stroke-linecap="butt"/><path d="M208.16972,235.0135h-9.02312" fill="none" stroke="#3dcc4b" stroke-width="2" stroke-linecap="round"/><path d="M200.10821,228.30655h2.95751" fill="none" stroke="#f7f7f7" stroke-width="0.5" stroke-linecap="round"/><path d="M202.55581,229.2584h-2.4476" fill="none" stroke="#f7f7f7" stroke-width="0.5" stroke-linecap="round"/><path d="M201.9439,230.21024h-1.83569" fill="none" stroke="#f7f7f7" stroke-width="0.5" stroke-linecap="round"/><path d="M204.30138,229.87029h2.4476" fill="none" stroke="#f7f7f7" stroke-width="0.5" stroke-linecap="round"/><path d="M204.30138,230.82214h1.73372" fill="none" stroke="#f7f7f7" stroke-width="0.5" stroke-linecap="round"/><path d="M206.20507,231.77398h-1.90368" fill="none" stroke="#f7f7f7" stroke-width="0.5" stroke-linecap="round"/></g><text transform="translate(209.44316,234.20486) scale(0.19588,0.20747)" font-size="40" xml:space="preserve" fill="#585858" fill-rule="nonzero" stroke="none" stroke-width="1" stroke-linecap="butt" stroke-linejoin="miter" stroke-miterlimit="10" stroke-dasharray="" stroke-dashoffset="0" font-family="Sans Serif" font-weight="normal" text-anchor="start" style="mix-blend-mode: normal"><tspan x="0" dy="0">+5%</tspan></text></g><g fill-rule="nonzero" stroke="none" stroke-linecap="butt" stroke-linejoin="miter"><text transform="translate(252.9769,234.29901) scale(0.19588,0.20747)" font-size="40" xml:space="preserve" fill="#585858" fill-rule="nonzero" stroke="none" stroke-width="1" stroke-linecap="butt" stroke-linejoin="miter" stroke-miterlimit="10" stroke-dasharray="" stroke-dashoffset="0" font-family="Sans Serif" font-weight="normal" text-anchor="start" style="mix-blend-mode: normal"><tspan x="0" dy="0">-20</tspan></text><path d="M244.4761,236.41881l1.7486,-4.14478l-2.20732,-0.69125l5.87862,-5.12252l-1.71443,4.10799l2.18486,0.71764z" fill="#e6c245" stroke-width="0"/></g><g fill-rule="nonzero" stroke-linejoin="miter"><path d="M194.89041,186.32393v-60.49176h90.21921v60.49176z" fill="#d8ccb8" stroke="#666666" stroke-width="2" stroke-linecap="butt"/><path d="M195.90988,185.48834v-3.6523h88.18031v3.6523z" fill="#c0c0c0" stroke="none" stroke-width="0" stroke-linecap="butt"/><path d="M229.42773,182.90018v-5.88841h21.14435v5.88841z" fill="#666666" stroke="#666666" stroke-width="1" stroke-linecap="butt"/><path d="M229.42773,181.08836v-19.08879h21.14435v19.08879z" fill="#c9c9c9" stroke="#666666" stroke-width="1" stroke-linecap="butt"/><path d="M250.57208,141.74603v20.25355h-21.14435v-20.25355z" fill="#b8b8b8" stroke="#666666" stroke-width="1" stroke-linecap="butt"/><path d="M248.41753,146.46463v9.58183h-16.83505v-9.58183z" fill="url(#color-1)" stroke="#666666" stroke-width="1" stroke-linecap="butt"/><path d="M229.42772,181.80015v-40.05412" fill="none" stroke-opacity="0.68627" stroke="#6ca0b8" stroke-width="1.5" stroke-linecap="round"/><path d="M250.57208,182.02663v-40.05412" fill="none" stroke-opacity="0.68627" stroke="#6ca0b8" stroke-width="1.5" stroke-linecap="round"/><path d="M229.42772,141.74603v-3.05355h21.14435v3.05355z" fill="#f15151" stroke="#666666" stroke-width="1" stroke-linecap="butt"/><path d="M231.58248,161.93486v-5.88841h16.83504v5.88841z" fill="url(#color-2)" stroke="#666666" stroke-width="1" stroke-linecap="butt"/><g stroke="none" stroke-linecap="butt"><path d="M209.10096,173.17387c-1.26536,-0.72306 -3.00867,-0.97138 -3.98581,-1.98072c-0.14902,-0.15393 -0.28022,-0.32556 -0.38919,-0.51928c-1.5237,-2.70875 -4.21456,-7.30789 -4.80437,-10.23958c-0.36369,-1.80775 1.46879,-2.50028 1.5929,-3.89615c0.16546,-1.86099 -0.27121,-4.76007 -0.44746,-6.49027c-0.60491,-5.93816 0.7753,-14.83092 9.58186,-13.18857c3.86821,0.72139 5.5979,4.68611 6.50318,8.22646c0.16226,0.63458 1.65271,1.40127 2.02834,2.10486c0.77574,1.45305 1.34494,3.8548 1.76916,5.5517c0.7539,3.01562 -4.05892,11.86159 -5.96465,14.40809c-0.77768,1.03917 -0.44795,2.91718 -1.57488,3.56114z" fill="#2ca845" stroke-width="0.5"/><path d="M203.96564,182.50125l-2.13989,-14.62781h14.39562l-2.13989,14.62781z" fill="#bd9449" stroke-width="0"/></g><g data-paper-data="{&quot;index&quot;:null}" stroke="none" stroke-linecap="butt"><path d="M266.59003,170.71154c-1.12693,-0.64396 -0.7972,-2.52197 -1.57488,-3.56114c-1.90573,-2.54649 -6.71855,-11.39247 -5.96465,-14.40809c0.42422,-1.6969 0.99343,-4.09865 1.76916,-5.5517c0.37563,-0.7036 1.86608,-1.47028 2.02835,-2.10486c0.90527,-3.54035 2.63497,-7.50506 6.50317,-8.22645c8.80656,-1.64235 10.18676,7.25042 9.58186,13.18857c-0.17625,1.7302 -0.61292,4.62928 -0.44747,6.49027c0.12411,1.39587 1.95659,2.0884 1.59289,3.89615c-0.58981,2.93169 -3.28067,7.53082 -4.80437,10.23958c-0.10897,0.19371 -0.24017,0.36535 -0.38918,0.51928c-0.97714,1.00934 -2.72046,1.25765 -3.98582,1.98072z" fill="#2ca845" stroke-width="0.5"/><path d="M265.91858,182.50125l-2.13989,-14.6278h14.39562l-2.13989,14.6278z" fill="#bd9449" stroke-width="0"/></g></g></g></g></svg>