<svg version="1.1" xmlns="http://www.w3.org/2000/svg" xmlns:xlink="http://www.w3.org/1999/xlink" width="249.37735" height="142.86543" viewBox="0,0,249.37735,142.86543"><g transform="translate(-59.97401,-103.45657)"><g data-paper-data="{&quot;isPaintingLayer&quot;:true}" fill-rule="nonzero" stroke="none" stroke-linecap="butt" stroke-linejoin="miter" stroke-miterlimit="10" stroke-dasharray="" stroke-dashoffset="0" style="mix-blend-mode: normal"><path d="M309.35135,185.81358v51.53475c0,4.74471 -3.85777,8.60414 -8.60579,8.60414h-62.60278c-4.74305,0 -8.60414,-3.85943 -8.60414,-8.60414v-51.53641c0,-4.74471 3.86109,-8.60414 8.60414,-8.60414h62.60278c4.74802,0 8.6058,3.86109 8.6058,8.6058z" fill-opacity="0.54902" fill="#808080" stroke-width="1"/><text transform="translate(240.3274,241.94708) scale(0.36397,0.36397)" font-size="40" xml:space="preserve" fill="#ffffff" fill-rule="nonzero" stroke="none" stroke-width="1" stroke-linecap="butt" stroke-linejoin="miter" stroke-miterlimit="10" stroke-dasharray="" stroke-dashoffset="0" font-family="Sans Serif" font-weight="normal" text-anchor="start" style="mix-blend-mode: normal"><tspan x="0" dy="0">アイテム</tspan></text><g stroke-width="1"><path d="M309.35136,191.08626c0,0.94429 -0.76778,1.7124 -1.71274,1.7124h-24.88086c-0.94396,0 -1.71241,-0.7681 -1.71241,-1.7124v-12.16608c0,-0.9443 0.76844,-1.7124 1.71241,-1.7124h24.88086c0.94495,0 1.71274,0.76843 1.71274,1.71273z" fill="#e64545"/><text transform="translate(283.66112,188.06504) scale(0.26538,0.26538)" font-size="40" xml:space="preserve" fill="#f2ffff" fill-rule="nonzero" stroke="none" stroke-width="1" stroke-linecap="butt" stroke-linejoin="miter" stroke-miterlimit="10" stroke-dasharray="" stroke-dashoffset="0" font-family="&quot;ヒラギノ角ゴ Pro W3&quot;, &quot;Hiragino Kaku Gothic Pro&quot;, Osaka, &quot;メイリオ&quot;, Meiryo, &quot;ＭＳ Ｐゴシック&quot;, &quot;MS PGothic&quot;" font-weight="normal" text-anchor="start" style="mix-blend-mode: normal"><tspan x="0" dy="0">New</tspan></text></g><path d="M139.78672,112.42007v51.53475c0,4.74471 -3.85777,8.60414 -8.60579,8.60414h-62.60278c-4.74305,0 -8.60414,-3.85943 -8.60414,-8.60414v-51.53641c0,-4.74471 3.86109,-8.60414 8.60414,-8.60414h62.60278c4.74802,0 8.6058,3.86109 8.6058,8.6058z" fill-opacity="0.54902" fill="#808080" stroke-width="1"/><text transform="translate(63.48337,168.55357) scale(0.36397,0.36397)" font-size="40" xml:space="preserve" fill="#ffffff" fill-rule="nonzero" stroke="none" stroke-width="1" stroke-linecap="butt" stroke-linejoin="miter" stroke-miterlimit="10" stroke-dasharray="" stroke-dashoffset="0" font-family="Sans Serif" font-weight="normal" text-anchor="start" style="mix-blend-mode: normal"><tspan x="0" dy="0">プレゼント</tspan></text><g stroke-width="1"><path d="M97.37037,134.46614l-5.98049,-5.98048c-1.33826,-1.33826 -1.33826,-3.50802 0,-4.84627v0c1.33815,-1.33815 3.5079,-1.33814 4.84615,0.00012l5.98048,5.98048z" fill="#e83240"/><path d="M97.5442,129.61998l5.98049,-5.98048c1.33826,-1.33826 3.508,-1.33826 4.84625,0v0c1.33815,1.33815 1.33815,3.5079 -0.00011,4.84615l-5.98049,5.98048z" fill="#e83240"/><path d="M113.74521,151.70102c0,1.67305 -1.36031,3.03396 -3.03455,3.03396h-21.66115c-1.67246,0 -3.03397,-1.36089 -3.03397,-3.03396v-20.29209c0,-1.67307 1.36149,-3.03395 3.03397,-3.03395h21.66115c1.67422,0 3.03455,1.36146 3.03455,3.03453z" fill="#f4bb18"/><path d="M116.66633,133.85851c0,1.67305 -1.36031,3.03396 -3.03455,3.03396h-27.5034c-1.67246,0 -3.03397,-1.36089 -3.03397,-3.03396v-3.23906c0,-1.67307 1.36149,-3.03395 3.03397,-3.03395h27.5034c1.67422,0 3.03455,1.36147 3.03455,3.03454z" fill="#d08a11"/><path d="M96.45363,154.75266v-31.88428c0,-1.89258 1.53424,-3.42683 3.42682,-3.42683v0c1.89243,0 3.42667,1.53425 3.42667,3.42683v31.88428z" fill="#e83240"/></g><g stroke-width="1"><path d="M139.78673,117.69275c0,0.94429 -0.76778,1.7124 -1.71274,1.7124h-54.5578c-0.94396,0 -1.71241,-0.7681 -1.71241,-1.7124v-12.16608c0,-0.9443 0.76844,-1.7124 1.71241,-1.7124h54.5578c0.94495,0 1.71274,0.76843 1.71274,1.71273z" fill="#10c079"/><text transform="translate(84.41955,114.67153) scale(0.26538,0.26538)" font-size="40" xml:space="preserve" fill="#f2ffff" fill-rule="nonzero" stroke="none" stroke-width="1" stroke-linecap="butt" stroke-linejoin="miter" stroke-miterlimit="10" stroke-dasharray="" stroke-dashoffset="0" font-family="&quot;ヒラギノ角ゴ Pro W3&quot;, &quot;Hiragino Kaku Gothic Pro&quot;, Osaka, &quot;メイリオ&quot;, Meiryo, &quot;ＭＳ Ｐゴシック&quot;, &quot;MS PGothic&quot;" font-weight="normal" text-anchor="start" style="mix-blend-mode: normal"><tspan x="0" dy="0">期間限定！</tspan></text></g><path d="M77.24508,147.61325c0,0 -1.01462,-4.09513 -1.77717,-5.72451c-0.75698,-1.61748 -2.78153,-4.0163 -2.78153,-4.0163c0,0 2.04498,-2.44246 2.80606,-4.06871c0.75848,-1.62068 1.75264,-5.6721 1.75264,-5.6721c0,0 0.98606,4.03409 1.74289,5.65125c0.76269,1.62968 2.81582,4.08955 2.81582,4.08955c0,0 -2.04304,2.43833 -2.80374,4.06376c-0.75887,1.62151 -1.75496,5.67704 -1.75496,5.67704z" fill-opacity="0.52941" fill="#fffe8d" stroke-width="0"/><path d="M80.1591,153.10682c0,0 -0.81199,-3.27728 -1.42224,-4.58125c-0.6058,-1.29444 -2.22602,-3.21419 -2.22602,-3.21419c0,0 1.63657,-1.95468 2.24565,-3.25614c0.607,-1.29701 1.40261,-4.5393 1.40261,-4.5393c0,0 0.78913,3.22843 1.39481,4.52262c0.61037,1.30421 2.25346,3.27282 2.25346,3.27282c0,0 -1.63502,1.95137 -2.2438,3.25217c-0.60731,1.29767 -1.40448,4.54327 -1.40448,4.54327z" fill-opacity="0.52941" fill="#fffe8d" stroke-width="0"/><path d="M118.0021,140.09533c0,0 -1.01462,-4.09514 -1.77716,-5.72451c-0.75698,-1.61748 -2.78153,-4.0163 -2.78153,-4.0163c0,0 2.04499,-2.44247 2.80607,-4.06871c0.75848,-1.62068 1.75263,-5.6721 1.75263,-5.6721c0,0 0.98606,4.03409 1.74289,5.65125c0.76269,1.62968 2.81582,4.08956 2.81582,4.08956c0,0 -2.04304,2.43833 -2.80374,4.06376c-0.75887,1.62151 -1.75496,5.67705 -1.75496,5.67705z" fill-opacity="0.52941" fill="#fffe8d" stroke-width="0"/></g></g></svg>