<svg version="1.1" xmlns="http://www.w3.org/2000/svg" xmlns:xlink="http://www.w3.org/1999/xlink" width="480" height="597.58933" viewBox="0,0,480,597.58933"><g transform="translate(0,179.98881)"><g data-paper-data="{&quot;isPaintingLayer&quot;:true}" fill-rule="nonzero" stroke-linejoin="miter" stroke-miterlimit="10" stroke-dasharray="" stroke-dashoffset="0" style="mix-blend-mode: normal"><path d="M0,360.01119v-540h480v540z" fill-opacity="0.6" fill="#333333" stroke="none" stroke-width="NaN" stroke-linecap="butt"/><path d="M362.331,396.39631c0,11.69291 -9.50718,21.20421 -21.20826,21.20421h-202.24953c-11.68886,0 -21.20422,-9.51122 -21.20422,-21.20421v-236.39292c0,-11.69296 9.51531,-21.20421 21.20422,-21.20421h202.24953c11.7011,0 21.20826,9.51535 21.20826,21.20828z" fill="#8c858a" stroke="none" stroke-width="1" stroke-linecap="butt"/><g><path d="M320.56428,161.06602c0,-7.29563 5.91427,-13.2099 13.2099,-13.2099c7.29563,0 13.2099,5.91427 13.2099,13.2099c0,7.29563 -5.91427,13.2099 -13.2099,13.2099c-7.29563,0 -13.2099,-5.91428 -13.2099,-13.2099z" fill="#736d72" stroke="none" stroke-width="0" stroke-linecap="butt"/><g fill="none" stroke="#ffffff" stroke-width="3.5" stroke-linecap="round"><path d="M328.28073,155.57257l10.9869,10.98692"/><path d="M339.26763,155.57257l-10.9869,10.98692"/></g></g><text transform="translate(145.53892,171.34953) scale(0.63427,0.63427)" font-size="40" xml:space="preserve" fill="#ffffff" fill-rule="nonzero" stroke="#ffffff" stroke-width="1" stroke-linecap="butt" stroke-linejoin="miter" stroke-miterlimit="10" stroke-dasharray="" stroke-dashoffset="0" font-family="&quot;ヒラギノ角ゴ Pro W3&quot;, &quot;Hiragino Kaku Gothic Pro&quot;, Osaka, &quot;メイリオ&quot;, Meiryo, &quot;ＭＳ Ｐゴシック&quot;, &quot;MS PGothic&quot;" font-weight="normal" text-anchor="start" style="mix-blend-mode: normal"><tspan x="0" dy="0">実行しますか？</tspan></text><g stroke-width="1" stroke-linecap="butt"><path d="M303.08783,334.55426c0,2.38835 -1.94188,4.33107 -4.33189,4.33107h-117.5127c-2.38751,0 -4.33108,-1.94271 -4.33108,-4.33107v-28.49834c0,-2.38835 1.94356,-4.33107 4.33108,-4.33107h117.51271c2.39002,0 4.33189,1.94355 4.33189,4.3319z" fill="#736f72" stroke="none"/><text transform="translate(212.1264,325.87981) scale(0.46456,0.46456)" font-size="40" xml:space="preserve" fill="#ffffff" fill-rule="nonzero" stroke="#ffffff" stroke-width="1" stroke-linecap="butt" stroke-linejoin="miter" stroke-miterlimit="10" stroke-dasharray="" stroke-dashoffset="0" font-family="&quot;ヒラギノ角ゴ Pro W3&quot;, &quot;Hiragino Kaku Gothic Pro&quot;, Osaka, &quot;メイリオ&quot;, Meiryo, &quot;ＭＳ Ｐゴシック&quot;, &quot;MS PGothic&quot;" font-weight="normal" text-anchor="start" style="mix-blend-mode: normal"><tspan x="0" dy="0">いいえ</tspan></text></g><g stroke-width="1" stroke-linecap="butt"><path d="M303.08783,284.99624c0,2.38835 -1.94188,4.33107 -4.33189,4.33107h-117.5127c-2.38751,0 -4.33108,-1.94271 -4.33108,-4.33107v-28.49834c0,-2.38835 1.94356,-4.33107 4.33108,-4.33107h117.51271c2.39002,0 4.33189,1.94355 4.33189,4.3319z" fill="#736f72" stroke="none"/><text transform="translate(221.4176,276.32179) scale(0.46456,0.46456)" font-size="40" xml:space="preserve" fill="#ffffff" fill-rule="nonzero" stroke="#ffffff" stroke-width="1" stroke-linecap="butt" stroke-linejoin="miter" stroke-miterlimit="10" stroke-dasharray="" stroke-dashoffset="0" font-family="&quot;ヒラギノ角ゴ Pro W3&quot;, &quot;Hiragino Kaku Gothic Pro&quot;, Osaka, &quot;メイリオ&quot;, Meiryo, &quot;ＭＳ Ｐゴシック&quot;, &quot;MS PGothic&quot;" font-weight="normal" text-anchor="start" style="mix-blend-mode: normal"><tspan x="0" dy="0">はい</tspan></text></g></g></g></svg>