<svg version="1.1" xmlns="http://www.w3.org/2000/svg" xmlns:xlink="http://www.w3.org/1999/xlink" width="238.16972" height="212.97429" viewBox="0,0,238.16972,212.97429"><defs><linearGradient x1="93.01432" y1="157.73149" x2="93.01432" y2="180.05946" gradientUnits="userSpaceOnUse" id="color-1"><stop offset="0" stop-color="#40b0ff"/><stop offset="1" stop-color="#88cff7"/></linearGradient></defs><g transform="translate(-68.33943,-67.00467)"><g data-paper-data="{&quot;isPaintingLayer&quot;:true}" stroke-miterlimit="10" stroke-dasharray="" stroke-dashoffset="0" style="mix-blend-mode: normal"><text transform="translate(165.10068,107.51634) scale(0.32257,0.32257)" font-size="40" xml:space="preserve" fill="#ffffff" fill-rule="nonzero" stroke="none" stroke-width="1" stroke-linecap="butt" stroke-linejoin="miter" stroke-miterlimit="10" stroke-dasharray="" stroke-dashoffset="0" font-family="Sans Serif" font-weight="normal" text-anchor="start" style="mix-blend-mode: normal"><tspan x="0" dy="0">参加日：</tspan></text><path d="M80.8044,140.84258c0,-6.74335 5.46657,-12.20992 12.20992,-12.20992c6.74335,0 12.20992,5.46657 12.20992,12.20992c0,6.74335 -5.46657,12.20992 -12.20992,12.20992c-6.74335,0 -12.20992,-5.46657 -12.20992,-12.20992z" fill="#ffd540" fill-rule="nonzero" stroke="none" stroke-width="NaN" stroke-linecap="butt" stroke-linejoin="miter"/><text transform="translate(86.65533,146.09072) scale(0.43735,0.43735)" font-size="40" xml:space="preserve" fill="#ffffff" fill-rule="nonzero" stroke="none" stroke-width="1" stroke-linecap="butt" stroke-linejoin="miter" stroke-miterlimit="10" stroke-dasharray="" stroke-dashoffset="0" font-family="Sans Serif" font-weight="normal" text-anchor="start" style="mix-blend-mode: normal"><tspan x="0" dy="0">G</tspan></text><path d="M93.0143,189.13732c0.98419,-2.23792 3.1083,-3.79336 5.57624,-3.79336c3.40236,0 6.16369,2.9475 6.16369,6.57924c0,7.15243 -11.73993,16.62955 -11.73993,16.62955c0,0 -11.7399,-9.24131 -11.7399,-16.62955c0,-3.63173 2.76133,-6.57923 6.1637,-6.57923c2.46795,0 4.59207,1.55544 5.5762,3.79336z" fill="#ff0000" fill-rule="nonzero" stroke="none" stroke-width="0" stroke-linecap="butt" stroke-linejoin="round"/><path d="M80.8044,225.00124c0,-6.74335 5.46657,-12.20992 12.20992,-12.20992c6.74336,0 12.20992,5.46656 12.20992,12.20992c0,6.74335 -5.46657,12.20993 -12.20992,12.20993c-6.74336,0 -12.20992,-5.46657 -12.20992,-12.20993z" fill="#ffffff" fill-rule="nonzero" stroke="#000000" stroke-width="1.5" stroke-linecap="butt" stroke-linejoin="miter"/><path d="M98.75035,225.26496h-5.93381v-8.96665" fill="none" fill-rule="nonzero" stroke="#000000" stroke-width="1.5" stroke-linecap="round" stroke-linejoin="miter"/><text transform="translate(169.0194,126.74997) scale(0.36822,0.36822)" font-size="40" xml:space="preserve" fill="#aaff88" fill-rule="nonzero" stroke="none" stroke-width="1" stroke-linecap="butt" stroke-linejoin="miter" stroke-miterlimit="10" stroke-dasharray="" stroke-dashoffset="0" font-family="Pixel" font-weight="normal" text-anchor="start" style="mix-blend-mode: normal"><tspan x="0" dy="0">Level</tspan></text><g><path d="M296.91053,114.17442c0.08425,-0.05616 0.22466,-0.02808 0.25275,0.08425l0.73016,3.0049c0,0 1.79733,1.31991 2.33091,2.24665c0.89866,1.54457 0.92674,2.80832 0.92674,2.80832c0,0 1.99391,0.58975 2.33091,2.19048c0.337,1.60073 -0.89867,4.63373 -6.1783,5.67281c-5.27963,1.03908 -9.52019,-0.39317 -11.51409,-3.59464c-1.99391,-3.20148 1.1514,-7.02079 0.98291,-6.79612l-0.58975,-5.02688c-0.02808,-0.11233 0.11233,-0.19659 0.22466,-0.14042l3.39806,2.21857c0,0 1.26375,-0.47741 2.58366,-0.53358c0.78633,-0.05616 1.46033,0 2.10624,0.11233z" fill="#ffab19" fill-rule="evenodd" stroke="#ffab19" stroke-width="0.55" stroke-linecap="butt" stroke-linejoin="miter"/><path d="M301.06684,122.43087c0,0 1.93774,0.50549 2.27474,2.10623c0.337,1.60073 -1.011,4.49331 -6.23446,5.5043c-6.79613,1.40416 -10.0257,-2.63982 -8.14412,-5.61664c1.88157,-3.0049 5.11114,-0.44933 7.47012,-0.61782c2.02198,-0.14042 2.24665,-1.90965 4.63372,-1.37607z" fill="#ffffff" fill-rule="evenodd" stroke="none" stroke-width="0.55" stroke-linecap="butt" stroke-linejoin="miter"/><path d="M306.23415,122.73979c-1.3199,1.06716 -3.34189,1.09524 -3.34189,1.09524" fill="none" fill-rule="evenodd" stroke="#ffab19" stroke-width="0.55" stroke-linecap="round" stroke-linejoin="round"/><path d="M305.86905,125.8851c-1.76924,0.14042 -2.86448,-0.39317 -2.86448,-0.39317" fill="none" fill-rule="evenodd" stroke="#ffab19" stroke-width="0.55" stroke-linecap="round" stroke-linejoin="round"/><path d="M283.68336,122.65553c0,0 2.41515,0.78633 3.39806,1.65691" fill="none" fill-rule="evenodd" stroke="#ffab19" stroke-width="0.55" stroke-linecap="round" stroke-linejoin="round"/><path d="M287.16568,125.29535c-1.20758,0.47741 -3.28572,0.1685 -3.28572,0.1685" fill="none" fill-rule="evenodd" stroke="#ffab19" stroke-width="0.55" stroke-linecap="round" stroke-linejoin="round"/><g fill="none" fill-rule="nonzero" stroke="none" stroke-width="1" stroke-linecap="butt" stroke-linejoin="miter" font-family="sans-serif" font-weight="normal" font-size="12" text-anchor="start"/><g fill="none" fill-rule="nonzero" stroke="none" stroke-width="1" stroke-linecap="butt" stroke-linejoin="miter" font-family="sans-serif" font-weight="normal" font-size="12" text-anchor="start"/></g><path d="M181.14954,278.47895h-104.07518c-3.98967,0 -7.23493,-3.24387 -7.23493,-7.23633v-6.31476c0,-3.98827 3.24526,-7.23492 7.23494,-7.23492h104.07658c3.98967,0 7.23493,3.24666 7.23493,7.23492v6.31477c0,3.99246 -3.24666,7.23633 -7.23634,7.23633z" fill="#60bf69" fill-rule="nonzero" stroke="#60bf69" stroke-width="3" stroke-linecap="butt" stroke-linejoin="miter"/><text transform="translate(74.51265,272.18095) scale(0.34125,0.34125)" font-size="40" xml:space="preserve" fill="#e6efff" fill-rule="nonzero" stroke="none" stroke-width="1" stroke-linecap="butt" stroke-linejoin="miter" stroke-miterlimit="10" stroke-dasharray="" stroke-dashoffset="0" font-family="Sans Serif" font-weight="normal" text-anchor="start" style="mix-blend-mode: normal"><tspan x="0" dy="0">ステータスを更新</tspan></text><path d="M224.23464,278.47895h-17.90496c-3.98967,0 -7.23493,-3.24387 -7.23493,-7.23633v-6.31476c0,-3.98827 3.24526,-7.23492 7.23494,-7.23492h17.90636c3.98967,0 7.23493,3.24666 7.23493,7.23492v6.31477c0,3.99246 -3.24666,7.23633 -7.23634,7.23633z" fill="#60bf69" fill-rule="nonzero" stroke="#60bf69" stroke-width="3" stroke-linecap="butt" stroke-linejoin="miter"/><text transform="translate(204.19906,272.18095) scale(0.34125,0.34125)" font-size="40" xml:space="preserve" fill="#e6efff" fill-rule="nonzero" stroke="none" stroke-width="1" stroke-linecap="butt" stroke-linejoin="miter" stroke-miterlimit="10" stroke-dasharray="" stroke-dashoffset="0" font-family="Sans Serif" font-weight="normal" text-anchor="start" style="mix-blend-mode: normal"><tspan x="0" dy="0">UP!</tspan></text><path d="M79.71067,165.83455l4.46901,-7.45463l8.86828,-0.64843l8.8335,0.6471l4.4365,7.45596l-13.30364,14.22491z" fill="url(#color-1)" fill-rule="nonzero" stroke="none" stroke-width="0" stroke-linecap="butt" stroke-linejoin="miter"/><text transform="translate(87.06555,172.4762) scale(0.40578,0.40578)" font-size="40" xml:space="preserve" fill="#ffffff" fill-rule="nonzero" stroke="none" stroke-width="1" stroke-linecap="butt" stroke-linejoin="miter" stroke-miterlimit="10" stroke-dasharray="" stroke-dashoffset="0" font-family="Sans Serif" font-weight="normal" text-anchor="start" style="mix-blend-mode: normal"><tspan x="0" dy="0">D</tspan></text><path d="M104.36361,95.03846h-12.13601c-3.98967,0 -7.23493,-3.24387 -7.23493,-7.23633v-12.06254c0,-3.98827 3.24526,-7.23492 7.23494,-7.23492h12.13741c3.98967,0 7.23493,3.24666 7.23493,7.23492v12.06255c0,3.99246 -3.24666,7.23633 -7.23634,7.23633z" fill="#737880" fill-rule="nonzero" stroke="#737880" stroke-width="3" stroke-linecap="butt" stroke-linejoin="miter"/><path d="M106.22727,85.37582c-0.39392,1.10542 -1.03337,2.14294 -1.91834,3.02791c-3.18979,3.18979 -8.36146,3.18979 -11.55124,0c-3.18979,-3.18979 -3.18979,-8.36146 0,-11.55125c3.18979,-3.18979 8.36146,-3.18979 11.55125,0" fill="none" fill-rule="nonzero" stroke="#ffffff" stroke-width="2.5" stroke-linecap="butt" stroke-linejoin="miter"/><path d="M104.48792,72.74707l0.209,4.89847l-4.92815,-0.21027" fill="none" fill-rule="nonzero" stroke="#ffffff" stroke-width="2.5" stroke-linecap="round" stroke-linejoin="miter"/><path d="M139.77346,95.03846h-12.13601c-3.98967,0 -7.23493,-3.24387 -7.23493,-7.23633v-12.06254c0,-3.98827 3.24526,-7.23492 7.23494,-7.23492h12.13741c3.98967,0 7.23493,3.24666 7.23493,7.23492v12.06255c0,3.99246 -3.24666,7.23633 -7.23634,7.23633z" fill="#737880" fill-rule="nonzero" stroke="#737880" stroke-width="3" stroke-linecap="butt" stroke-linejoin="miter"/><path d="M141.42261,88.66355h-15.43332c-1.28435,0 -2.32905,-1.04426 -2.32905,-2.32951v-9.12541c0,-1.2839 1.0447,-2.32905 2.32905,-2.32905h15.43378c1.28435,0 2.32905,1.04516 2.32905,2.32905v9.12541c0,1.28525 -1.04516,2.3295 -2.32951,2.3295z" fill="none" fill-rule="nonzero" stroke="#ffffff" stroke-width="2.5" stroke-linecap="butt" stroke-linejoin="miter"/><path d="M142.56523,78.51614l-8.80402,4.2147l-8.91408,-4.2147" fill="none" fill-rule="nonzero" stroke="#ffffff" stroke-width="2.5" stroke-linecap="round" stroke-linejoin="miter"/><path d="M272.41392,278.47895h-22.99914c-3.98967,0 -7.23493,-3.24387 -7.23493,-7.23633v-6.31476c0,-3.98827 3.24526,-7.23492 7.23494,-7.23492h23.00054c3.98967,0 7.23493,3.24666 7.23493,7.23492v6.31477c0,3.99246 -3.24666,7.23633 -7.23634,7.23633z" fill="#60bf69" fill-rule="nonzero" stroke="#60bf69" stroke-width="3" stroke-linecap="butt" stroke-linejoin="miter"/><text transform="translate(247.26505,272.18095) scale(0.34125,0.34125)" font-size="40" xml:space="preserve" fill="#e6efff" fill-rule="nonzero" stroke="none" stroke-width="1" stroke-linecap="butt" stroke-linejoin="miter" stroke-miterlimit="10" stroke-dasharray="" stroke-dashoffset="0" font-family="Sans Serif" font-weight="normal" text-anchor="start" style="mix-blend-mode: normal"><tspan x="0" dy="0">編集</tspan></text></g></g></svg>