<svg version="1.1" xmlns="http://www.w3.org/2000/svg" xmlns:xlink="http://www.w3.org/1999/xlink" width="46.20323" height="15.80432" viewBox="0,0,46.20323,15.80432"><g transform="translate(-195.70815,-175.20024)"><g data-paper-data="{&quot;isPaintingLayer&quot;:true}" fill-rule="nonzero" stroke-miterlimit="10" stroke-dasharray="" stroke-dashoffset="0" style="mix-blend-mode: normal"><g stroke-width="0.6"><g><path d="M202.41126,185.45546c-0.45486,-0.83697 -2.16744,0.02683 -3.82409,0.86255c-0.9058,0.45678 -2.43565,1.27135 -2.57901,1.00661c-0.27755,-0.51214 2.60975,-2.95878 3.77347,-3.95065l1.15165,-1.01105c0,0 0.88673,-0.7228 1.47161,-1.27594c0.01014,-0.00975 -0.07106,-0.53272 -0.37129,-0.89399c-0.2457,-0.29451 -0.5206,-0.25556 -1.09878,-0.3493c-0.53119,-0.08606 -1.49246,-0.17952 -1.49732,-0.46457c-0.00654,-0.42939 1.76332,-0.71168 2.41895,-0.82165l0.3507,-0.06077c0.7798,-0.1442 3.12438,-0.89649 3.2238,-0.92874c0.02419,-0.01029 0.05562,-0.02726 0.05562,-0.02726l0.01266,-0.00625l0.01057,-0.00862c1.44073,-1.16167 3.18764,-2.02559 4.8243,-2.02559c3.46576,0 5.90544,3.03803 5.90544,7.1045c0,0.75422 -0.10568,1.49189 -0.31343,2.19258l-0.01084,0.03769c0,0 -0.09248,1.09989 1.75708,2.50698c0.37126,0.28226 0.71738,0.25711 0.61085,0.65493c-0.03546,0.13265 -0.13295,0.23014 -0.30996,0.30966c-0.42216,0.19024 -1.42237,0.0498 -2.06146,-0.1827l-0.1004,-0.03658l-0.06646,0.08399c-0.01641,0.02058 -1.67934,2.30273 -4.0623,2.53327c-2.07716,0.20094 -3.2598,-0.84835 -3.90975,-1.28374l-0.41661,-0.25016c-0.76827,-0.31578 -1.83675,0.27854 -2.77953,0.80304c-0.56288,0.31314 -1.38426,0.81861 -1.57728,0.70444c-0.21385,-0.12668 0.01377,-0.57944 0.23182,-1.03664c0.17715,-0.37072 0.42745,-0.7274 0.26238,-0.97503c-0.17146,-0.25753 -0.60209,-0.08857 -1.19822,0.14544c-0.55982,0.22012 -1.44419,0.63687 -1.80921,0.47682c-0.1004,-0.04408 -0.17091,-0.1214 -0.21553,-0.23638c-0.16464,-0.42524 0.55163,-1.03316 1.11186,-1.52528c0.68401,-0.60029 1.45909,-1.28109 1.02872,-2.07161v0z" fill="#ffc93e" stroke="#603813" stroke-linecap="round" stroke-linejoin="round"/><g fill="#ffffff" stroke="none" stroke-linecap="butt" stroke-linejoin="miter"><path d="M210.58784,184.75366v0c-0.62545,0 -1.13272,-0.50698 -1.133,-1.1326c0,-0.62533 0.50755,-1.1323 1.133,-1.1323c0.62505,0 1.1319,0.50685 1.1319,1.1323c0,0.62547 -0.50686,1.1326 -1.1319,1.1326z"/></g><g fill="#ffffff" stroke="none" stroke-linecap="butt" stroke-linejoin="miter"><path d="M210.58784,179.29834v0c-0.62545,0 -1.13272,-0.50698 -1.133,-1.13272c0,-0.62533 0.50755,-1.13232 1.133,-1.13232c0.62505,0 1.1319,0.50727 1.1319,1.13232c0,0.62574 -0.50686,1.13272 -1.1319,1.13272z"/></g><path d="M214.15192,179.84063c0,0 0.00081,1.03082 -0.61782,1.75264" fill="none" stroke="#603813" stroke-linecap="round" stroke-linejoin="round"/></g><path d="M210.67632,177.79094c0,0 0.1024,0.25329 0.1024,0.37545c0,0.11648 -0.1024,0.34132 -0.1024,0.34132" fill="none" stroke="#603813" stroke-linecap="round" stroke-linejoin="miter"/><path d="M210.72752,183.32028c0,0 0.1024,0.25328 0.1024,0.37545c0,0.11648 -0.1024,0.34132 -0.1024,0.34132" fill="none" stroke="#603813" stroke-linecap="round" stroke-linejoin="miter"/></g><path d="M235.80894,177.8299c10.51582,-0.48814 4.25,12.89994 4.25,12.89994h-26.81953c0,0 -1.47395,-12.53861 3.71429,-12.5891c6.52362,-0.06349 13.80105,-0.07622 18.85524,-0.31084z" data-paper-data="{&quot;index&quot;:null}" fill="#b30000" stroke="none" stroke-width="0" stroke-linecap="butt" stroke-linejoin="miter"/></g></g></svg>