<svg version="1.1" xmlns="http://www.w3.org/2000/svg" xmlns:xlink="http://www.w3.org/1999/xlink" width="34.7308" height="34.63489" viewBox="0,0,34.7308,34.63489"><g transform="translate(-20.95262,-325.25401)"><g data-paper-data="{&quot;isPaintingLayer&quot;:true}" fill-rule="nonzero" stroke="none" stroke-width="1" stroke-linecap="butt" stroke-linejoin="miter" stroke-miterlimit="10" stroke-dasharray="" stroke-dashoffset="0" style="mix-blend-mode: normal"><path d="M46.23774,359.88889h-15.84128c-5.20777,0 -9.44384,-4.23426 -9.44384,-9.44567v-15.74538c0,-5.20594 4.23608,-9.44383 9.44385,-9.44383h15.84311c5.20777,0 9.44384,4.23791 9.44384,9.44383v15.74539c0,5.21141 -4.23791,9.44567 -9.44568,9.44567z" fill="#656880"/><g fill="#dadbe6"><path d="M49.25381,337.77688h-21.87185c-0.85178,0 -1.54464,-0.69256 -1.54464,-1.54494v-2.57533c0,-0.85149 0.69286,-1.54464 1.54464,-1.54464h21.87215c0.85178,0 1.54464,0.69315 1.54464,1.54464v2.57533c0,0.85238 -0.69315,1.54494 -1.54494,1.54494z"/><path d="M49.25381,345.51501h-21.87185c-0.85179,0 -1.54464,-0.69255 -1.54464,-1.54494v-2.57533c0,-0.85149 0.69286,-1.54464 1.54464,-1.54464h21.87215c0.85179,0 1.54464,0.69315 1.54464,1.54464v2.57533c0,0.85239 -0.69315,1.54494 -1.54494,1.54494z"/><path d="M49.25381,353.25314h-21.87185c-0.85179,0 -1.54464,-0.69255 -1.54464,-1.54494v-2.57533c0,-0.85149 0.69286,-1.54464 1.54464,-1.54464h21.87215c0.85179,0 1.54464,0.69315 1.54464,1.54464v2.57533c0,0.85239 -0.69315,1.54494 -1.54494,1.54494z"/></g></g></g></svg>