<svg version="1.1" xmlns="http://www.w3.org/2000/svg" xmlns:xlink="http://www.w3.org/1999/xlink" width="78.53985" height="77.33375" viewBox="0,0,78.53985,77.33375"><defs><linearGradient x1="206.97516" y1="171.77908" x2="273.02502" y2="171.77908" gradientUnits="userSpaceOnUse" id="color-1"><stop offset="0" stop-color="#643737"/><stop offset="1" stop-color="#5867a1"/></linearGradient><linearGradient x1="207.07581" y1="171.77908" x2="240.2278" y2="171.77908" gradientUnits="userSpaceOnUse" id="color-2"><stop offset="0" stop-color="#535c43" stop-opacity="0"/><stop offset="1" stop-color="#535c43"/></linearGradient><linearGradient x1="273.02502" y1="171.77908" x2="239.87306" y2="171.77908" gradientUnits="userSpaceOnUse" id="color-3"><stop offset="0" stop-color="#535c43" stop-opacity="0"/><stop offset="1" stop-color="#535c43"/></linearGradient></defs><g transform="translate(-200.73016,-140.75795)"><g data-paper-data="{&quot;isPaintingLayer&quot;:true}" fill-rule="nonzero" stroke-linecap="butt" stroke-linejoin="miter" stroke-miterlimit="10" stroke-dasharray="" stroke-dashoffset="0" style="mix-blend-mode: normal"><path d="M200.73017,215.67758v-71.35563c0,-1.33052 1.08266,-2.41365 2.41365,-2.41365h73.71255c1.331,0 2.41364,1.08311 2.41364,2.41365v71.35563c0,1.33192 -1.08265,2.41412 -2.41364,2.41412h-73.71209c-1.331,0 -2.41412,-1.0822 -2.41412,-2.41412z" fill-opacity="0.6" fill="#404040" stroke="none" stroke-width="1"/><text transform="translate(204.80298,202.63554) scale(0.20241,0.20241)" font-size="40" xml:space="preserve" fill="#ffffff" fill-rule="nonzero" stroke="none" stroke-width="1" stroke-linecap="butt" stroke-linejoin="miter" stroke-miterlimit="10" stroke-dasharray="" stroke-dashoffset="0" font-family="Sans Serif" font-weight="normal" text-anchor="start" style="mix-blend-mode: normal"><tspan x="0" dy="0">ダークレインボー</tspan></text><path d="M204.80303,189.84976v-41.75298c0,-1.33052 1.08266,-2.41365 2.41365,-2.41365h65.56685c1.331,0 2.41364,1.08311 2.41364,2.41365v41.75298c0,1.33192 -1.08265,2.41412 -2.41364,2.41412h-65.56639c-1.331,0 -2.41412,-1.0822 -2.41412,-2.41412z" fill="#b6b6c1" stroke="#bf80ff" stroke-width="0"/><text transform="translate(204.80298,208.9586) scale(0.11571,0.11571)" font-size="40" xml:space="preserve" fill="#b3b3b3" fill-rule="nonzero" stroke="none" stroke-width="1" stroke-linecap="butt" stroke-linejoin="miter" stroke-miterlimit="10" stroke-dasharray="" stroke-dashoffset="0" font-family="Sans Serif" font-weight="normal" text-anchor="start" style="mix-blend-mode: normal"><tspan x="0" dy="0">カラー🎨</tspan><tspan x="0" dy="48px">追加日:2023-2-09</tspan></text><path d="M206.97516,192.24716v-38.52251c0,-1.33052 1.08266,-2.41365 2.41365,-2.41365h61.22259c1.331,0 2.41364,1.08311 2.41364,2.41365v38.52251z" fill="url(#color-1)" stroke="none" stroke-width="0"/><path d="M207.07581,192.24716v-38.52251c0,-1.33052 1.08266,-2.41365 2.41365,-2.41365h30.73832l-0.02156,40.93616z" fill="url(#color-2)" stroke="none" stroke-width="0"/><path d="M239.89459,192.24716l-0.02156,-40.93616h30.73832c1.33099,0 2.41365,1.08313 2.41365,2.41365v38.52251z" data-paper-data="{&quot;index&quot;:null}" fill="url(#color-3)" stroke="none" stroke-width="0"/><path d="M204.80303,189.84976v-41.75298c0,-1.33052 1.08266,-2.41365 2.41365,-2.41365h65.56685c1.331,0 2.41364,1.08311 2.41364,2.41365v41.75298c0,1.33192 -1.08265,2.41412 -2.41364,2.41412h-65.56639c-1.331,0 -2.41412,-1.0822 -2.41412,-2.41412z" fill="none" stroke="#d0ad2c" stroke-width="2"/><g stroke="none" stroke-width="1"><path d="M261.69444,148.39187v-4.06992c0,-1.33052 1.08266,-2.41365 2.41365,-2.41365h12.74827c1.331,0 2.41364,1.08311 2.41364,2.41365v4.06992c0,1.33192 -1.08265,2.41412 -2.41364,2.41412h-12.74781c-1.331,0 -2.41412,-1.0822 -2.41412,-2.41412z" fill-opacity="0.4" fill="#ff0000"/><text transform="translate(263.04862,148.36569) scale(0.17409,0.17409)" font-size="40" xml:space="preserve" fill="#ffffff" fill-rule="nonzero" stroke="none" stroke-width="1" stroke-linecap="butt" stroke-linejoin="miter" stroke-miterlimit="10" stroke-dasharray="" stroke-dashoffset="0" font-family="Sans Serif" font-weight="normal" text-anchor="start" style="mix-blend-mode: normal"><tspan x="0" dy="0">New</tspan></text></g></g></g></svg>