<svg version="1.1" xmlns="http://www.w3.org/2000/svg" xmlns:xlink="http://www.w3.org/1999/xlink" width="99.20614" height="119.40827" viewBox="0,0,99.20614,119.40827"><defs><linearGradient x1="240.00001" y1="125.83217" x2="240.00001" y2="186.32393" gradientUnits="userSpaceOnUse" id="color-1"><stop offset="0" stop-color="#dbdac8"/><stop offset="1" stop-color="#99958d"/></linearGradient></defs><g transform="translate(-190.39693,-120.29588)"><g data-paper-data="{&quot;isPaintingLayer&quot;:true}" fill-rule="nonzero" stroke-linejoin="miter" stroke-miterlimit="10" stroke-dasharray="" stroke-dashoffset="0" style="mix-blend-mode: normal"><path d="M289.60307,129.31305v101.37565c0,4.97152 -4.04218,9.01545 -9.01718,9.01545h-81.17351c-4.96979,0 -9.01545,-4.04392 -9.01545,-9.01544v-101.37738c0,-4.97152 4.04566,-9.01545 9.01545,-9.01545h81.17351c4.975,0 9.01718,4.04566 9.01718,9.01719z" fill-opacity="0.74902" fill="#d2d3d4" stroke="none" stroke-width="1" stroke-linecap="butt"/><path d="M287.06513,163.32664v65.07452c0,4.97152 -4.04219,9.01545 -9.01719,9.01545l-76.09761,0.25093c-4.96979,0 -9.01545,-4.04392 -9.01545,-9.01545v-65.07627z" fill-opacity="0.96471" fill="#fafafa" stroke="none" stroke-width="1" stroke-linecap="butt"/><text transform="translate(197.4876,200.16945) scale(0.28036,0.28036)" font-size="40" xml:space="preserve" fill="#31994b" fill-rule="nonzero" stroke="#31994b" stroke-width="1" stroke-linecap="butt" stroke-linejoin="miter" stroke-miterlimit="10" stroke-dasharray="" stroke-dashoffset="0" font-family="&quot;ヒラギノ角ゴ Pro W3&quot;, &quot;Hiragino Kaku Gothic Pro&quot;, Osaka, &quot;メイリオ&quot;, Meiryo, &quot;ＭＳ Ｐゴシック&quot;, &quot;MS PGothic&quot;" font-weight="normal" text-anchor="start" style="mix-blend-mode: normal"><tspan x="0" dy="0">大きな配電室</tspan></text><g stroke="none" stroke-linecap="butt"><g fill="#45b5e6" stroke-width="0"><path d="M208.75315,213.93832l-6.05509,-6.05509l0.90827,-0.90827l6.05509,6.05509z"/><path d="M207.66481,204.70311c0.3036,0.3036 0.30354,0.79598 0,1.09952l-6.13918,6.13917c-0.3036,0.3036 -0.79592,0.30347 -1.09945,-0.00006l-2.54359,-2.54359c-0.3036,-0.3036 -0.3036,-0.79579 0,-1.0994l6.13911,-6.13911c0.30374,-0.30374 0.79586,-0.30366 1.09946,-0.00006l2.54358,2.54358z"/></g><text transform="translate(209.44316,210.32878) scale(0.19587,0.20747)" font-size="40" xml:space="preserve" fill="#05571a" fill-rule="nonzero" stroke="none" stroke-width="1" stroke-linecap="butt" stroke-linejoin="miter" stroke-miterlimit="10" stroke-dasharray="" stroke-dashoffset="0" font-family="Sans Serif" font-weight="normal" text-anchor="start" style="mix-blend-mode: normal"><tspan x="0" dy="0">450,000G</tspan></text></g><g stroke="none" stroke-linecap="butt"><g fill="#45b5e6" stroke-width="0"><path d="M241.85852,206.60629l5.64578,-1.34827l3.23916,3.23917l-1.34825,5.64577l-3.23077,-3.23077l-0.02081,-1.06159h-1.04078z"/><path d="M254.06963,202.84012l-4.99544,4.99545l-0.90828,-0.90827l4.99544,-4.99545z"/></g><text transform="translate(252.97427,210.4311) scale(0.19589,0.20748)" font-size="40" xml:space="preserve" fill="#585858" fill-rule="nonzero" stroke="none" stroke-width="1" stroke-linecap="butt" stroke-linejoin="miter" stroke-miterlimit="10" stroke-dasharray="" stroke-dashoffset="0" font-family="Sans Serif" font-weight="normal" text-anchor="start" style="mix-blend-mode: normal"><tspan x="0" dy="0">2,200G</tspan></text></g><path d="M194.89041,186.32393v-60.49176h90.21921v60.49176z" fill="#ffffff" stroke="#666666" stroke-width="2" stroke-linecap="butt"/><path d="M286.08836,126.38077v59.3949c0,0.9386 -0.76314,1.70207 -1.7024,1.70207h-88.77223c-0.93827,0 -1.70207,-0.76347 -1.70207,-1.70207v-59.39522c0,-0.9386 0.7638,-1.70208 1.70207,-1.70208h88.77223c0.93926,0 1.7024,0.7638 1.7024,1.7024z" fill="none" stroke="#666666" stroke-width="2" stroke-linecap="butt"/><g stroke="none" stroke-linecap="butt"><text transform="translate(252.9769,234.29901) scale(0.19588,0.20747)" font-size="40" xml:space="preserve" fill="#585858" fill-rule="nonzero" stroke="none" stroke-width="1" stroke-linecap="butt" stroke-linejoin="miter" stroke-miterlimit="10" stroke-dasharray="" stroke-dashoffset="0" font-family="Sans Serif" font-weight="normal" text-anchor="start" style="mix-blend-mode: normal"><tspan x="0" dy="0">+180</tspan></text><path d="M244.4761,236.41881l1.7486,-4.14478l-2.20732,-0.69125l5.87862,-5.12252l-1.71443,4.10799l2.18486,0.71764z" fill="#e6c245" stroke-width="0"/></g><g><path d="M194.89041,186.32393v-60.49176h90.21921v60.49176z" fill="url(#color-1)" stroke="#666666" stroke-width="2" stroke-linecap="butt"/><path d="M263.36894,151.50048h-10.10959" fill="none" stroke="#57541f" stroke-width="2" stroke-linecap="round"/><path d="M257.08012,177.1759l6.44216,-13.00411" fill="none" stroke="#57541f" stroke-width="2" stroke-linecap="round"/><path d="M256.95458,148.57219l6.06575,16.31479" fill="none" stroke="#7a762c" stroke-width="2" stroke-linecap="round"/><path d="M256.95456,171.02244l6.66114,2.06622" fill="none" stroke="#7a762c" stroke-width="2" stroke-linecap="round"/><path d="M263.29921,156.59014l-7.18129,3.2769" fill="none" stroke="#a5a03b" stroke-width="2" stroke-linecap="round"/><path d="M254.44461,161.81923l7.73906,15.82674" fill="none" stroke="#a5a03b" stroke-width="2" stroke-linecap="round"/><g stroke-linecap="butt"><path d="M195.90985,181.75415v-38.51385h30.52236v38.51385z" fill="#c5b7ac" stroke="#666666" stroke-width="2"/><path d="M198.08536,178.49747v-32.00048h7.45888v32.00048z" fill="#89807a" stroke="none" stroke-width="0"/><path d="M207.44551,178.49747v-32.00048h7.45888v32.00048z" data-paper-data="{&quot;index&quot;:null}" fill="#89807a" stroke="none" stroke-width="0"/><path d="M216.80568,178.49746v-32.00048h7.45888v32.00048z" data-paper-data="{&quot;index&quot;:null}" fill="#89807a" stroke="none" stroke-width="0"/></g><g stroke-linecap="butt"><path d="M226.43221,181.75415v-38.51385h30.52236v38.51385z" fill="#c5b7ac" stroke="#666666" stroke-width="2"/><path d="M228.60771,178.49748v-32.00048h7.45888v32.00048z" fill="#89807a" stroke="none" stroke-width="0"/><path d="M237.96787,178.49748v-32.00048h7.45888v32.00048z" data-paper-data="{&quot;index&quot;:null}" fill="#89807a" stroke="none" stroke-width="0"/><path d="M247.32804,178.49746v-32.00047h7.45888v32.00047z" data-paper-data="{&quot;index&quot;:null}" fill="#89807a" stroke="none" stroke-width="0"/></g><path d="M262.40606,181.07241v-40.49383h19.4574v40.49383z" fill="#373737" stroke="#666666" stroke-width="2" stroke-linecap="butt"/><path d="M195.90985,185.40645v-3.6523h88.18031v3.6523z" fill="#c0c0c0" stroke="none" stroke-width="0" stroke-linecap="butt"/><path d="M194.89041,141.89168v-16.05951h19.4574v16.05951z" fill="#c8baa2" stroke="#666666" stroke-width="2" stroke-linecap="butt"/><path d="M201.19818,139.9915l2.20258,-5.10229l-2.7804,-0.85094l7.40487,-6.30591l-2.15954,5.057l2.75211,0.88343z" fill="#fffa9f" stroke="none" stroke-width="0" stroke-linecap="butt"/><path d="M277.80125,126.95859v12.61955" fill="none" stroke="#666666" stroke-width="3.5" stroke-linecap="round"/><path d="M272.57215,139.57814v-12.61955" fill="none" stroke="#666666" stroke-width="3.5" stroke-linecap="round"/><path d="M267.34305,139.57814v-12.61955" fill="none" stroke="#666666" stroke-width="3.5" stroke-linecap="round"/></g></g></g></svg>