<svg version="1.1" xmlns="http://www.w3.org/2000/svg" xmlns:xlink="http://www.w3.org/1999/xlink" width="99.20614" height="119.40827" viewBox="0,0,99.20614,119.40827"><defs><linearGradient x1="222.0082" y1="126.38935" x2="222.0082" y2="140.40974" gradientTransform="translate(-644.68914,-450.6395) scale(3.29164,3.29164)" gradientUnits="userSpaceOnUse" id="color-1"><stop offset="0" stop-color="#e3d41d"/><stop offset="1" stop-color="#e3921e"/></linearGradient></defs><g transform="translate(-190.39693,-120.29588)"><g data-paper-data="{&quot;isPaintingLayer&quot;:true}" stroke-miterlimit="10" stroke-dasharray="" stroke-dashoffset="0" style="mix-blend-mode: normal"><path d="M289.60307,129.31305v101.37565c0,4.97152 -4.04218,9.01545 -9.01718,9.01545h-81.17351c-4.96979,0 -9.01545,-4.04392 -9.01545,-9.01544v-101.37738c0,-4.97152 4.04566,-9.01545 9.01545,-9.01545h81.17351c4.975,0 9.01718,4.04566 9.01718,9.01719z" fill-opacity="0.74902" fill="#d2d3d4" fill-rule="nonzero" stroke="none" stroke-width="1" stroke-linecap="butt" stroke-linejoin="miter"/><path d="M287.06513,163.26163v65.07452c0,4.97152 -4.04219,9.01545 -9.01719,9.01545l-76.09761,0.25093c-4.96979,0 -9.01545,-4.04392 -9.01545,-9.01545v-65.07627z" fill-opacity="0.85882" fill="#ffffff" fill-rule="nonzero" stroke="none" stroke-width="1" stroke-linecap="butt" stroke-linejoin="miter"/><text transform="translate(197.4876,200.16945) scale(0.28036,0.28036)" font-size="40" xml:space="preserve" fill="#000000" fill-rule="nonzero" stroke="#000000" stroke-width="1" stroke-linecap="butt" stroke-linejoin="miter" stroke-miterlimit="10" stroke-dasharray="" stroke-dashoffset="0" font-family="&quot;ヒラギノ角ゴ Pro W3&quot;, &quot;Hiragino Kaku Gothic Pro&quot;, Osaka, &quot;メイリオ&quot;, Meiryo, &quot;ＭＳ Ｐゴシック&quot;, &quot;MS PGothic&quot;" font-weight="normal" text-anchor="start" style="mix-blend-mode: normal"><tspan x="0" dy="0">家具屋</tspan></text><g fill-rule="nonzero" stroke="none" stroke-linecap="butt" stroke-linejoin="miter"><g fill="#45b5e6" stroke-width="0"><path d="M208.75315,213.93832l-6.05509,-6.05509l0.90827,-0.90827l6.05509,6.05509z"/><path d="M207.66481,204.70311c0.3036,0.3036 0.30354,0.79598 0,1.09952l-6.13918,6.13917c-0.3036,0.3036 -0.79592,0.30347 -1.09945,-0.00006l-2.54359,-2.54359c-0.3036,-0.3036 -0.3036,-0.79579 0,-1.0994l6.13911,-6.13911c0.30374,-0.30374 0.79586,-0.30366 1.09946,-0.00006l2.54358,2.54358z"/></g><text transform="translate(209.44316,210.32878) scale(0.19587,0.20747)" font-size="40" xml:space="preserve" fill="#585858" fill-rule="nonzero" stroke="none" stroke-width="1" stroke-linecap="butt" stroke-linejoin="miter" stroke-miterlimit="10" stroke-dasharray="" stroke-dashoffset="0" font-family="Sans Serif" font-weight="normal" text-anchor="start" style="mix-blend-mode: normal"><tspan x="0" dy="0">90,000G</tspan></text></g><g stroke-width="1"><g data-paper-data="{&quot;index&quot;:null}"><path d="M204.68463,214.69793c0.0443,-0.02953 0.11815,-0.01477 0.13292,0.04431l0.38401,1.58035c0,0 0.94524,0.69416 1.22588,1.18158c0.47263,0.81232 0.48739,1.47697 0.48739,1.47697c0,0 1.04864,0.31017 1.22589,1.15203c0.17723,0.84187 -0.47263,2.43699 -3.24931,2.98347c-2.7767,0.54647 -5.00691,-0.20678 -6.05557,-1.89052c-1.04864,-1.68374 0.60554,-3.69241 0.51693,-3.57425l-0.31017,-2.64377c-0.01477,-0.05909 0.05908,-0.10339 0.11814,-0.07385l1.78713,1.16681c0,0 0.66464,-0.25109 1.35881,-0.28063c0.41356,-0.02953 0.76802,0 1.10772,0.05909z" fill="#45b5e6" fill-rule="evenodd" stroke="#45b5e6" stroke-linecap="butt" stroke-linejoin="miter"/><path d="M209.58817,219.20268c-0.69417,0.56124 -1.7576,0.57601 -1.7576,0.57601" fill="#45b5e6" fill-rule="evenodd" stroke="#45b5e6" stroke-linecap="round" stroke-linejoin="round"/><path d="M209.39615,220.85687c-0.93048,0.07385 -1.50651,-0.20676 -1.50651,-0.20676" fill="#45b5e6" fill-rule="evenodd" stroke="#45b5e6" stroke-linecap="round" stroke-linejoin="round"/><path d="M197.72814,219.15836c0,0 1.27017,0.41356 1.78711,0.87141" fill="#45b5e6" fill-rule="evenodd" stroke="#45b5e6" stroke-linecap="round" stroke-linejoin="round"/><path d="M199.55957,220.54671c-0.6351,0.25108 -1.72804,0.08862 -1.72804,0.08862" fill="#45b5e6" fill-rule="evenodd" stroke="#45b5e6" stroke-linecap="round" stroke-linejoin="round"/><g fill="none" fill-rule="nonzero" stroke="none" stroke-linecap="butt" stroke-linejoin="miter" font-family="sans-serif" font-weight="normal" font-size="12" text-anchor="start"/><g fill="none" fill-rule="nonzero" stroke="none" stroke-linecap="butt" stroke-linejoin="miter" font-family="sans-serif" font-weight="normal" font-size="12" text-anchor="start"/></g><text transform="translate(209.44316,222.38156) scale(0.19588,0.20747)" font-size="40" xml:space="preserve" fill="#585858" fill-rule="nonzero" stroke="none" stroke-width="1" stroke-linecap="butt" stroke-linejoin="miter" stroke-miterlimit="10" stroke-dasharray="" stroke-dashoffset="0" font-family="Sans Serif" font-weight="normal" text-anchor="start" style="mix-blend-mode: normal"><tspan x="0" dy="0">570G</tspan></text></g><g fill-rule="nonzero" stroke="none" stroke-linecap="butt"><path d="M248.03087,215.93531c0.41438,-0.94222 1.30869,-1.59712 2.34778,-1.59712c1.4325,0 2.5951,1.24099 2.5951,2.77006c0,3.0114 -4.94287,7.00154 -4.94287,7.00154c0,0 -4.94286,-3.89088 -4.94286,-7.00154c0,-1.52908 1.1626,-2.77006 2.5951,-2.77006c1.03907,0 1.9334,0.65487 2.34776,1.59712z" fill="#45b5e6" stroke-width="0" stroke-linejoin="round"/><text transform="translate(253.23743,222.41856) scale(0.19589,0.20748)" font-size="40" xml:space="preserve" fill="#585858" fill-rule="nonzero" stroke="none" stroke-width="1" stroke-linecap="butt" stroke-linejoin="miter" stroke-miterlimit="10" stroke-dasharray="" stroke-dashoffset="0" font-family="Sans Serif" font-weight="normal" text-anchor="start" style="mix-blend-mode: normal"><tspan x="0" dy="0">5%</tspan></text></g><g fill-rule="nonzero" stroke="none" stroke-linecap="butt" stroke-linejoin="miter"><g fill="#45b5e6" stroke-width="0"><path d="M241.85852,206.60629l5.64578,-1.34827l3.23916,3.23917l-1.34825,5.64577l-3.23077,-3.23077l-0.02081,-1.06159h-1.04078z"/><path d="M254.06963,202.84012l-4.99544,4.99545l-0.90828,-0.90827l4.99544,-4.99545z"/></g><text transform="translate(252.97427,210.4311) scale(0.19589,0.20748)" font-size="40" xml:space="preserve" fill="#585858" fill-rule="nonzero" stroke="none" stroke-width="1" stroke-linecap="butt" stroke-linejoin="miter" stroke-miterlimit="10" stroke-dasharray="" stroke-dashoffset="0" font-family="Sans Serif" font-weight="normal" text-anchor="start" style="mix-blend-mode: normal"><tspan x="0" dy="0">800G</tspan></text></g><g fill-rule="nonzero" stroke-linejoin="miter"><path d="M194.92423,186.40439v-60.49176h90.21921v60.49176z" fill="#69594a" stroke="#666666" stroke-width="2" stroke-linecap="butt"/><path d="M195.9437,185.48689v-3.6523h88.18031v3.6523z" fill="#c0c0c0" stroke="none" stroke-width="0" stroke-linecap="butt"/><g fill="none" stroke="#bf7736" stroke-width="2" stroke-linecap="round"><path d="M224.86195,180.86285v-7.33921"/><path d="M227.85755,172.84963h-5.76652l-1.12335,-8.68723"/></g><g data-paper-data="{&quot;index&quot;:null}" fill="none" stroke-width="2" stroke-linecap="round"><g data-paper-data="{&quot;index&quot;:null}" stroke="#bf7736"><path d="M232.97627,180.86285v-7.33921"/><path d="M235.97189,172.84963h-5.76652l-1.12335,-8.68723"/></g><g data-paper-data="{&quot;index&quot;:null}" stroke="#bfbfbf"><path d="M236.27142,172.55008h-5.76652l-1.12335,-8.68723"/></g></g><g stroke-linecap="butt"><g fill="none" stroke="#bfa186" stroke-width="2"><path d="M197.41215,180.86285v-11.8092h21.87269v11.8092z"/><path d="M211.27509,157.24445v11.8092h-13.86298v-11.8092z"/><path d="M197.41214,157.24446v-11.60382h21.87269v11.60383z"/></g><g><path d="M202.29665,152.15499l-0.07196,0.02809c-0.08232,-0.25392 -0.21396,-0.51871 -0.11454,-0.70108v-0.39077c-0.21922,-0.35308 -0.42031,-0.70706 -0.54281,-1.07262c-0.02849,-0.04431 -0.05755,-0.08837 -0.08727,-0.13217l-0.08184,0.02046l-0.10143,-0.40574c-0.00531,-0.01945 -0.00815,-0.03993 -0.00815,-0.06106c0,-0.1276 0.10344,-0.23105 0.23104,-0.23105c0.09781,0 0.18141,0.06077 0.21514,0.1466l0.09645,0.22994c0.12206,0.1715 0.28446,0.38596 0.44232,0.62024c0.00627,0.00756 0.01251,0.01517 0.01875,0.02283c0.00713,-0.03704 0.01574,-0.07422 0.02595,-0.11162l-0.0936,-0.0312l0.10101,-0.30301c0.02904,-0.09441 0.11694,-0.16304 0.22088,-0.16304c0.02701,0 0.05292,0.00464 0.07701,0.01316v-0.09017c0,-0.1276 0.10344,-0.23105 0.23105,-0.23105c0.10367,0 0.19138,0.06826 0.22065,0.1623l0.11283,0.33468c0.05204,0.14004 0.14096,0.31754 0.24071,0.51297c0.01623,-0.19054 0.05058,-0.38738 0.10763,-0.59621l0.35344,0.46893c0.0048,-0.0139 0.00992,-0.02768 0.01538,-0.04133c-0.004,-0.01513 -0.00807,-0.03029 -0.01224,-0.0455h-0.03718v-0.4621c0,-0.1276 0.10344,-0.23105 0.23105,-0.23105c0.10664,0 0.1964,0.07225 0.22302,0.17045c0.05403,-0.15961 0.11791,-0.31529 0.19327,-0.46613l0.0112,-0.0098l-0.00359,-0.0024l0.20339,-0.30509c0.04113,-0.0637 0.11276,-0.10587 0.19423,-0.10587c0.1276,0 0.23105,0.10345 0.23105,0.23105v0.4621h-0.06119c0.02012,0.26244 0.02102,0.5307 0.00784,0.8002c0.07626,-0.14106 0.15233,-0.2819 0.22314,-0.42289l0.0971,-0.29129c0.02904,-0.09441 0.11694,-0.16304 0.22087,-0.16304c0.05918,0 0.11316,0.02224 0.15404,0.05883c0.04087,-0.03659 0.09486,-0.05883 0.15404,-0.05883c0.1276,0 0.23105,0.10344 0.23105,0.23105v0.30806h-0.09761c-0.00564,0.86718 -0.64715,1.6476 -1.04773,2.44661l-0.0971,0.29131c-0.02904,0.09441 -0.11694,0.16304 -0.22087,0.16304c-0.08654,0 -0.16197,-0.04757 -0.20156,-0.11801c0.01084,0.31386 0.02185,0.62098 0.02185,0.91385c0,0 0,0.23105 -0.23105,0.23105c-0.23105,0 -0.23105,-0.23105 -0.23105,-0.23105c0,-0.32621 -0.01094,-0.66464 -0.02025,-1.00824c-0.01816,0.00458 -0.03717,0.00702 -0.05676,0.00702c-0.10394,0 -0.19184,-0.06864 -0.22087,-0.16304l-0.10101,-0.303l0.00861,-0.00288l-0.01126,-0.00559c-0.00063,-0.00251 -0.00125,-0.00501 -0.00188,-0.00752c-0.00239,0.00382 -0.00486,0.00759 -0.00742,0.01134l-0.0531,0.37166c-0.00342,0.02702 -0.01151,0.05258 -0.02343,0.07586c-0.00203,0.01635 -0.0042,0.03262 -0.00652,0.04886h0.03179v0.4621c0,0.1276 -0.10345,0.23105 -0.23105,0.23105c-0.10394,0 -0.19185,-0.06864 -0.22088,-0.16304l-0.10099,-0.30299c0,-0.00001 0,-0.00001 -0.00001,-0.00002c-0.04058,-0.12167 -0.08922,-0.24168 -0.1439,-0.36038c-0.01538,0.00322 -0.03132,0.00493 -0.04766,0.00493c-0.00833,0 -0.01655,-0.00045 -0.02465,-0.00131l-0.05809,0.23236c-0.02335,0.10289 -0.11537,0.1797 -0.22532,0.1797c-0.11894,0 -0.21689,-0.08988 -0.22964,-0.20543l-0.05694,-0.45549l0.04604,-0.00576c-0.00314,-0.01095 -0.00626,-0.02189 -0.00939,-0.03284z" fill="#02ff00" stroke="none" stroke-width="0.5"/><path d="M202.75195,155.39605v-2.46453h1.64302v2.46453z" fill="#4c4c4c" stroke="#666666" stroke-width="2"/></g></g><g stroke="none" stroke-width="0" stroke-linecap="butt"><path d="M267.50765,172.63617v4.3904h-18.34179v-4.3904z" data-paper-data="{&quot;index&quot;:null}" fill="#b30000"/><path d="M249.40933,172.35908v4.39039h-6.30317v-4.39039z" data-paper-data="{&quot;index&quot;:null}" fill="#ffffff"/><path d="M239.98494,181.66123v-5.98772h28.51234v5.98772z" data-paper-data="{&quot;index&quot;:null}" fill="#b28059"/><path d="M238.20796,181.66123v-13.3918h4.07889v13.3918z" data-paper-data="{&quot;index&quot;:null}" fill="#b28059"/></g><path d="M194.85656,140.30729v-14.55556h53.22222v14.55556z" fill="#666666" stroke="none" stroke-width="0" stroke-linecap="butt"/><text transform="translate(195.85656,136.90428) scale(0.3038,0.3038)" font-size="40" xml:space="preserve" fill="url(#color-1)" fill-rule="nonzero" stroke="none" stroke-width="1" stroke-linecap="butt" stroke-linejoin="miter" stroke-miterlimit="10" stroke-dasharray="" stroke-dashoffset="0" font-family="Sans Serif" font-weight="normal" text-anchor="start" style="mix-blend-mode: normal"><tspan x="0" dy="0">furniture</tspan></text><g data-paper-data="{&quot;index&quot;:null}"><path d="M269.95733,180.90283v-29.07273h14.22036v29.07273z" fill="#5a390b" stroke="#666666" stroke-width="2" stroke-linecap="butt"/><path d="M275.80347,167.15648h-3.00208" fill="none" stroke="#666666" stroke-width="2" stroke-linecap="round"/><g data-paper-data="{&quot;index&quot;:null}"><path d="M272.79076,156.02313h4.17796l-3.13697,7.44671h-1.04099v-7.44671" fill-opacity="0.75294" fill="#b4e0d7" stroke="none" stroke-width="1" stroke-linecap="butt"/><path d="M276.96872,156.02313h1.6855l-3.13697,7.44671h-1.6855l3.13697,-7.44671" fill-opacity="0.74902" fill="#d4fff5" stroke="none" stroke-width="1" stroke-linecap="butt"/><path d="M279.60011,156.02313h0.95975l-3.13697,7.44671h-0.94804l3.12526,-7.44671" fill-opacity="0.74902" fill="#d4fff5" stroke="none" stroke-width="1" stroke-linecap="butt"/><path d="M278.65423,156.02313h0.94804l-3.12526,7.44671h-0.95975l3.13697,-7.44671" fill-opacity="0.75294" fill="#b4e0d7" stroke="none" stroke-width="1" stroke-linecap="butt"/><path d="M280.9483,156.02313v7.44671h-3.52327l3.13697,-7.44671h0.3863" fill-opacity="0.75294" fill="#b4e0d7" stroke="none" stroke-width="1" stroke-linecap="butt"/><g stroke-width="1.512" stroke-linecap="round"><path d="" fill="#5e154d" stroke="#5e154d"/><path d="M272.79076,156.02313h8.15754v7.44671h-8.15754v-7.44671" fill="none" stroke="#666666"/></g></g></g></g><path d="M286.08835,126.38078v59.3949c0,0.9386 -0.76314,1.70207 -1.7024,1.70207h-88.77223c-0.93827,0 -1.70207,-0.76347 -1.70207,-1.70207v-59.39522c0,-0.9386 0.7638,-1.70208 1.70207,-1.70208h88.77223c0.93926,0 1.7024,0.7638 1.7024,1.7024z" fill="none" fill-rule="nonzero" stroke="#666666" stroke-width="2" stroke-linecap="butt" stroke-linejoin="miter"/><g fill-rule="nonzero" stroke="none" stroke-linecap="butt" stroke-linejoin="miter"><text transform="translate(252.9769,234.29901) scale(0.19588,0.20747)" font-size="40" xml:space="preserve" fill="#585858" fill-rule="nonzero" stroke="none" stroke-width="1" stroke-linecap="butt" stroke-linejoin="miter" stroke-miterlimit="10" stroke-dasharray="" stroke-dashoffset="0" font-family="Sans Serif" font-weight="normal" text-anchor="start" style="mix-blend-mode: normal"><tspan x="0" dy="0">-6</tspan></text><path d="M244.4761,236.41881l1.7486,-4.14478l-2.20732,-0.69125l5.87862,-5.12252l-1.71443,4.10799l2.18486,0.71764z" fill="#e6c245" stroke-width="0"/></g></g></g></svg>