<svg version="1.1" xmlns="http://www.w3.org/2000/svg" xmlns:xlink="http://www.w3.org/1999/xlink" width="92.21921" height="62.49176" viewBox="0,0,92.21921,62.49176"><g transform="translate(-193.89041,-148.75412)"><g data-paper-data="{&quot;isPaintingLayer&quot;:true}" stroke-miterlimit="10" stroke-dasharray="" stroke-dashoffset="0" style="mix-blend-mode: normal"><path d="M194.89041,210.24588v-60.49176h90.21921v60.49176z" fill="#ffd577" fill-rule="nonzero" stroke="#666666" stroke-width="2" stroke-linecap="butt" stroke-linejoin="miter"/><path d="M255.46889,209.16936v-58.28636h28.44514v58.28636z" fill="#bd8900" fill-rule="nonzero" stroke="none" stroke-width="0" stroke-linecap="butt" stroke-linejoin="miter"/><path d="M257.73744,168.50851v-4.71177h26.1547v4.71177z" fill="#a87800" fill-rule="nonzero" stroke="none" stroke-width="0" stroke-linecap="butt" stroke-linejoin="miter"/><path d="M257.91202,188.92619v-5.58433h25.82749v5.58433z" fill="#a87800" fill-rule="nonzero" stroke="none" stroke-width="0" stroke-linecap="butt" stroke-linejoin="miter"/><path d="M257.81381,163.76402v-12.87012h3.70833v12.87012z" fill="#ff1c1c" fill-rule="nonzero" stroke="none" stroke-width="0" stroke-linecap="butt" stroke-linejoin="miter"/><path d="M265.23046,163.76402v-12.87012h3.70834v12.87012z" fill="#00ceff" fill-rule="nonzero" stroke="none" stroke-width="0" stroke-linecap="butt" stroke-linejoin="miter"/><path d="M268.82975,163.87308v-12.97918h3.70834v12.97919z" fill="#ca00ff" fill-rule="nonzero" stroke="none" stroke-width="0" stroke-linecap="butt" stroke-linejoin="miter"/><path d="M276.24645,163.87308v-12.97918h3.70834v12.97919z" fill="#f5ff00" fill-rule="nonzero" stroke="none" stroke-width="0" stroke-linecap="butt" stroke-linejoin="miter"/><path d="M257.87926,183.45432v-14.94242h3.70834v14.94242z" fill="#ff1c1c" fill-rule="nonzero" stroke="none" stroke-width="0" stroke-linecap="butt" stroke-linejoin="miter"/><path d="M265.31772,183.50641l-3.4976,-14.30194l3.54939,-0.86802l3.49759,14.30194z" fill="#ca00ff" fill-rule="nonzero" stroke="none" stroke-width="0" stroke-linecap="butt" stroke-linejoin="miter"/><path d="M273.13482,183.36004v-14.94242h3.70834v14.94242z" fill="#f5ff00" fill-rule="nonzero" stroke="none" stroke-width="0" stroke-linecap="butt" stroke-linejoin="miter"/><path d="M280.17287,183.50547v-14.94242h3.70834v14.94242z" fill="#1c44ff" fill-rule="nonzero" stroke="none" stroke-width="0" stroke-linecap="butt" stroke-linejoin="miter"/><path d="M280.17287,209.10028v-20.12727h3.70834v20.12727z" data-paper-data="{&quot;index&quot;:null}" fill="#ff1c1c" fill-rule="nonzero" stroke="none" stroke-width="0" stroke-linecap="butt" stroke-linejoin="miter"/><path d="M272.75622,209.10028v-18.88617h3.70834v18.88617z" data-paper-data="{&quot;index&quot;:null}" fill="#ca00ff" fill-rule="nonzero" stroke="none" stroke-width="0" stroke-linecap="butt" stroke-linejoin="miter"/><path d="M269.04787,209.10028v-16.74243h3.70834v16.74244z" data-paper-data="{&quot;index&quot;:null}" fill="#00ceff" fill-rule="nonzero" stroke="none" stroke-width="0" stroke-linecap="butt" stroke-linejoin="miter"/><path d="M265.19415,209.13004v-18.77333h3.70834v18.77333z" data-paper-data="{&quot;index&quot;:null}" fill="#f5ff00" fill-rule="nonzero" stroke="none" stroke-width="0" stroke-linecap="butt" stroke-linejoin="miter"/><path d="M258.89052,208.63413l2.79299,-19.48391l3.5898,0.51459l-2.79299,19.48391z" data-paper-data="{&quot;index&quot;:null}" fill="#00ceff" fill-rule="nonzero" stroke="none" stroke-width="0" stroke-linecap="butt" stroke-linejoin="miter"/><g><g fill-rule="evenodd" stroke-width="0.5"><path d="M218.69743,164.79008c0.11183,-0.07455 0.2982,-0.03727 0.33549,0.11183l0.96917,3.98853c0,0 2.38566,1.75197 3.09391,2.98207c1.19283,2.05017 1.23011,3.7276 1.23011,3.7276c0,0 2.6466,0.78279 3.09391,2.90752c0.44731,2.12473 -1.19283,6.15053 -8.20071,7.52974c-7.00788,1.37921 -12.63654,-0.52186 -15.28313,-4.77132c-2.64659,-4.24946 1.52831,-9.31899 1.30465,-9.02078l-0.78279,-6.67239c-0.03728,-0.1491 0.1491,-0.26094 0.2982,-0.18638l4.51038,2.9448c0,0 1.67742,-0.63369 3.42939,-0.70825c1.04373,-0.07455 1.93835,0.00001 2.79569,0.14911z" fill="#ffab19" stroke="#001026" stroke-linecap="butt" stroke-linejoin="miter"/><path d="M224.21427,175.74921c0,0 2.57205,0.67097 3.01935,2.7957c0.44731,2.12473 -1.34193,5.96415 -8.27526,7.30608c-9.02078,1.8638 -13.30751,-3.50394 -10.81002,-7.4552c2.49749,-3.98853 6.78422,-0.59642 9.9154,-0.82008c2.68387,-0.18637 2.98208,-2.53476 6.15053,-1.82653z" fill="#ffffff" stroke="none" stroke-linecap="butt" stroke-linejoin="miter"/><path d="M212.47235,179.73773c0,-0.1491 0.14911,-0.26094 0.29821,-0.22366c0.70825,0.26093 2.72114,0.85735 4.9577,1.00645c2.0129,0.11183 3.20573,0.00001 3.76487,-0.11182c0.18637,-0.03728 0.33548,0.14911 0.26093,0.33548c-0.33549,1.00645 -1.75197,3.80215 -5.66594,3.57849c-3.39211,-0.37276 -3.7276,-2.75842 -3.61577,-4.58495z" fill="#ffffff" stroke="#001026" stroke-linecap="round" stroke-linejoin="round"/><path d="M231.07305,176.15924c-1.75197,1.41648 -4.43584,1.45376 -4.43584,1.45376" fill="none" stroke="#001026" stroke-linecap="round" stroke-linejoin="round"/><path d="M230.58846,180.33415c-2.34839,0.18637 -3.80215,-0.52186 -3.80215,-0.52186" fill="none" stroke="#001026" stroke-linecap="round" stroke-linejoin="round"/><path d="M217.91464,176.60655c0.78279,0 1.60287,0.07455 1.64014,0.33549c0.03728,0.52186 -0.52186,1.56559 -1.11828,1.60287c-0.67097,0.07455 -2.23656,-0.85735 -2.23656,-1.45377c-0.03728,-0.44731 0.96918,-0.48459 1.7147,-0.48459z" fill="#001026" stroke="#001026" stroke-linecap="round" stroke-linejoin="round"/><path d="M201.14046,176.04741c0,0 3.20573,1.04373 4.51039,2.19928" fill="none" stroke="#001026" stroke-linecap="round" stroke-linejoin="round"/><path d="M205.76269,179.55136c-1.60287,0.63369 -4.36129,0.22366 -4.36129,0.22366" fill="none" stroke="#001026" stroke-linecap="round" stroke-linejoin="round"/><g><path d="M222.3132,172.24527c1.081,1.67742 1.11828,3.57849 0.07455,4.24946c-1.04373,0.67097 -2.75842,-0.11182 -3.8767,-1.78924c-1.081,-1.67742 -1.11828,-3.5785 -0.07455,-4.24947c1.04373,-0.70825 2.7957,0.11183 3.8767,1.78925z" fill="#ffffff" stroke="#001026" stroke-linecap="round" stroke-linejoin="round"/><path d="M222.1641,174.37c0,0.41003 -0.2982,0.74551 -0.67096,0.74551c-0.37276,0 -0.67097,-0.33548 -0.67097,-0.74551c0,-0.41003 0.29821,-0.74552 0.67097,-0.74552c0.37276,0 0.67096,0.33548 0.67096,0.74552" fill="#001026" stroke="none" stroke-linecap="butt" stroke-linejoin="miter"/></g><g><path d="M213.06876,173.28899c1.11828,1.64014 1.04373,3.65304 0.03728,4.36129c-1.23011,0.70825 -2.87025,0.18637 -3.98853,-1.45377c-1.15556,-1.64014 -1.23011,-3.76487 -0.07455,-4.58495c1.15556,-0.85735 2.90753,0.03728 4.02581,1.67742z" fill="#ffffff" stroke="#001026" stroke-linecap="round" stroke-linejoin="round"/><path d="M212.84512,175.451c0,0.41003 -0.29821,0.74552 -0.67097,0.74552c-0.37276,0 -0.67096,-0.33548 -0.67096,-0.74552c0,-0.41003 0.2982,-0.74551 0.67096,-0.74551c0.37276,0.03728 0.67097,0.33548 0.67097,0.74551" fill="#001026" stroke="none" stroke-linecap="butt" stroke-linejoin="miter"/></g></g><path d="M196.29901,208.73953v-23.6217h46.06308v23.6217z" fill="#ab7000" fill-rule="nonzero" stroke="#000000" stroke-width="1" stroke-linecap="butt" stroke-linejoin="miter"/><path d="M200.51465,201.99841v-11.90261h13.98556v11.90261z" fill="#43a700" fill-rule="nonzero" stroke="#000000" stroke-width="0.5" stroke-linecap="butt" stroke-linejoin="miter"/></g><path d="M195.90992,209.32838v-3.6523h88.18031v3.6523z" fill="#c0c0c0" fill-rule="nonzero" stroke="none" stroke-width="0" stroke-linecap="butt" stroke-linejoin="miter"/></g></g></svg>