<svg version="1.1" xmlns="http://www.w3.org/2000/svg" xmlns:xlink="http://www.w3.org/1999/xlink" width="261.89584" height="264.92967" viewBox="0,0,261.89584,264.92967"><g transform="translate(-159.41636,-19.19557)"><g data-paper-data="{&quot;isPaintingLayer&quot;:true}" fill-rule="nonzero" stroke-linejoin="miter" stroke-miterlimit="10" stroke-dasharray="" stroke-dashoffset="0" style="mix-blend-mode: normal"><path d="M421.3122,46.21403c0,1.83834 -1.49471,3.33369 -3.33434,3.33369h-49.4281c-1.8377,0 -3.33369,-1.49534 -3.33369,-3.33369v-23.68477c0,-1.83835 1.49599,-3.33369 3.33369,-3.33369h49.4281c1.83963,0 3.33434,1.49598 3.33434,3.33433z" fill="#646666" stroke="none" stroke-width="1" stroke-linecap="butt"/><g fill="none" stroke="#ffffff" stroke-width="3.5" stroke-linecap="round" font-family="&quot;Helvetica Neue&quot;, Helvetica, Arial, sans-serif" font-weight="400" font-size="16" text-anchor="start"/><path d="M320.58367,280.79155c0,1.83834 -1.49471,3.33369 -3.33434,3.33369h-154.49928c-1.8377,0 -3.33369,-1.49534 -3.33369,-3.33369v-23.68477c0,-1.83835 1.49599,-3.33369 3.33369,-3.33369h154.49928c1.83963,0 3.33434,1.49598 3.33434,3.33433z" fill="#927d90" stroke="none" stroke-width="1" stroke-linecap="butt"/></g></g></svg>