<svg version="1.1" xmlns="http://www.w3.org/2000/svg" xmlns:xlink="http://www.w3.org/1999/xlink" width="356.11802" height="205.53794" viewBox="0,0,356.11802,205.53794"><g transform="translate(-56.60254,-63.37627)"><g data-paper-data="{&quot;isPaintingLayer&quot;:true}" fill-rule="nonzero" stroke-linejoin="miter" stroke-miterlimit="10" stroke-dasharray="" stroke-dashoffset="0" style="mix-blend-mode: normal"><path d="M56.60254,96.06167c0,-3.40283 2.76718,-6.16767 6.16766,-6.16767h99.69242c3.40045,0 6.16644,2.76484 6.16644,6.16767v3.56651c0,3.3993 -2.76596,6.16647 -6.16644,6.16647h-99.6936c-3.40045,0 -6.16646,-2.76721 -6.16646,-6.16647v-3.56651z" data-paper-data="{&quot;index&quot;:null}" fill-opacity="0.25098" fill="#6d6773" stroke="none" stroke-width="1" stroke-linecap="butt"/><path d="M56.60254,115.5484c0,-3.40283 2.76718,-6.16767 6.16766,-6.16767h99.69242c3.40045,0 6.16644,2.76484 6.16644,6.16767v3.56651c0,3.3993 -2.76596,6.16647 -6.16644,6.16647h-99.6936c-3.40045,0 -6.16646,-2.76721 -6.16646,-6.16647v-3.56651z" data-paper-data="{&quot;index&quot;:null}" fill-opacity="0.25098" fill="#6d6773" stroke="none" stroke-width="1" stroke-linecap="butt"/><path d="M56.60254,135.03513c0,-3.40283 2.76718,-6.16767 6.16766,-6.16767h99.69242c3.40045,0 6.16644,2.76484 6.16644,6.16767v3.56651c0,3.3993 -2.76596,6.16647 -6.16644,6.16647h-99.6936c-3.40045,0 -6.16646,-2.76721 -6.16646,-6.16647v-3.56651z" data-paper-data="{&quot;index&quot;:null}" fill-opacity="0.25098" fill="#6d6773" stroke="none" stroke-width="1" stroke-linecap="butt"/><path d="M56.60254,154.52185c0,-3.40283 2.76718,-6.16767 6.16766,-6.16767h99.69242c3.40045,0 6.16644,2.76484 6.16644,6.16767v3.56651c0,3.3993 -2.76596,6.16647 -6.16644,6.16647h-99.6936c-3.40045,0 -6.16646,-2.76721 -6.16646,-6.16647v-3.56651z" data-paper-data="{&quot;index&quot;:null}" fill-opacity="0.25098" fill="#6d6773" stroke="none" stroke-width="1" stroke-linecap="butt"/><path d="M56.60254,174.00859c0,-3.40283 2.76718,-6.16767 6.16766,-6.16767h99.69242c3.40045,0 6.16644,2.76484 6.16644,6.16767v3.56651c0,3.3993 -2.76596,6.16647 -6.16644,6.16647h-99.6936c-3.40045,0 -6.16646,-2.76721 -6.16646,-6.16647v-3.56651z" data-paper-data="{&quot;index&quot;:null}" fill-opacity="0.25098" fill="#6d6773" stroke="none" stroke-width="1" stroke-linecap="butt"/><path d="M56.60254,193.49532c0,-3.40283 2.76718,-6.16767 6.16766,-6.16767h99.69242c3.40045,0 6.16644,2.76484 6.16644,6.16767v3.56651c0,3.3993 -2.76596,6.16647 -6.16644,6.16647h-99.6936c-3.40045,0 -6.16646,-2.76721 -6.16646,-6.16647v-3.56651z" data-paper-data="{&quot;index&quot;:null}" fill-opacity="0.25098" fill="#6d6773" stroke="none" stroke-width="1" stroke-linecap="butt"/><path d="M56.60254,212.98205c0,-3.40283 2.76718,-6.16767 6.16766,-6.16767h99.69242c3.40045,0 6.16644,2.76484 6.16644,6.16767v3.56651c0,3.3993 -2.76596,6.16647 -6.16644,6.16647h-99.6936c-3.40045,0 -6.16646,-2.76721 -6.16646,-6.16647v-3.56651z" data-paper-data="{&quot;index&quot;:null}" fill-opacity="0.25098" fill="#6d6773" stroke="none" stroke-width="1" stroke-linecap="butt"/><g><path d="M115.90475,262.40702v-8.86051c0,-3.39926 2.76601,-6.16647 6.16646,-6.16647h27.51778c3.40048,0 6.16644,2.76716 6.16644,6.16647v8.86051c0,3.40283 -2.76599,6.16767 -6.16644,6.16767h-27.51661c-3.40048,0 -6.16766,-2.76484 -6.16766,-6.16766z" data-paper-data="{&quot;index&quot;:null}" fill="#b9a3cc" stroke="none" stroke-width="1" stroke-linecap="butt"/><path d="M132.39092,252.51446l6.87831,6.2508l-6.87831,6.25399" data-paper-data="{&quot;index&quot;:null}" fill="none" stroke="#ffffff" stroke-width="3.5" stroke-linecap="round"/></g><g><path d="M109.32686,262.40702c0,3.40283 -2.76718,6.16767 -6.16766,6.16767h-27.51661c-3.40045,0 -6.16644,-2.76484 -6.16644,-6.16767v-8.86051c0,-3.39931 2.76596,-6.16647 6.16644,-6.16647h27.51778c3.40045,0 6.16646,2.76721 6.16646,6.16647v8.86051z" data-paper-data="{&quot;index&quot;:null}" fill="#b9a3cc" stroke="none" stroke-width="1" stroke-linecap="butt"/><path d="M92.84066,264.22977l-6.87831,-6.25399l6.87831,-6.2508" data-paper-data="{&quot;index&quot;:null}" fill="none" stroke="#ffffff" stroke-width="3.5" stroke-linecap="round"/></g><text transform="translate(61.95707,76.67454) scale(0.27096,0.27096)" font-size="40" xml:space="preserve" fill="#ffffff" fill-rule="nonzero" stroke="none" stroke-width="1" stroke-linecap="butt" stroke-linejoin="miter" stroke-miterlimit="10" stroke-dasharray="" stroke-dashoffset="0" font-family="Sans Serif" font-weight="normal" text-anchor="start" style="mix-blend-mode: normal"><tspan x="0" dy="0">5</tspan></text><text transform="translate(85.22492,77.08773) scale(0.31764,0.31764)" font-size="40" xml:space="preserve" fill="#ffffff" fill-rule="nonzero" stroke="none" stroke-width="1" stroke-linecap="butt" stroke-linejoin="miter" stroke-miterlimit="10" stroke-dasharray="" stroke-dashoffset="0" font-family="Sans Serif" font-weight="normal" text-anchor="start" style="mix-blend-mode: normal"><tspan x="0" dy="0">シーズン(2)</tspan></text><path d="M56.60254,232.46878c0,-3.40283 2.76718,-6.16767 6.16766,-6.16767h99.69242c3.40045,0 6.16644,2.76484 6.16644,6.16767v3.56651c0,3.3993 -2.76596,6.16647 -6.16644,6.16647h-99.6936c-3.40045,0 -6.16646,-2.76721 -6.16646,-6.16647v-3.56651z" data-paper-data="{&quot;index&quot;:null}" fill-opacity="0.25098" fill="#6d6773" stroke="none" stroke-width="1" stroke-linecap="butt"/><text transform="translate(60.80312,101.50909) scale(0.31764,0.31764)" font-size="40" xml:space="preserve" fill="#ffffff" fill-rule="nonzero" stroke="none" stroke-width="1" stroke-linecap="butt" stroke-linejoin="miter" stroke-miterlimit="10" stroke-dasharray="" stroke-dashoffset="0" font-family="Sans Serif" font-weight="normal" text-anchor="start" style="mix-blend-mode: normal"><tspan x="0" dy="0">もうすぐだ！！</tspan></text><text transform="translate(60.80312,120.99582) scale(0.31764,0.31764)" font-size="40" xml:space="preserve" fill="#ffffff" fill-rule="nonzero" stroke="none" stroke-width="1" stroke-linecap="butt" stroke-linejoin="miter" stroke-miterlimit="10" stroke-dasharray="" stroke-dashoffset="0" font-family="Sans Serif" font-weight="normal" text-anchor="start" style="mix-blend-mode: normal"><tspan x="0" dy="0">あと1分！</tspan></text><text transform="translate(60.80312,140.48255) scale(0.31764,0.31764)" font-size="40" xml:space="preserve" fill="#ffffff" fill-rule="nonzero" stroke="none" stroke-width="1" stroke-linecap="butt" stroke-linejoin="miter" stroke-miterlimit="10" stroke-dasharray="" stroke-dashoffset="0" font-family="Sans Serif" font-weight="normal" text-anchor="start" style="mix-blend-mode: normal"><tspan x="0" dy="0">10!!</tspan></text><text transform="translate(60.80312,159.96928) scale(0.31764,0.31764)" font-size="40" xml:space="preserve" fill="#ffffff" fill-rule="nonzero" stroke="none" stroke-width="1" stroke-linecap="butt" stroke-linejoin="miter" stroke-miterlimit="10" stroke-dasharray="" stroke-dashoffset="0" font-family="Sans Serif" font-weight="normal" text-anchor="start" style="mix-blend-mode: normal"><tspan x="0" dy="0">5!!</tspan></text><text transform="translate(60.80312,179.45601) scale(0.31764,0.31764)" font-size="40" xml:space="preserve" fill="#ffffff" fill-rule="nonzero" stroke="none" stroke-width="1" stroke-linecap="butt" stroke-linejoin="miter" stroke-miterlimit="10" stroke-dasharray="" stroke-dashoffset="0" font-family="Sans Serif" font-weight="normal" text-anchor="start" style="mix-blend-mode: normal"><tspan x="0" dy="0">4!!</tspan></text><text transform="translate(60.80312,198.94274) scale(0.31764,0.31764)" font-size="40" xml:space="preserve" fill="#ffffff" fill-rule="nonzero" stroke="none" stroke-width="1" stroke-linecap="butt" stroke-linejoin="miter" stroke-miterlimit="10" stroke-dasharray="" stroke-dashoffset="0" font-family="Sans Serif" font-weight="normal" text-anchor="start" style="mix-blend-mode: normal"><tspan x="0" dy="0">3!!</tspan></text><text transform="translate(60.80312,237.9162) scale(0.31764,0.31764)" font-size="40" xml:space="preserve" fill="#ffffff" fill-rule="nonzero" stroke="none" stroke-width="1" stroke-linecap="butt" stroke-linejoin="miter" stroke-miterlimit="10" stroke-dasharray="" stroke-dashoffset="0" font-family="Sans Serif" font-weight="normal" text-anchor="start" style="mix-blend-mode: normal"><tspan x="0" dy="0">1!!</tspan></text><text transform="translate(60.80312,218.42947) scale(0.31764,0.31764)" font-size="40" xml:space="preserve" fill="#ffffff" fill-rule="nonzero" stroke="none" stroke-width="1" stroke-linecap="butt" stroke-linejoin="miter" stroke-miterlimit="10" stroke-dasharray="" stroke-dashoffset="0" font-family="Sans Serif" font-weight="normal" text-anchor="start" style="mix-blend-mode: normal"><tspan x="0" dy="0">2!!</tspan></text><path d="M372.86988,262.74654v-8.86051c0,-3.39926 2.76601,-6.16647 6.16646,-6.16647h27.51778c3.40048,0 6.16644,2.76716 6.16644,6.16647v8.86051c0,3.40283 -2.76599,6.16767 -6.16644,6.16767h-27.51661c-3.40048,0 -6.16766,-2.76484 -6.16766,-6.16767z" fill-opacity="0.00392" fill="#b9a3cc" stroke="none" stroke-width="1" stroke-linecap="butt"/></g></g></svg>