<svg version="1.1" xmlns="http://www.w3.org/2000/svg" xmlns:xlink="http://www.w3.org/1999/xlink" width="615.47551" height="360.24961" viewBox="0,0,615.47551,360.24961"><defs><linearGradient x1="134.25961" y1="180" x2="156.5" y2="180" gradientUnits="userSpaceOnUse" id="color-1"><stop offset="0" stop-color="#000000" stop-opacity="0.50196"/><stop offset="1" stop-color="#000000" stop-opacity="0"/></linearGradient></defs><g transform="translate(0.47551,0)"><g data-paper-data="{&quot;isPaintingLayer&quot;:true}" stroke-linejoin="miter" stroke-miterlimit="10" stroke-dasharray="" stroke-dashoffset="0" style="mix-blend-mode: normal"><path d="M0.00001,360v-360h615v360z" fill-opacity="0.4" fill="#333333" fill-rule="nonzero" stroke="none" stroke-width="0" stroke-linecap="butt"/><path d="M134.25961,360v-360h22.2404v360z" fill="url(#color-1)" fill-rule="nonzero" stroke="none" stroke-width="0" stroke-linecap="butt"/><path d="M0.00001,360v-360h134.2596v360z" fill="#262626" fill-rule="nonzero" stroke="none" stroke-width="0" stroke-linecap="butt"/><path d="M134.25984,191.60498v31.70538h-134.2596v-31.70538z" fill="#404040" fill-rule="nonzero" stroke="none" stroke-width="0" stroke-linecap="butt"/><text transform="translate(33.90084,214.10351) scale(0.55382,0.55382)" font-size="40" xml:space="preserve" fill="#ffffff" fill-rule="nonzero" stroke="none" stroke-width="1" stroke-linecap="butt" stroke-linejoin="miter" stroke-miterlimit="10" stroke-dasharray="" stroke-dashoffset="0" font-family="Sans Serif" font-weight="normal" text-anchor="start" style="mix-blend-mode: normal"><tspan x="0" dy="0">ヘルプ</tspan></text><path d="M134.25984,154.21121v31.70539h-134.2596v-31.70539z" fill="#404040" fill-rule="nonzero" stroke="none" stroke-width="0" stroke-linecap="butt"/><text transform="translate(44.97684,176.70986) scale(0.55383,0.55383)" font-size="40" xml:space="preserve" fill="#ffffff" fill-rule="nonzero" stroke="none" stroke-width="1" stroke-linecap="butt" stroke-linejoin="miter" stroke-miterlimit="10" stroke-dasharray="" stroke-dashoffset="0" font-family="Sans Serif" font-weight="normal" text-anchor="start" style="mix-blend-mode: normal"><tspan x="0" dy="0">設定</tspan></text><path d="M134.25984,116.81744v31.70539h-134.2596v-31.70539z" fill="#404040" fill-rule="nonzero" stroke="none" stroke-width="0" stroke-linecap="butt"/><text transform="translate(33.90031,139.3161) scale(0.55383,0.55383)" font-size="40" xml:space="preserve" fill="#ffffff" fill-rule="nonzero" stroke="none" stroke-width="1" stroke-linecap="butt" stroke-linejoin="miter" stroke-miterlimit="10" stroke-dasharray="" stroke-dashoffset="0" font-family="Sans Serif" font-weight="normal" text-anchor="start" style="mix-blend-mode: normal"><tspan x="0" dy="0">セーブ</tspan></text><text transform="translate(8.2463,22.16013) scale(0.39287,0.39287)" font-size="40" xml:space="preserve" fill="#ffffff" fill-rule="nonzero" stroke="none" stroke-width="1" stroke-linecap="butt" stroke-linejoin="miter" stroke-miterlimit="10" stroke-dasharray="" stroke-dashoffset="0" font-family="Sans Serif" font-weight="normal" text-anchor="start" style="mix-blend-mode: normal"><tspan x="0" dy="0">ScratchBuilding</tspan></text><text transform="translate(0.00001,357.00748) scale(0.25937,0.25937)" font-size="40" xml:space="preserve" fill="#bfbfbf" fill-rule="nonzero" stroke="none" stroke-width="1" stroke-linecap="butt" stroke-linejoin="miter" stroke-miterlimit="10" stroke-dasharray="" stroke-dashoffset="0" font-family="Sans Serif" font-weight="normal" text-anchor="start" style="mix-blend-mode: normal"><tspan x="0" dy="0">v7.1.2</tspan></text><path d="M23.26862,172.07283h-0.77202c-0.62981,0 -1.15804,0.54347 -1.15804,1.18852c0,0.32507 0.13713,0.61965 0.38094,0.83806l0.49776,0.4876c0.49267,0.48759 0.49267,1.28501 0,1.77261l-1.13265,1.12249c-0.22348,0.22349 -0.55363,0.35554 -0.88884,0.35554c-0.33523,0 -0.66029,-0.13207 -0.88884,-0.35554l-0.47744,-0.47744c-0.22856,-0.25395 -0.53331,-0.39109 -0.86345,-0.39109c-0.65013,0 -1.19359,0.52823 -1.19359,1.15295v0.7771c0,0.68568 -0.55363,1.27486 -1.24439,1.27486h-1.54405c-0.69076,0 -1.23931,-0.58411 -1.23931,-1.27486v-0.77202c0,-0.62473 -0.54347,-1.15295 -1.1936,-1.15295c-0.32506,0 -0.62473,0.13713 -0.84313,0.37586l-0.49267,0.4876c-0.22348,0.22856 -0.55363,0.35554 -0.88884,0.35554c-0.33522,0 -0.66029,-0.13207 -0.88884,-0.35554l-1.1428,-1.11741c-0.4876,-0.4876 -0.4876,-1.28502 0,-1.76754l0.47744,-0.47744c0.25396,-0.22856 0.39618,-0.53331 0.39618,-0.85838c0,-0.65013 -0.52823,-1.18852 -1.15804,-1.18852h-0.77202c-0.69584,0 -1.27994,-0.54347 -1.27994,-1.23423v-0.77202v-0.77202c0,-0.68568 0.58409,-1.23423 1.27994,-1.23423h0.77202c0.62981,0 1.15804,-0.54347 1.15804,-1.18852c0,-0.32507 -0.14223,-0.62981 -0.39618,-0.85838l-0.47744,-0.47236c-0.4876,-0.4876 -0.4876,-1.28502 0,-1.76754l1.13265,-1.12757c0.22348,-0.22856 0.55363,-0.35554 0.88884,-0.35554c0.33523,0 0.66029,0.13207 0.88884,0.35554l0.49267,0.4876c0.21332,0.23872 0.51807,0.37586 0.84313,0.37586c0.65013,0 1.19359,-0.52823 1.19359,-1.15295v-0.77202c0,-0.68568 0.54855,-1.27486 1.24439,-1.27486h1.54405c0.69076,0 1.23931,0.58411 1.23931,1.27486v0.77202c0,0.62473 0.54347,1.15295 1.1936,1.15295c0.32506,0 0.62981,-0.14221 0.86345,-0.39109l0.47744,-0.47744c0.22856,-0.22349 0.55363,-0.35554 0.88884,-0.35554c0.33523,0 0.66029,0.13207 0.88884,0.35554l1.13265,1.12757c0.4876,0.48759 0.4876,1.28501 0,1.77261l-0.49776,0.4876c-0.24379,0.2184 -0.38094,0.51807 -0.38094,0.83806c0,0.65013 0.52823,1.18852 1.15804,1.18852h0.77202c0.69076,0 1.18343,0.54347 1.18343,1.23423v0.7771v0.77202c0.01016,0.69076 -0.48251,1.23423 -1.17327,1.23423zM14.75094,166.00328c-2.25006,0 -4.0633,1.82341 -4.0633,4.0633c0,2.23989 1.81325,4.0633 4.0633,4.0633c2.25006,0 4.0633,-1.82341 4.0633,-4.0633c0,-2.2399 -1.81325,-4.0633 -4.0633,-4.0633z" fill="#cccccc" fill-rule="nonzero" stroke="none" stroke-width="1" stroke-linecap="butt"/><g fill-rule="evenodd" stroke-linecap="butt"><path d="M6.33927,124.31879c0,-0.77487 0.6313,-1.40303 1.38935,-1.40303h9.75859v3.27464c0,1.26988 1.02234,2.29933 2.29932,2.29933h3.27464v12.54785c0,0.76606 -0.6351,1.38708 -1.39694,1.38708h-13.92803c-0.77151,0 -1.39693,-0.627 -1.39693,-1.40303z" fill="#cccccc" stroke="none" stroke-width="1"/><path d="M18.8701,122.91576l4.18047,4.18048h-2.78844c-0.76881,0 -1.39203,-0.61684 -1.39203,-1.39204z" fill="#cccccc" stroke="none" stroke-width="1"/><path d="M17.50969,135.71974h-1.56516v1.56516c0,0.52172 -0.42074,0.95929 -0.95929,0.95929c-0.53855,0 -0.95929,-0.43758 -0.95929,-0.95929v-1.56516h-1.56516c-0.52172,0 -0.95929,-0.42074 -0.95929,-0.95928c0,-0.53855 0.43757,-0.95929 0.95929,-0.95929h1.56516v-1.56516c0,-0.5234 0.42074,-0.95929 0.95929,-0.95929c0.53855,0 0.95929,0.43589 0.95929,0.95929v1.56516h1.56516c0.52172,0 0.95929,0.42074 0.95929,0.95929c0,0.53855 -0.43757,0.95928 -0.95929,0.95928z" fill="#4d4d4d" stroke="#4d4d4d" stroke-width="0.25"/></g><g fill-rule="nonzero" stroke="none" stroke-linecap="butt"><path d="M105.35179,324.80147v8.84855c0,3.89628 -3.16795,7.06561 -7.06696,7.06561h-86.22735c-3.8949,0 -7.06559,-3.1693 -7.06559,-7.06561v-8.84992c0,-3.89628 3.17064,-7.06554 7.06559,-7.06554h86.22735c3.89898,0 7.06696,3.17066 7.06696,7.06694z" fill-opacity="0.4" fill="#1c1c1c" stroke-width="0"/><text transform="translate(32.66288,334.29557) scale(0.35394,0.35394)" font-size="40" xml:space="preserve" fill="#ffffff" fill-rule="nonzero" stroke="none" stroke-width="1" stroke-linecap="butt" stroke-linejoin="miter" stroke-miterlimit="10" stroke-dasharray="" stroke-dashoffset="0" font-family="Sans Serif" font-weight="normal" text-anchor="start" style="mix-blend-mode: normal"><tspan x="0" dy="0">Masaabu_</tspan></text><g><path d="M28.29865,321.91959c0.87794,0.24994 1.5576,0.94656 1.78578,1.83042c0.31104,1.65717 0.45759,3.341 0.43752,5.02697c0.01098,1.67675 -0.1355,3.35083 -0.43752,5.00019c-0.22706,0.88637 -0.90651,1.5862 -1.78578,1.83935c-1.63399,0.42858 -8.16102,0.42858 -8.16102,0.42858c0,0 -6.50024,0 -8.14316,-0.43751c-0.88965,-0.25428 -1.58507,-0.9497 -1.83936,-1.83935c-0.57186,-3.31493 -0.57186,-6.70331 0,-10.01824c0.24627,-0.89994 0.94309,-1.60688 1.83936,-1.86614c1.63399,-0.41966 8.14316,-0.41966 8.14316,-0.41966c0,0 6.52703,0 8.16102,0.45538zM18.06612,325.61615v6.25023l5.41984,-3.1162l-5.41984,-3.12511z" fill="#ff0000" stroke-width="1"/><path d="M18.03682,325.59139l5.49379,3.15895l-5.49374,3.14977v-6.31769z" data-paper-data="{&quot;noHover&quot;:false,&quot;origItem&quot;:[&quot;Path&quot;,{&quot;applyMatrix&quot;:true,&quot;segments&quot;:[[475.38831,352.97],[475.38831,366.97],[487.52831,359.99],[475.38831,352.99]],&quot;closed&quot;:true,&quot;fillColor&quot;:[0,0,0,1]}]}" fill="#ffffff" stroke-width="0.5"/></g></g><path d="M134.25984,228.99875v31.70538h-134.2596v-31.70538z" fill="#404040" fill-rule="nonzero" stroke="none" stroke-width="0" stroke-linecap="butt"/><text transform="translate(44.97684,251.4974) scale(0.55382,0.55382)" font-size="40" xml:space="preserve" fill="#ffffff" fill-rule="nonzero" stroke="none" stroke-width="1" stroke-linecap="butt" stroke-linejoin="miter" stroke-miterlimit="10" stroke-dasharray="" stroke-dashoffset="0" font-family="Sans Serif" font-weight="normal" text-anchor="start" style="mix-blend-mode: normal"><tspan x="0" dy="0">戻る</tspan></text><path d="M18.14811,252.9378l-8.89573,-8.0883l8.89573,-8.08418" data-paper-data="{&quot;index&quot;:null}" fill="none" fill-rule="nonzero" stroke="#cccccc" stroke-width="3.5" stroke-linecap="round"/><path d="M7.92234,202.5129c0,-3.19105 2.58686,-5.77791 5.77791,-5.77791c3.19105,0 5.77791,2.58686 5.77791,5.77791c0,3.19105 -4.65648,3.13028 -5.77791,6.56581c-0.06562,0.20103 -0.14036,2.9306 -0.14036,2.9306" fill="none" fill-rule="nonzero" stroke="#cccccc" stroke-width="3.5" stroke-linecap="butt"/><path d="M11.56663,216.04697c0,-1.17836 0.95525,-2.13362 2.13362,-2.13362c1.17836,0 2.13362,0.95525 2.13362,2.13362c0,1.17836 -0.95525,2.13362 -2.13362,2.13362c-1.17836,0 -2.13362,-0.95525 -2.13362,-2.13362z" fill="#cccccc" fill-rule="nonzero" stroke="none" stroke-width="0" stroke-linecap="butt"/></g></g></svg>