<svg version="1.1" xmlns="http://www.w3.org/2000/svg" xmlns:xlink="http://www.w3.org/1999/xlink" width="31.26683" height="13.84099" viewBox="0,0,31.26683,13.84099"><g transform="translate(-241.57696,-173.57451)"><g data-paper-data="{&quot;isPaintingLayer&quot;:true}" fill-rule="nonzero" stroke="none" stroke-width="0.5" stroke-linecap="butt" stroke-linejoin="miter" stroke-miterlimit="10" stroke-dasharray="" stroke-dashoffset="0" style="mix-blend-mode: normal"><g><path d="M247.32683,177.75867l0.00001,-0.00175l0.00082,-0.00333l-0.00509,-0.00876l0.04279,-0.14405l0.03583,-0.14523l0.00919,-0.00634l0.00098,-0.0033l0.03325,-0.05925l0.10796,-0.12079l0.01247,-0.0361l0.02724,-0.00832l0.06437,-0.07202l0.21718,-0.01949l0.03482,-0.02399l0.02416,0.01139l0.20459,-0.06255l0.0733,0.04492l0.02767,-0.00248l0.01416,0.02439l0.0152,0.01304l0.11108,0.06809l0.03255,0.03526l0.0183,0.0357l0.02994,0.0257l0.00626,0.00941l0.01328,-0.00153l0.04255,0.04031l0.05499,0.0219l0.01314,0.04265l0.09452,0.08955l0.02842,0.0475l0.00476,0.00342l0.05989,0.07522l0.05962,0.02374l0.01141,0.03705l0.06456,0.04841l0.04246,0.05558l0.02291,0.01498l0.03971,-0.00132l0.0566,0.06433l0.07161,0.04686l0.0045,0.03966l0.05439,0.06183l0.00034,0.0007l0.15517,0.12691l0.00346,0.00494l0.00548,0.00254l0.19591,0.16823l0.24394,0.17528l0.01606,0.02017l0.02324,0.01127l0.2404,0.21362l0.2488,0.2114l0.181,0.12471l0.01954,0.02358l0.02763,0.0134l0.24301,0.21594l0.15067,0.1318l0.0474,0.07265l0.0602,0.06148l0.08631,0.15703l0.0679,0.27672l0.00226,0.00389l-0.00071,0.0024l0.00056,0.00229l-0.00252,0.0043l-0.08613,0.28992l-0.03325,0.05925l-0.00234,0.00261l-0.00039,0.01074l-0.10713,0.10956l-0.10218,0.11432l-0.01053,0.00095l-0.00246,0.00251l-0.08241,0.05361l-0.01397,0.0051l-0.04095,0.03996l-0.0571,0.03522l-0.0475,0.04857l-0.1301,0.08464l-0.06709,0.05638l-0.00876,0.00453l-0.00634,0.00781l-0.19233,0.15253l-0.16739,0.16334l-0.00984,0.00607l-0.00674,0.00959l-0.20627,0.18841l-0.22314,0.21775l-0.00985,0.00607l-0.00674,0.00959l-0.20098,0.18358l-0.29012,0.29507l-0.14571,0.17758l-0.02546,0.01998l-0.01729,0.02749l-0.34113,0.34547l-0.12824,0.15629l-0.1615,0.23104l-0.03245,0.02982l-0.02175,0.03823l-0.38603,0.42677l-0.21076,0.29655l-0.20866,0.34259l-0.01955,0.02037l-0.01108,0.02567l-0.22058,0.30445l-0.12777,0.19899l-0.01132,0.01126l-0.0061,0.01458l-0.33395,0.47196l-0.16473,0.24063l-0.14048,0.27751l-0.00955,0.01164l-0.0042,0.01414l-0.13298,0.237l-0.01902,0.02128l-0.01024,0.02624l-0.07927,0.11783l-0.09292,0.18821l-0.1335,0.35244l-0.00946,0.01436l-0.00308,0.01642l-0.06118,0.14013l-0.11176,0.15292l-0.01189,0.04312l-0.03741,0.02433l-0.02662,0.03643l-0.04263,0.00862l-0.157,0.10214l-0.04386,0.016l-0.29761,0.03313l-0.10895,-0.1042l-0.15246,-0.02665l-0.04716,-0.0858l-0.00668,-0.00501l-0.11267,-0.07372l-0.00133,-0.01175l-0.00451,-0.00338l-0.01501,-0.01964l-0.09119,-0.05589l-0.00266,-0.00288l-0.00381,-0.00115l-0.14149,-0.08979l-0.0199,-0.02226l-0.02754,-0.012l-0.1971,-0.1612l-0.02797,-0.014l-0.00648,0.00104l-0.01194,-0.01026l-0.01373,-0.00688l-0.09312,-0.08488l-0.02248,-0.0193l-0.0891,-0.05939l-0.03169,-0.03707l-0.04258,-0.02381l-0.16647,-0.16645l-0.12037,-0.09136l-0.00549,-0.00728l-0.00839,-0.00366l-0.35868,-0.29336l-0.01115,-0.01593l-0.01712,-0.00908l-0.24796,-0.23713l-0.21541,-0.2019l-0.00946,-0.01563l-0.01543,-0.00946l-0.17207,-0.18644l-0.09314,-0.07617l-0.02001,-0.02859l-0.0296,-0.01814l-0.22676,-0.24569l-0.13387,-0.09619l-0.0041,-0.00514l-0.00616,-0.00243l-0.14172,-0.10756l-0.08183,-0.05881l-0.11944,-0.15l-0.02462,-0.01306l0.00061,-0.01708l-0.03333,-0.04187l0.04447,-0.26719l0.00961,-0.26673l0.04192,-0.04288l0.00285,-0.01711l0.02734,-0.01376l0.15019,-0.15359l0.08241,-0.05361l0.0691,-0.02519l0.06298,-0.04097l0.02103,-0.00767l0.019,-0.01363l0.05166,-0.05739l0.20338,-0.14485l0.08089,-0.03358l0.07465,-0.04857l0.06242,-0.02276l0.04153,-0.03132l0.05988,-0.02687l0.0065,-0.02358l0.10141,-0.06597l0.09209,-0.07997l0.02839,0.00159l0.04177,-0.02717l0.02101,-0.00766l0.01148,-0.01121l0.07371,-0.04547l0.06475,-0.05895l0.21341,-0.12143l0.12851,-0.0836l0.22312,-0.16829l0.06589,-0.02957l0.05849,-0.04464l0.18462,-0.08419l0.15573,-0.1235l0.00755,-0.00362l0.00556,-0.00652l0.18144,-0.13684l0.02883,-0.01295l0.02317,-0.0226l0.13834,-0.08535l0.23199,-0.20379l0.00668,-0.00364l0.00471,-0.00614l0.19806,-0.16647l0.00876,-0.00453l0.00634,-0.00781l0.16218,-0.12861l0.11845,-0.14436l0.05051,-0.03964l0.03928,-0.05126l0.15769,-0.13254l0.20033,-0.22869l0.15841,-0.19306l0.00729,-0.00572l0.00441,-0.00817l0.10289,-0.11893l0.0821,-0.14631l0.04097,-0.04585l0.0276,-0.05451l0.00115,-0.0014l0.05826,-0.12302l0.05211,-0.06698l0.03808,-0.07523l0.07156,-0.08722l0.02004,-0.03572l0.04764,-0.1091l0.00633,-0.00867l0.00226,-0.0102l0.06951,-0.14678l0.03531,-0.12806l0.05164,-0.09629l0.03941,-0.101l0.04994,-0.07422l0.03801,-0.1205l0.05217,-0.08953l0.03909,-0.09504l0.04915,-0.07031l0.03175,-0.07272c0.03994,-0.09345 0.10137,-0.17888 0.17928,-0.2474l0.00688,-0.00941l0.0205,-0.09287l0.03047,-0.06435l0.01415,-0.06831l0.07127,-0.15549l0.07359,-0.18248z" fill="#82d772"/><path d="M243.81018,177.60852c0,-1.60824 1.30373,-2.91197 2.91196,-2.91197c0.33288,0 0.6527,0.05586 0.95063,0.1587c0.69756,-0.78567 1.71522,-1.28074 2.84851,-1.28074c2.10308,0 3.80796,1.70488 3.80796,3.80795c0,0.61835 -0.14738,1.20228 -0.40893,1.71857c0.89496,0.49683 1.50064,1.45154 1.50064,2.54771c0,1.60824 -1.30373,2.91197 -2.91196,2.91197c-1.11253,0 -2.07933,-0.6239 -2.56964,-1.54089c-0.4159,0.3205 -0.93704,0.51113 -1.50271,0.51113c-1.36082,0 -2.46397,-1.10316 -2.46397,-2.46398c0,-0.21555 0.02768,-0.42463 0.07968,-0.62389c-1.28537,-0.30257 -2.24216,-1.45683 -2.24216,-2.83456z" fill="#388229"/></g><g><path d="M264.74966,177.75867l0.00002,-0.00175l0.00082,-0.00333l-0.00509,-0.00876l0.0428,-0.14405l0.03583,-0.14523l0.00919,-0.00634l0.00098,-0.0033l0.03324,-0.05925l0.10796,-0.12079l0.01247,-0.0361l0.02723,-0.00832l0.06437,-0.07202l0.21718,-0.01949l0.03482,-0.02399l0.02416,0.01139l0.20459,-0.06255l0.0733,0.04492l0.02768,-0.00248l0.01416,0.02439l0.01519,0.01304l0.11109,0.06809l0.03254,0.03526l0.0183,0.0357l0.02994,0.0257l0.00626,0.00941l0.01327,-0.00153l0.04255,0.04031l0.05499,0.0219l0.01314,0.04265l0.09452,0.08955l0.02842,0.0475l0.00477,0.00342l0.05989,0.07522l0.05962,0.02374l0.01141,0.03705l0.06456,0.04841l0.04246,0.05558l0.0229,0.01498l0.03971,-0.00132l0.05659,0.06433l0.07162,0.04686l0.00449,0.03966l0.05439,0.06183l0.00034,0.0007l0.15517,0.12691l0.00346,0.00494l0.00547,0.00254l0.19591,0.16823l0.24394,0.17528l0.01606,0.02017l0.02324,0.01127l0.24039,0.21362l0.24881,0.2114l0.18099,0.12471l0.01955,0.02358l0.02763,0.0134l0.24301,0.21594l0.15067,0.1318l0.04741,0.07265l0.0602,0.06148l0.08631,0.15703l0.0679,0.27672l0.00226,0.00389l-0.00071,0.0024l0.00056,0.00229l-0.00251,0.0043l-0.08613,0.28992l-0.03324,0.05925l-0.00234,0.00261l-0.00038,0.01074l-0.10713,0.10956l-0.10218,0.11432l-0.01054,0.00095l-0.00245,0.00251l-0.08241,0.05361l-0.01397,0.0051l-0.04095,0.03996l-0.0571,0.03522l-0.0475,0.04857l-0.1301,0.08464l-0.06709,0.05638l-0.00876,0.00453l-0.00634,0.00781l-0.19233,0.15253l-0.16739,0.16334l-0.00984,0.00607l-0.00674,0.00959l-0.20627,0.18841l-0.22314,0.21775l-0.00985,0.00607l-0.00674,0.00959l-0.20098,0.18358l-0.29012,0.29507l-0.14571,0.17758l-0.02545,0.01998l-0.01729,0.02749l-0.34113,0.34547l-0.12824,0.15629l-0.1615,0.23104l-0.03245,0.02982l-0.02175,0.03823l-0.38603,0.42677l-0.21076,0.29655l-0.20866,0.34259l-0.01956,0.02037l-0.01108,0.02567l-0.22058,0.30445l-0.12777,0.19899l-0.01132,0.01126l-0.0061,0.01458l-0.33395,0.47196l-0.16473,0.24063l-0.14048,0.27751l-0.00955,0.01164l-0.0042,0.01414l-0.13298,0.237l-0.01902,0.02128l-0.01024,0.02624l-0.07927,0.11783l-0.09292,0.18821l-0.1335,0.35244l-0.00947,0.01436l-0.00308,0.01642l-0.06118,0.14013l-0.11176,0.15292l-0.01189,0.04312l-0.0374,0.02433l-0.02662,0.03643l-0.04263,0.00862l-0.15701,0.10214l-0.04386,0.016l-0.29761,0.03313l-0.10895,-0.1042l-0.15246,-0.02665l-0.04716,-0.0858l-0.00669,-0.00501l-0.11267,-0.07372l-0.00133,-0.01175l-0.00451,-0.00338l-0.01501,-0.01964l-0.09118,-0.05589l-0.00266,-0.00288l-0.00381,-0.00115l-0.14149,-0.08979l-0.0199,-0.02226l-0.02754,-0.012l-0.1971,-0.1612l-0.02797,-0.014l-0.00648,0.00104l-0.01195,-0.01026l-0.01373,-0.00688l-0.09311,-0.08488l-0.02248,-0.0193l-0.08911,-0.05939l-0.03169,-0.03707l-0.04258,-0.02381l-0.16647,-0.16645l-0.12037,-0.09136l-0.00549,-0.00728l-0.00839,-0.00366l-0.35868,-0.29336l-0.01115,-0.01593l-0.01712,-0.00908l-0.24796,-0.23713l-0.21541,-0.2019l-0.00946,-0.01563l-0.01543,-0.00946l-0.17207,-0.18644l-0.09314,-0.07617l-0.02001,-0.02859l-0.0296,-0.01814l-0.22676,-0.24569l-0.13387,-0.09619l-0.0041,-0.00514l-0.00616,-0.00243l-0.14172,-0.10756l-0.08184,-0.05881l-0.11943,-0.15l-0.02462,-0.01306l0.00061,-0.01708l-0.03333,-0.04187l0.04448,-0.26719l0.00961,-0.26673l0.04192,-0.04288l0.00285,-0.01711l0.02733,-0.01376l0.15019,-0.15359l0.08241,-0.05361l0.0691,-0.02519l0.06298,-0.04097l0.02102,-0.00767l0.019,-0.01363l0.05165,-0.05739l0.20338,-0.14485l0.08089,-0.03358l0.07465,-0.04857l0.06243,-0.02276l0.04152,-0.03132l0.05988,-0.02687l0.0065,-0.02358l0.10141,-0.06597l0.09209,-0.07997l0.02839,0.00159l0.04177,-0.02717l0.02101,-0.00766l0.01148,-0.01121l0.07371,-0.04547l0.06475,-0.05895l0.21341,-0.12143l0.12851,-0.0836l0.22312,-0.16829l0.06589,-0.02957l0.05849,-0.04464l0.18463,-0.08419l0.15572,-0.1235l0.00756,-0.00362l0.00556,-0.00652l0.18145,-0.13684l0.02883,-0.01295l0.02316,-0.0226l0.13834,-0.08535l0.23199,-0.20379l0.00667,-0.00364l0.00471,-0.00614l0.19806,-0.16647l0.00876,-0.00453l0.00634,-0.00781l0.16218,-0.12861l0.11845,-0.14436l0.05051,-0.03964l0.03928,-0.05126l0.15769,-0.13254l0.20034,-0.22869l0.15841,-0.19306l0.00729,-0.00572l0.0044,-0.00817l0.1029,-0.11893l0.08209,-0.14631l0.04098,-0.04585l0.0276,-0.05451l0.00114,-0.0014l0.05827,-0.12302l0.05211,-0.06698l0.03808,-0.07523l0.07157,-0.08722l0.02004,-0.03572l0.04764,-0.1091l0.00633,-0.00867l0.00225,-0.0102l0.06952,-0.14678l0.03531,-0.12806l0.05164,-0.09629l0.03941,-0.101l0.04994,-0.07422l0.03801,-0.1205l0.05217,-0.08953l0.03909,-0.09504l0.04915,-0.07031l0.03175,-0.07272c0.03994,-0.09345 0.10136,-0.17888 0.17927,-0.2474l0.00688,-0.00941l0.0205,-0.09287l0.03047,-0.06435l0.01415,-0.06831l0.07127,-0.15549l0.07358,-0.18248z" fill="#82d772"/><path d="M261.23301,177.60852c0,-1.60824 1.30373,-2.91197 2.91197,-2.91197c0.33288,0 0.6527,0.05586 0.95063,0.1587c0.69756,-0.78567 1.71522,-1.28074 2.84852,-1.28074c2.10308,0 3.80795,1.70488 3.80795,3.80795c0,0.61835 -0.14738,1.20228 -0.40893,1.71857c0.89496,0.49683 1.50064,1.45154 1.50064,2.54771c0,1.60824 -1.30373,2.91197 -2.91196,2.91197c-1.11253,0 -2.07933,-0.6239 -2.56964,-1.54089c-0.4159,0.3205 -0.93704,0.51113 -1.50271,0.51113c-1.36082,0 -2.46397,-1.10316 -2.46397,-2.46398c0,-0.21555 0.02768,-0.42463 0.07967,-0.62389c-1.28537,-0.30257 -2.24216,-1.45683 -2.24216,-2.83456z" fill="#388229"/></g></g></g></svg>