<svg version="1.1" xmlns="http://www.w3.org/2000/svg" xmlns:xlink="http://www.w3.org/1999/xlink" width="99.20614" height="119.40827" viewBox="0,0,99.20614,119.40827"><g transform="translate(-190.39693,-120.29588)"><g data-paper-data="{&quot;isPaintingLayer&quot;:true}" stroke-miterlimit="10" stroke-dasharray="" stroke-dashoffset="0" style="mix-blend-mode: normal"><path d="M289.60307,129.31305v101.37565c0,4.97152 -4.04218,9.01545 -9.01718,9.01545h-81.17351c-4.96979,0 -9.01545,-4.04392 -9.01545,-9.01544v-101.37738c0,-4.97152 4.04566,-9.01545 9.01545,-9.01545h81.17351c4.975,0 9.01718,4.04566 9.01718,9.01719z" fill-opacity="0.74902" fill="#d2d3d4" fill-rule="nonzero" stroke="none" stroke-width="1" stroke-linecap="butt" stroke-linejoin="miter"/><path d="M287.06513,163.26163v65.07452c0,4.97152 -4.04219,9.01545 -9.01719,9.01545l-76.09761,0.25093c-4.96979,0 -9.01545,-4.04392 -9.01545,-9.01545v-65.07627z" fill-opacity="0.85882" fill="#ffffff" fill-rule="nonzero" stroke="none" stroke-width="1" stroke-linecap="butt" stroke-linejoin="miter"/><text transform="translate(197.4876,200.16945) scale(0.28036,0.28036)" font-size="40" xml:space="preserve" fill="#000000" fill-rule="nonzero" stroke="#000000" stroke-width="1" stroke-linecap="butt" stroke-linejoin="miter" stroke-miterlimit="10" stroke-dasharray="" stroke-dashoffset="0" font-family="&quot;ヒラギノ角ゴ Pro W3&quot;, &quot;Hiragino Kaku Gothic Pro&quot;, Osaka, &quot;メイリオ&quot;, Meiryo, &quot;ＭＳ Ｐゴシック&quot;, &quot;MS PGothic&quot;" font-weight="normal" text-anchor="start" style="mix-blend-mode: normal"><tspan x="0" dy="0">コンビニ</tspan></text><g fill-rule="nonzero" stroke="none" stroke-linecap="butt" stroke-linejoin="miter"><g fill="#45b5e6" stroke-width="0"><path d="M208.75315,213.93832l-6.05509,-6.05509l0.90827,-0.90827l6.05509,6.05509z"/><path d="M207.66481,204.70311c0.3036,0.3036 0.30354,0.79598 0,1.09952l-6.13918,6.13917c-0.3036,0.3036 -0.79592,0.30347 -1.09945,-0.00006l-2.54359,-2.54359c-0.3036,-0.3036 -0.3036,-0.79579 0,-1.0994l6.13911,-6.13911c0.30374,-0.30374 0.79586,-0.30366 1.09946,-0.00006l2.54358,2.54358z"/></g><text transform="translate(209.44316,210.32878) scale(0.19587,0.20747)" font-size="40" xml:space="preserve" fill="#585858" fill-rule="nonzero" stroke="none" stroke-width="1" stroke-linecap="butt" stroke-linejoin="miter" stroke-miterlimit="10" stroke-dasharray="" stroke-dashoffset="0" font-family="Sans Serif" font-weight="normal" text-anchor="start" style="mix-blend-mode: normal"><tspan x="0" dy="0">110,000G</tspan></text></g><g stroke-width="1"><g data-paper-data="{&quot;index&quot;:null}"><path d="M204.68463,214.69793c0.0443,-0.02953 0.11815,-0.01477 0.13292,0.04431l0.38401,1.58035c0,0 0.94524,0.69416 1.22588,1.18158c0.47263,0.81232 0.48739,1.47697 0.48739,1.47697c0,0 1.04864,0.31017 1.22589,1.15203c0.17723,0.84187 -0.47263,2.43699 -3.24931,2.98347c-2.7767,0.54647 -5.00691,-0.20678 -6.05557,-1.89052c-1.04864,-1.68374 0.60554,-3.69241 0.51693,-3.57425l-0.31017,-2.64377c-0.01477,-0.05909 0.05908,-0.10339 0.11814,-0.07385l1.78713,1.16681c0,0 0.66464,-0.25109 1.35881,-0.28063c0.41356,-0.02953 0.76802,0 1.10772,0.05909z" fill="#45b5e6" fill-rule="evenodd" stroke="#45b5e6" stroke-linecap="butt" stroke-linejoin="miter"/><path d="M209.58817,219.20268c-0.69417,0.56124 -1.7576,0.57601 -1.7576,0.57601" fill="#45b5e6" fill-rule="evenodd" stroke="#45b5e6" stroke-linecap="round" stroke-linejoin="round"/><path d="M209.39615,220.85687c-0.93048,0.07385 -1.50651,-0.20676 -1.50651,-0.20676" fill="#45b5e6" fill-rule="evenodd" stroke="#45b5e6" stroke-linecap="round" stroke-linejoin="round"/><path d="M197.72814,219.15836c0,0 1.27017,0.41356 1.78711,0.87141" fill="#45b5e6" fill-rule="evenodd" stroke="#45b5e6" stroke-linecap="round" stroke-linejoin="round"/><path d="M199.55957,220.54671c-0.6351,0.25108 -1.72804,0.08862 -1.72804,0.08862" fill="#45b5e6" fill-rule="evenodd" stroke="#45b5e6" stroke-linecap="round" stroke-linejoin="round"/><g fill="none" fill-rule="nonzero" stroke="none" stroke-linecap="butt" stroke-linejoin="miter" font-family="sans-serif" font-weight="normal" font-size="12" text-anchor="start"/><g fill="none" fill-rule="nonzero" stroke="none" stroke-linecap="butt" stroke-linejoin="miter" font-family="sans-serif" font-weight="normal" font-size="12" text-anchor="start"/></g><text transform="translate(209.44316,222.38156) scale(0.19588,0.20747)" font-size="40" xml:space="preserve" fill="#585858" fill-rule="nonzero" stroke="none" stroke-width="1" stroke-linecap="butt" stroke-linejoin="miter" stroke-miterlimit="10" stroke-dasharray="" stroke-dashoffset="0" font-family="Sans Serif" font-weight="normal" text-anchor="start" style="mix-blend-mode: normal"><tspan x="0" dy="0">570G</tspan></text></g><g fill-rule="nonzero" stroke="none" stroke-linecap="butt"><path d="M248.03087,215.93531c0.41438,-0.94222 1.30869,-1.59712 2.34778,-1.59712c1.4325,0 2.5951,1.24099 2.5951,2.77006c0,3.0114 -4.94287,7.00154 -4.94287,7.00154c0,0 -4.94286,-3.89088 -4.94286,-7.00154c0,-1.52908 1.1626,-2.77006 2.5951,-2.77006c1.03907,0 1.9334,0.65487 2.34776,1.59712z" fill="#45b5e6" stroke-width="0" stroke-linejoin="round"/><text transform="translate(253.23743,222.41856) scale(0.19589,0.20748)" font-size="40" xml:space="preserve" fill="#585858" fill-rule="nonzero" stroke="none" stroke-width="1" stroke-linecap="butt" stroke-linejoin="miter" stroke-miterlimit="10" stroke-dasharray="" stroke-dashoffset="0" font-family="Sans Serif" font-weight="normal" text-anchor="start" style="mix-blend-mode: normal"><tspan x="0" dy="0">7%</tspan></text></g><g fill-rule="nonzero" stroke="none" stroke-linecap="butt" stroke-linejoin="miter"><g fill="#45b5e6" stroke-width="0"><path d="M241.85852,206.60629l5.64578,-1.34827l3.23916,3.23917l-1.34825,5.64577l-3.23077,-3.23077l-0.02081,-1.06159h-1.04078z"/><path d="M254.06963,202.84012l-4.99544,4.99545l-0.90828,-0.90827l4.99544,-4.99545z"/></g><text transform="translate(252.97427,210.4311) scale(0.19589,0.20748)" font-size="40" xml:space="preserve" fill="#585858" fill-rule="nonzero" stroke="none" stroke-width="1" stroke-linecap="butt" stroke-linejoin="miter" stroke-miterlimit="10" stroke-dasharray="" stroke-dashoffset="0" font-family="Sans Serif" font-weight="normal" text-anchor="start" style="mix-blend-mode: normal"><tspan x="0" dy="0">800G</tspan></text></g><g><path d="M194.8904,186.32394v-60.49176h90.21921v60.49176z" data-paper-data="{&quot;index&quot;:null}" fill="#d1ca76" fill-rule="nonzero" stroke="#666666" stroke-width="2" stroke-linecap="butt" stroke-linejoin="miter"/><g fill-rule="evenodd" stroke-width="0.5"><path d="M218.03383,139.99982c0.11688,-0.07792 0.31167,-0.03896 0.35063,0.11688l1.01295,4.16867c0,0 2.49341,1.8311 3.23364,3.11676c1.2467,2.14278 1.28566,3.89596 1.28566,3.89596c0,0 2.76613,0.81815 3.23364,3.03884c0.46751,2.2207 -1.2467,6.42833 -8.5711,7.86983c-7.3244,1.44151 -13.20729,-0.54543 -15.97342,-4.98682c-2.76613,-4.44139 1.59734,-9.73989 1.36359,-9.42821l-0.81815,-6.97376c-0.03896,-0.15584 0.15584,-0.27272 0.31168,-0.19479l4.71411,3.0778c0,0 1.75317,-0.66231 3.58427,-0.74023c1.09087,-0.07792 2.0259,0 2.92197,0.15584z" fill="#ffab19" stroke="#001026" stroke-linecap="butt" stroke-linejoin="miter"/><path d="M223.79985,151.45393c0,0 2.6882,0.70127 3.15572,2.92197c0.46751,2.2207 -1.40254,6.23353 -8.64902,7.63608c-9.42821,1.94798 -13.90856,-3.6622 -11.29827,-7.79191c2.61029,-4.16867 7.09064,-0.62336 10.36324,-0.85711c2.80509,-0.1948 3.11677,-2.64925 6.42833,-1.90902z" fill="#ffffff" stroke="none" stroke-linecap="butt" stroke-linejoin="miter"/><path d="M211.52759,155.6226c0,-0.15584 0.15583,-0.27272 0.31168,-0.23376c0.74023,0.27272 2.84405,0.89606 5.18162,1.05191c2.10381,0.11688 3.35052,0 3.93491,-0.11688c0.1948,-0.03896 0.35064,0.15584 0.27272,0.35064c-0.35064,1.05191 -1.8311,3.97387 -5.92185,3.74012c-3.54532,-0.3896 -3.89596,-2.883 -3.77908,-4.79202z" fill="#ffffff" stroke="#001026" stroke-linecap="round" stroke-linejoin="round"/><path d="M230.9684,151.88248c-1.8311,1.48047 -4.63619,1.51942 -4.63619,1.51942" fill="none" stroke="#001026" stroke-linecap="round" stroke-linejoin="round"/><path d="M230.46193,156.24595c-2.45445,0.1948 -3.97387,-0.54544 -3.97387,-0.54544" fill="none" stroke="#001026" stroke-linecap="round" stroke-linejoin="round"/><path d="M217.21568,152.35c0.81815,0 1.67526,0.07792 1.71422,0.35064c0.03896,0.54543 -0.54543,1.6363 -1.16879,1.67526c-0.70127,0.07792 -2.33757,-0.89606 -2.33757,-1.51942c-0.03896,-0.46751 1.01295,-0.50647 1.79214,-0.50647z" fill="#001026" stroke="#001026" stroke-linecap="round" stroke-linejoin="round"/><path d="M199.68388,151.7656c0,0 3.35052,1.09087 4.71411,2.29862" fill="none" stroke="#001026" stroke-linecap="round" stroke-linejoin="round"/><path d="M204.51487,155.4278c-1.67526,0.66231 -4.55827,0.23376 -4.55827,0.23376" fill="none" stroke="#001026" stroke-linecap="round" stroke-linejoin="round"/><g><path d="M221.81291,147.79173c1.12983,1.75318 1.16878,3.74012 0.07792,4.44139c-1.09087,0.70127 -2.88301,-0.11688 -4.05179,-1.87006c-1.12983,-1.75318 -1.16878,-3.74012 -0.07791,-4.44138c1.09087,-0.74023 2.92197,0.11688 4.05179,1.87006z" fill="#ffffff" stroke="#001026" stroke-linecap="round" stroke-linejoin="round"/><path d="M221.65707,150.01242c0,0.42855 -0.31168,0.77919 -0.70128,0.77919c-0.3896,0 -0.70127,-0.35064 -0.70127,-0.77919c0,-0.42855 0.31167,-0.77919 0.70127,-0.77919c0.3896,0 0.70128,0.35064 0.70128,0.77919" fill="#001026" stroke="none" stroke-linecap="butt" stroke-linejoin="miter"/></g><g><path d="M212.15094,148.8826c1.16879,1.71422 1.09086,3.81804 0.03895,4.55827c-1.28566,0.74023 -2.99988,0.1948 -4.16867,-1.51942c-1.20774,-1.71422 -1.28566,-3.93491 -0.07792,-4.79202c1.20774,-0.89607 3.03885,0.03896 4.20764,1.75318z" fill="#ffffff" stroke="#001026" stroke-linecap="round" stroke-linejoin="round"/><path d="M211.91718,151.14225c0,0.42855 -0.31168,0.77919 -0.70127,0.77919c-0.3896,0 -0.70127,-0.35064 -0.70127,-0.77919c0,-0.42855 0.31168,-0.7792 0.70127,-0.7792c0.3896,0.03896 0.70127,0.35064 0.70127,0.7792" fill="#001026" stroke="none" stroke-linecap="butt" stroke-linejoin="miter"/></g></g><path d="M195.90987,183.26359v-21.93802h53.98388v21.93802z" fill="#d1d5da" fill-rule="nonzero" stroke="#666666" stroke-width="1" stroke-linecap="butt" stroke-linejoin="miter"/><path d="M195.90987,185.40644v-3.6523h88.18031v3.6523z" fill="#c0c0c0" fill-rule="nonzero" stroke="none" stroke-width="0" stroke-linecap="butt" stroke-linejoin="miter"/><g fill="#a59d66" fill-rule="nonzero" stroke="#666666" stroke-width="1.5" stroke-linecap="butt" stroke-linejoin="miter"><path d="M232.34663,160.84711v-7.5162h15.91667v7.5162z"/><path d="M232.34663,153.26774v-7.5162h15.91667v7.5162z"/><path d="M232.34663,145.68838v-7.5162h15.91667v7.5162z"/></g><path d="M239.10544,141.5005c1.38629,0.19851 2.4098,1.06 2.28605,1.92418c-0.12375,0.86418 -1.34788,1.40382 -2.73418,1.20531c-1.38629,-0.19851 -2.40979,-1.06 -2.28604,-1.92418c0.12375,-0.86418 1.34788,-1.40382 2.73417,-1.20531z" fill="#914e00" fill-rule="nonzero" stroke="#666666" stroke-width="0" stroke-linecap="butt" stroke-linejoin="miter"/><path d="M238.05782,141.59634c1.38629,0.20146 2.4098,1.07572 2.28605,1.95271c-0.12375,0.87699 -1.34789,1.42464 -2.73418,1.22318c-1.38629,-0.20146 -2.40979,-1.07572 -2.28604,-1.95272c0.12375,-0.87699 1.34788,-1.42463 2.73418,-1.22317z" fill="#aa5b00" fill-rule="nonzero" stroke="#666666" stroke-width="0" stroke-linecap="butt" stroke-linejoin="miter"/><path d="M236.39116,141.88145c1.38629,0.19851 2.40979,1.06 2.28604,1.92418c-0.12375,0.86418 -1.34788,1.40381 -2.73417,1.2053c-1.38629,-0.19851 -2.4098,-1.06 -2.28605,-1.92418c0.12375,-0.86418 1.34788,-1.40381 2.73418,-1.2053z" fill="#d27000" fill-rule="nonzero" stroke="#666666" stroke-width="0" stroke-linecap="butt" stroke-linejoin="miter"/><path d="M243.39115,141.69097c1.38629,0.19851 2.4098,1.06 2.28605,1.92419c-0.12375,0.86418 -1.34789,1.40382 -2.73418,1.2053c-1.38629,-0.19851 -2.40979,-1.06 -2.28604,-1.92418c0.12375,-0.86418 1.34788,-1.40382 2.73417,-1.20531z" fill="#aa5b00" fill-rule="nonzero" stroke="#666666" stroke-width="0" stroke-linecap="butt" stroke-linejoin="miter"/><path d="M245.10544,141.83383c1.38629,0.19851 2.4098,1.06 2.28605,1.92418c-0.12375,0.86418 -1.34788,1.40382 -2.73418,1.2053c-1.38629,-0.19851 -2.40979,-1.06 -2.28604,-1.92418c0.12375,-0.86418 1.34788,-1.40382 2.73417,-1.2053z" fill="#d27000" fill-rule="nonzero" stroke="#666666" stroke-width="0" stroke-linecap="butt" stroke-linejoin="miter"/><g fill-rule="nonzero" stroke-linejoin="miter"><g fill="none" stroke="#ae7b10" stroke-width="0.5" stroke-linecap="round"><path d="M235.70179,148.27737l-0.79304,1.9372l-0.33598,-2.27722"/><path d="M237.46257,148.09202l-0.6796,2.34771l-0.71049,-3.0582"/><path d="M237.33254,147.21035l-1.20475,4.10849l-2.0079,-3.08909"/></g><path d="M234.71907,152.51866l-0.65824,-3.2912h3.68614l-0.65824,3.2912z" fill="#d1d1d1" stroke="#666666" stroke-width="0" stroke-linecap="butt"/></g><g fill-rule="nonzero" stroke-linejoin="miter"><g fill="none" stroke="#ae7b10" stroke-width="0.5" stroke-linecap="round"><path d="M240.33543,148.27737l-0.79304,1.9372l-0.33598,-2.27722"/><path d="M242.0962,148.09202l-0.6796,2.34771l-0.71049,-3.0582"/><path d="M240.06141,147.8294l0.79525,3.53706l-2.00791,-3.08909"/></g><path d="M239.3527,152.51866l-0.65824,-3.2912h3.68614l-0.65824,3.2912z" fill="#d1d1d1" stroke="#666666" stroke-width="0" stroke-linecap="butt"/></g><g data-paper-data="{&quot;index&quot;:null}" fill-rule="nonzero" stroke-linejoin="miter"><g fill="none" stroke="#ae7b10" stroke-width="0.5" stroke-linecap="round"><path d="M246.22801,147.93735l-0.33598,2.27722l-0.79304,-1.9372"/><path d="M244.72831,147.38153l-0.71049,3.0582l-0.6796,-2.34771"/><path d="M245.6809,147.99166l-0.96029,3.23194l-1.20475,-4.10849"/></g><path d="M243.71205,152.51866l-0.65824,-3.2912h3.68614l-0.65824,3.2912z" fill="#d1d1d1" stroke="#666666" stroke-width="0" stroke-linecap="butt"/></g><g fill="none" fill-rule="nonzero" stroke-linecap="round" stroke-linejoin="miter"><path d="M235.47882,158.57745l2.17663,-1.3921" stroke="#d19754" stroke-width="1"/><path d="M234.78121,159.0329l1.95959,-1.2504" stroke="#ffb899" stroke-width="2"/></g><g fill="none" fill-rule="nonzero" stroke-linecap="round" stroke-linejoin="miter"><path d="M240.67728,157.18534l-2.17663,1.3921" stroke="#d19754" stroke-width="1"/><path d="M239.76264,157.7825l-1.95959,1.2504" stroke="#ffb899" stroke-width="2"/></g><g fill="none" fill-rule="nonzero" stroke-linecap="round" stroke-linejoin="miter"><path d="M243.69912,157.18534l-2.17663,1.3921" stroke="#d19754" stroke-width="1"/><path d="M240.82489,159.0329l1.95959,-1.2504" stroke="#ffb899" stroke-width="2"/></g><g fill="none" fill-rule="nonzero" stroke-linecap="round" stroke-linejoin="miter"><path d="M244.54433,158.57744l2.17663,-1.3921" stroke="#d19754" stroke-width="1"/><path d="M245.80631,157.7825l-1.95959,1.2504" stroke="#ffb899" stroke-width="2"/></g><path d="M273.68496,180.90842v-39.57143h9.50352v39.57143z" fill="#b28059" fill-rule="nonzero" stroke="#b28059" stroke-width="2" stroke-linecap="butt" stroke-linejoin="miter"/><path d="M195.90987,135.68769v-8.93801h88.18031v8.93801z" data-paper-data="{&quot;index&quot;:null}" fill="#ffffff" fill-rule="nonzero" stroke="none" stroke-width="0" stroke-linecap="butt" stroke-linejoin="miter"/><path d="M195.90987,135.68769v-3.22373h88.18031v3.22373z" data-paper-data="{&quot;index&quot;:null}" fill="#05bdff" fill-rule="nonzero" stroke="none" stroke-width="0" stroke-linecap="butt" stroke-linejoin="miter"/><path d="M195.90987,129.83055v-3.08087h88.18031v3.08087z" data-paper-data="{&quot;index&quot;:null}" fill="#ffe600" fill-rule="nonzero" stroke="none" stroke-width="0" stroke-linecap="butt" stroke-linejoin="miter"/></g><path d="M286.08835,126.38078v59.3949c0,0.9386 -0.76314,1.70207 -1.7024,1.70207h-88.77223c-0.93827,0 -1.70207,-0.76347 -1.70207,-1.70207v-59.39522c0,-0.9386 0.7638,-1.70208 1.70207,-1.70208h88.77223c0.93926,0 1.7024,0.7638 1.7024,1.7024z" fill="none" fill-rule="nonzero" stroke="#666666" stroke-width="2" stroke-linecap="butt" stroke-linejoin="miter"/><g fill-rule="nonzero" stroke="none" stroke-linecap="butt" stroke-linejoin="miter"><text transform="translate(252.9769,234.29901) scale(0.19588,0.20747)" font-size="40" xml:space="preserve" fill="#585858" fill-rule="nonzero" stroke="none" stroke-width="1" stroke-linecap="butt" stroke-linejoin="miter" stroke-miterlimit="10" stroke-dasharray="" stroke-dashoffset="0" font-family="Sans Serif" font-weight="normal" text-anchor="start" style="mix-blend-mode: normal"><tspan x="0" dy="0">-9</tspan></text><path d="M244.4761,236.41881l1.7486,-4.14478l-2.20732,-0.69125l5.87862,-5.12252l-1.71443,4.10799l2.18486,0.71764z" fill="#e6c245" stroke-width="0"/></g><g fill-rule="nonzero" stroke="none" stroke-linecap="butt" stroke-linejoin="miter"><text transform="translate(209.44316,234.20486) scale(0.19588,0.20747)" font-size="40" xml:space="preserve" fill="#585858" fill-rule="nonzero" stroke="none" stroke-width="1" stroke-linecap="butt" stroke-linejoin="miter" stroke-miterlimit="10" stroke-dasharray="" stroke-dashoffset="0" font-family="Sans Serif" font-weight="normal" text-anchor="start" style="mix-blend-mode: normal"><tspan x="0" dy="0">-6</tspan></text><path d="M200.35963,232.99861c0,-1.82173 3.29853,-6.42346 3.29853,-6.42346c0,0 3.29853,4.60173 3.29853,6.42346c0,1.82173 -1.4768,3.29853 -3.29853,3.29853c-1.82173,0 -3.29853,-1.4768 -3.29853,-3.29853z" fill="#0079cd" stroke-width="NaN"/></g></g></g></svg>