<svg version="1.1" xmlns="http://www.w3.org/2000/svg" xmlns:xlink="http://www.w3.org/1999/xlink" width="139.04814" height="135.48115" viewBox="0,0,139.04814,135.48115"><g transform="translate(-21.52567,-146.57599)"><g data-paper-data="{&quot;isPaintingLayer&quot;:true}" fill-rule="nonzero" stroke-width="1" stroke-linecap="butt" stroke-linejoin="miter" stroke-miterlimit="10" stroke-dasharray="" stroke-dashoffset="0" style="mix-blend-mode: normal"><g><path d="M160.57369,273.2491c0,4.42972 -3.60167,8.03293 -8.03447,8.03293h-122.98062c-4.42816,0 -8.03293,-3.60319 -8.03293,-8.03293v-21.10146c0,-4.42972 3.60475,-8.03294 8.03293,-8.03294h122.98062c4.43281,0 8.03447,3.60475 8.03447,8.03447z" fill-opacity="0.74902" fill="#998a96" stroke="none"/><g fill="#ffffff" stroke="#ffffff" font-family="&quot;ヒラギノ角ゴ Pro W3&quot;, &quot;Hiragino Kaku Gothic Pro&quot;, Osaka, &quot;メイリオ&quot;, Meiryo, &quot;ＭＳ Ｐゴシック&quot;, &quot;MS PGothic&quot;" font-weight="normal" font-size="40" text-anchor="start"><text transform="translate(65.04728,270.49908) scale(0.65006,0.65006)" font-size="40" xml:space="preserve" fill="#ffffff" fill-rule="nonzero" stroke="#ffffff" stroke-width="1" stroke-linecap="butt" stroke-linejoin="miter" stroke-miterlimit="10" stroke-dasharray="" stroke-dashoffset="0" font-family="&quot;ヒラギノ角ゴ Pro W3&quot;, &quot;Hiragino Kaku Gothic Pro&quot;, Osaka, &quot;メイリオ&quot;, Meiryo, &quot;ＭＳ Ｐゴシック&quot;, &quot;MS PGothic&quot;" font-weight="normal" text-anchor="start" style="mix-blend-mode: normal"><tspan x="0" dy="0">設定</tspan></text></g></g><g><path d="M160.57381,225.02332c0,4.42972 -3.60167,8.03293 -8.03447,8.03293h-122.98062c-4.42816,0 -8.03293,-3.60319 -8.03293,-8.03293v-21.10146c0,-4.42972 3.60475,-8.03294 8.03293,-8.03294h122.98062c4.43281,0 8.03447,3.60475 8.03447,8.03447z" fill-opacity="0.74902" fill="#998a96" stroke="none"/><g fill="#ffffff" stroke="#ffffff" font-family="&quot;ヒラギノ角ゴ Pro W3&quot;, &quot;Hiragino Kaku Gothic Pro&quot;, Osaka, &quot;メイリオ&quot;, Meiryo, &quot;ＭＳ Ｐゴシック&quot;, &quot;MS PGothic&quot;" font-weight="normal" font-size="40" text-anchor="start"><text transform="translate(39.045,222.2733) scale(0.65006,0.65006)" font-size="40" xml:space="preserve" fill="#ffffff" fill-rule="nonzero" stroke="#ffffff" stroke-width="1" stroke-linecap="butt" stroke-linejoin="miter" stroke-miterlimit="10" stroke-dasharray="" stroke-dashoffset="0" font-family="&quot;ヒラギノ角ゴ Pro W3&quot;, &quot;Hiragino Kaku Gothic Pro&quot;, Osaka, &quot;メイリオ&quot;, Meiryo, &quot;ＭＳ Ｐゴシック&quot;, &quot;MS PGothic&quot;" font-weight="normal" text-anchor="start" style="mix-blend-mode: normal"><tspan x="0" dy="0">続きから</tspan></text></g></g><g><path d="M160.57381,176.79755c0,4.42972 -3.60167,8.03293 -8.03447,8.03293h-122.98062c-4.42816,0 -8.03293,-3.60319 -8.03293,-8.03293v-21.10146c0,-4.42972 3.60475,-8.03294 8.03293,-8.03294h122.98062c4.43281,0 8.03447,3.60475 8.03447,8.03447z" fill-opacity="0.74902" fill="#998a96" stroke="none"/><text transform="translate(39.045,174.04753) scale(0.65006,0.65006)" font-size="40" xml:space="preserve" fill="#ffffff" fill-rule="nonzero" stroke="#ffffff" stroke-width="1" stroke-linecap="butt" stroke-linejoin="miter" stroke-miterlimit="10" stroke-dasharray="" stroke-dashoffset="0" font-family="&quot;ヒラギノ角ゴ Pro W3&quot;, &quot;Hiragino Kaku Gothic Pro&quot;, Osaka, &quot;メイリオ&quot;, Meiryo, &quot;ＭＳ Ｐゴシック&quot;, &quot;MS PGothic&quot;" font-weight="normal" text-anchor="start" style="mix-blend-mode: normal"><tspan x="0" dy="0">初めから</tspan></text></g></g></g></svg>