<svg version="1.1" xmlns="http://www.w3.org/2000/svg" xmlns:xlink="http://www.w3.org/1999/xlink" width="99.20614" height="119.40827" viewBox="0,0,99.20614,119.40827"><defs><linearGradient x1="240" y1="125.83218" x2="240" y2="186.32394" gradientUnits="userSpaceOnUse" id="color-1"><stop offset="0" stop-color="#bfa84d"/><stop offset="1" stop-color="#8f7d1e"/></linearGradient><linearGradient x1="240.35688" y1="125.68792" x2="240.35688" y2="145.12125" gradientUnits="userSpaceOnUse" id="color-2"><stop offset="0" stop-color="#fbff00"/><stop offset="1" stop-color="#fbff00" stop-opacity="0"/></linearGradient></defs><g transform="translate(-190.39693,-120.29588)"><g data-paper-data="{&quot;isPaintingLayer&quot;:true}" stroke-miterlimit="10" stroke-dasharray="" stroke-dashoffset="0" style="mix-blend-mode: normal"><path d="M289.60307,129.31305v101.37565c0,4.97152 -4.04218,9.01545 -9.01718,9.01545h-81.17351c-4.96979,0 -9.01545,-4.04392 -9.01545,-9.01544v-101.37738c0,-4.97152 4.04566,-9.01545 9.01545,-9.01545h81.17351c4.975,0 9.01718,4.04566 9.01718,9.01719z" fill-opacity="0.74902" fill="#d2d3d4" fill-rule="nonzero" stroke="none" stroke-width="1" stroke-linecap="butt" stroke-linejoin="miter"/><path d="M287.06513,163.26163v65.07452c0,4.97152 -4.04219,9.01545 -9.01719,9.01545l-76.09761,0.25093c-4.96979,0 -9.01545,-4.04392 -9.01545,-9.01545v-65.07627z" fill-opacity="0.85882" fill="#ffffff" fill-rule="nonzero" stroke="none" stroke-width="1" stroke-linecap="butt" stroke-linejoin="miter"/><text transform="translate(197.4876,200.16945) scale(0.28036,0.28036)" font-size="40" xml:space="preserve" fill="#000000" fill-rule="nonzero" stroke="#000000" stroke-width="1" stroke-linecap="butt" stroke-linejoin="miter" stroke-miterlimit="10" stroke-dasharray="" stroke-dashoffset="0" font-family="&quot;ヒラギノ角ゴ Pro W3&quot;, &quot;Hiragino Kaku Gothic Pro&quot;, Osaka, &quot;メイリオ&quot;, Meiryo, &quot;ＭＳ Ｐゴシック&quot;, &quot;MS PGothic&quot;" font-weight="normal" text-anchor="start" style="mix-blend-mode: normal"><tspan x="0" dy="0">和風な客室</tspan></text><g fill-rule="nonzero" stroke="none" stroke-linecap="butt" stroke-linejoin="miter"><g fill="#45b5e6" stroke-width="0"><path d="M208.75315,213.93832l-6.05509,-6.05509l0.90827,-0.90827l6.05509,6.05509z"/><path d="M207.66481,204.70311c0.3036,0.3036 0.30354,0.79598 0,1.09952l-6.13918,6.13917c-0.3036,0.3036 -0.79592,0.30347 -1.09945,-0.00006l-2.54359,-2.54359c-0.3036,-0.3036 -0.3036,-0.79579 0,-1.0994l6.13911,-6.13911c0.30374,-0.30374 0.79586,-0.30366 1.09946,-0.00006l2.54358,2.54358z"/></g><text transform="translate(209.44316,210.32878) scale(0.19587,0.20747)" font-size="40" xml:space="preserve" fill="#585858" fill-rule="nonzero" stroke="none" stroke-width="1" stroke-linecap="butt" stroke-linejoin="miter" stroke-miterlimit="10" stroke-dasharray="" stroke-dashoffset="0" font-family="Sans Serif" font-weight="normal" text-anchor="start" style="mix-blend-mode: normal"><tspan x="0" dy="0">170,000G</tspan></text></g><g stroke-width="1"><g data-paper-data="{&quot;index&quot;:null}"><path d="M204.68463,214.69793c0.0443,-0.02953 0.11815,-0.01477 0.13292,0.04431l0.38401,1.58035c0,0 0.94524,0.69416 1.22588,1.18158c0.47263,0.81232 0.48739,1.47697 0.48739,1.47697c0,0 1.04864,0.31017 1.22589,1.15203c0.17723,0.84187 -0.47263,2.43699 -3.24931,2.98347c-2.7767,0.54647 -5.00691,-0.20678 -6.05557,-1.89052c-1.04864,-1.68374 0.60554,-3.69241 0.51693,-3.57425l-0.31017,-2.64377c-0.01477,-0.05909 0.05908,-0.10339 0.11814,-0.07385l1.78713,1.16681c0,0 0.66464,-0.25109 1.35881,-0.28063c0.41356,-0.02953 0.76802,0 1.10772,0.05909z" fill="#45b5e6" fill-rule="evenodd" stroke="#45b5e6" stroke-linecap="butt" stroke-linejoin="miter"/><path d="M209.58817,219.20268c-0.69417,0.56124 -1.7576,0.57601 -1.7576,0.57601" fill="#45b5e6" fill-rule="evenodd" stroke="#45b5e6" stroke-linecap="round" stroke-linejoin="round"/><path d="M209.39615,220.85687c-0.93048,0.07385 -1.50651,-0.20676 -1.50651,-0.20676" fill="#45b5e6" fill-rule="evenodd" stroke="#45b5e6" stroke-linecap="round" stroke-linejoin="round"/><path d="M197.72814,219.15836c0,0 1.27017,0.41356 1.78711,0.87141" fill="#45b5e6" fill-rule="evenodd" stroke="#45b5e6" stroke-linecap="round" stroke-linejoin="round"/><path d="M199.55957,220.54671c-0.6351,0.25108 -1.72804,0.08862 -1.72804,0.08862" fill="#45b5e6" fill-rule="evenodd" stroke="#45b5e6" stroke-linecap="round" stroke-linejoin="round"/><g fill="none" fill-rule="nonzero" stroke="none" stroke-linecap="butt" stroke-linejoin="miter" font-family="sans-serif" font-weight="normal" font-size="12" text-anchor="start"/><g fill="none" fill-rule="nonzero" stroke="none" stroke-linecap="butt" stroke-linejoin="miter" font-family="sans-serif" font-weight="normal" font-size="12" text-anchor="start"/></g><text transform="translate(209.44316,222.38156) scale(0.19588,0.20747)" font-size="40" xml:space="preserve" fill="#585858" fill-rule="nonzero" stroke="none" stroke-width="1" stroke-linecap="butt" stroke-linejoin="miter" stroke-miterlimit="10" stroke-dasharray="" stroke-dashoffset="0" font-family="Sans Serif" font-weight="normal" text-anchor="start" style="mix-blend-mode: normal"><tspan x="0" dy="0">850G</tspan></text></g><g fill-rule="nonzero" stroke="none" stroke-linecap="butt"><path d="M248.03087,215.93531c0.41438,-0.94222 1.30869,-1.59712 2.34778,-1.59712c1.4325,0 2.5951,1.24099 2.5951,2.77006c0,3.0114 -4.94287,7.00154 -4.94287,7.00154c0,0 -4.94286,-3.89088 -4.94286,-7.00154c0,-1.52908 1.1626,-2.77006 2.5951,-2.77006c1.03907,0 1.9334,0.65487 2.34776,1.59712z" fill="#45b5e6" stroke-width="0" stroke-linejoin="round"/><text transform="translate(253.23743,222.41856) scale(0.19589,0.20748)" font-size="40" xml:space="preserve" fill="#585858" fill-rule="nonzero" stroke="none" stroke-width="1" stroke-linecap="butt" stroke-linejoin="miter" stroke-miterlimit="10" stroke-dasharray="" stroke-dashoffset="0" font-family="Sans Serif" font-weight="normal" text-anchor="start" style="mix-blend-mode: normal"><tspan x="0" dy="0">15%</tspan></text></g><g fill-rule="nonzero" stroke="none" stroke-linecap="butt" stroke-linejoin="miter"><g fill="#45b5e6" stroke-width="0"><path d="M241.85852,206.60629l5.64578,-1.34827l3.23916,3.23917l-1.34825,5.64577l-3.23077,-3.23077l-0.02081,-1.06159h-1.04078z"/><path d="M254.06963,202.84012l-4.99544,4.99545l-0.90828,-0.90827l4.99544,-4.99545z"/></g><text transform="translate(252.97427,210.4311) scale(0.19589,0.20748)" font-size="40" xml:space="preserve" fill="#585858" fill-rule="nonzero" stroke="none" stroke-width="1" stroke-linecap="butt" stroke-linejoin="miter" stroke-miterlimit="10" stroke-dasharray="" stroke-dashoffset="0" font-family="Sans Serif" font-weight="normal" text-anchor="start" style="mix-blend-mode: normal"><tspan x="0" dy="0">1,200G</tspan></text></g><g fill-rule="nonzero" stroke-linejoin="miter"><path d="M224.64043,171.37583v-30.59554h30.71921v30.59554z" fill-opacity="0.30196" fill="#b2ffd0" stroke="#8ab6c6" stroke-width="0" stroke-linecap="butt"/><path d="M194.8904,186.32394v-60.49176h90.21921v60.49176zM239.96843,171.04174c8.28427,0 15,-6.71573 15,-15c0,-8.28427 -6.71573,-15 -15,-15c-8.28427,0 -15,6.71573 -15,15c0,8.28427 6.71573,15 15,15z" data-paper-data="{&quot;index&quot;:null}" fill="url(#color-1)" stroke="#666666" stroke-width="2" stroke-linecap="butt"/><path d="M224.91848,156.04174c0,-8.28427 6.76573,-15.05 15.05,-15.05c8.28427,0 15.05,6.76573 15.05,15.05c0,8.28427 -6.76573,15.05 -15.05,15.05c-8.28427,0 -15.05,-6.76573 -15.05,-15.05z" data-paper-data="{&quot;noHover&quot;:false,&quot;origItem&quot;:[&quot;Path&quot;,{&quot;applyMatrix&quot;:true,&quot;segments&quot;:[[[479.93697,389.92736],[-16.56854,0],[16.56854,0]],[[509.93697,359.92736],[0,16.56854],[0,-16.56854]],[[479.93697,329.92736],[16.56854,0],[-16.56854,0]],[[449.93697,359.92736],[0,-16.56854],[0,16.56854]]],&quot;closed&quot;:true,&quot;fillColor&quot;:[0,0,0,1]}]}" fill-opacity="0.6" fill="#f2f2f2" stroke="none" stroke-width="0.5" stroke-linecap="butt"/><path d="M263.4173,180.47279l-11.64407,0.02125c0,0 0.91891,-6.32888 0.85234,-9.28925c-0.0603,-2.68181 -1.28793,-6.28575 -1.28793,-6.28575" data-paper-data="{&quot;index&quot;:null}" fill="none" stroke="#b36225" stroke-width="2.5" stroke-linecap="round"/><path d="M258.74259,178.35859c2.86336,0 5.18458,0.24735 5.18458,0.55246c0,0.30511 -2.32122,0.55246 -5.18458,0.55246c-2.86336,0 -5.18458,-0.24735 -5.18458,-0.55246c0,-0.30511 2.32122,-0.55246 5.18458,-0.55246z" data-paper-data="{&quot;index&quot;:null}" fill="#630000" stroke="#630000" stroke-width="2" stroke-linecap="butt"/><path d="M234.80313,175.17593v6.41967h-26.81953v-6.41967z" data-paper-data="{&quot;index&quot;:null}" fill="#dcbbbb" stroke="none" stroke-width="0" stroke-linecap="butt"/><path d="M225.89403,174.72138v6.41967h-8.09226v-6.41967z" data-paper-data="{&quot;index&quot;:null}" fill="#db6c58" stroke="none" stroke-width="0" stroke-linecap="butt"/><path d="M209.25444,174.83384v4.99223c0,0.38139 -0.3101,0.69163 -0.69176,0.69163h-9.83349c-0.38126,0 -0.69163,-0.31023 -0.69163,-0.69163v-4.99237c0,-0.38139 0.31037,-0.69162 0.69163,-0.69162h9.83349c0.38166,0 0.69176,0.31036 0.69176,0.69176z" fill="#fcfeff" stroke="none" stroke-width="1" stroke-linecap="butt"/><path d="M237.39385,180.2399v0.8589c0,0.38139 -0.3101,0.69162 -0.69176,0.69162h-38.70016c-0.38126,0 -0.69162,-0.31023 -0.69162,-0.69162v-0.85904c0,-0.38139 0.31036,-0.69162 0.69162,-0.69162h38.70016c0.38166,0 0.69176,0.31036 0.69176,0.69176z" fill="#b36225" stroke="none" stroke-width="1" stroke-linecap="butt"/><path d="M268.41111,181.50793v-8.68521l-8.43461,-0.02246l24.14543,-0.02054l-5.43,0.02054l0.181,8.68906" fill="none" stroke="#7d451a" stroke-width="2.5" stroke-linecap="round"/><path d="M195.91011,185.40644v-3.6523h88.18031v3.6523z" data-paper-data="{&quot;index&quot;:null}" fill="#c0c0c0" stroke="none" stroke-width="0" stroke-linecap="butt"/><g fill="none" stroke="#666666" stroke-width="1.25"><path d="M232.41932,169.30608v-26.5132c0,0 4.17339,-2.13813 7.61052,-2.09317c4.01723,0.05255 7.55084,2.09317 7.55084,2.09317v26.45604c0,0 -3.69499,2.18553 -7.608,2.15245c-4.34161,-0.0367 -7.55336,-2.09528 -7.55336,-2.09528z" stroke-linecap="butt"/><path d="M255.27858,156.07806h-30.55716" stroke-linecap="round"/><path d="M240,171.35664v-30.55716" stroke-linecap="round"/><path d="M226.70587,148.35434h26.25409c0,0 2.08145,3.61874 2.03649,7.68744c-0.05255,4.43828 -1.93122,7.47392 -1.93122,7.47392h-26.30219c0,0 -2.26245,-3.69498 -2.22937,-7.608c0.03671,-4.34162 2.1722,-7.55336 2.1722,-7.55336z" stroke-linecap="butt"/></g><g><g stroke="#666666"><path d="M233.91541,132.96235c3.42751,-1.95616 8.05639,-2.0155 12.0846,-0.34468c1.60905,0.6674 0.91373,14.92024 -6.03598,14.83691c-7.03252,-0.08433 -7.14808,-13.86474 -6.04864,-14.49222z" fill="url(#color-2)" stroke-width="0" stroke-linecap="butt"/><path d="M240.01007,125.86821v7.078" fill="none" stroke-width="2" stroke-linecap="round"/></g><path d="M235.41669,139.07806v-6.91666h9.16667v6.91666z" fill="#ffda5b" stroke="#ffda5a" stroke-width="2" stroke-linecap="butt"/><path d="M235.41669,132.07806v-1.5h9.16667v1.5z" fill="#666666" stroke="#666666" stroke-width="2" stroke-linecap="butt"/></g></g><path d="M286.08835,126.38078v59.3949c0,0.9386 -0.76314,1.70207 -1.7024,1.70207h-88.77223c-0.93827,0 -1.70207,-0.76347 -1.70207,-1.70207v-59.39522c0,-0.9386 0.7638,-1.70208 1.70207,-1.70208h88.77223c0.93926,0 1.7024,0.7638 1.7024,1.7024z" fill="none" fill-rule="nonzero" stroke="#666666" stroke-width="2" stroke-linecap="butt" stroke-linejoin="miter"/><g fill-rule="nonzero" stroke="none" stroke-linecap="butt" stroke-linejoin="miter"><text transform="translate(252.9769,234.29901) scale(0.19588,0.20747)" font-size="40" xml:space="preserve" fill="#585858" fill-rule="nonzero" stroke="none" stroke-width="1" stroke-linecap="butt" stroke-linejoin="miter" stroke-miterlimit="10" stroke-dasharray="" stroke-dashoffset="0" font-family="Sans Serif" font-weight="normal" text-anchor="start" style="mix-blend-mode: normal"><tspan x="0" dy="0">-10</tspan></text><path d="M244.4761,236.41881l1.7486,-4.14478l-2.20732,-0.69125l5.87862,-5.12252l-1.71443,4.10799l2.18486,0.71764z" fill="#e6c245" stroke-width="0"/></g><g fill-rule="nonzero" stroke="none" stroke-linecap="butt" stroke-linejoin="miter"><text transform="translate(209.44316,234.20486) scale(0.19588,0.20747)" font-size="40" xml:space="preserve" fill="#585858" fill-rule="nonzero" stroke="none" stroke-width="1" stroke-linecap="butt" stroke-linejoin="miter" stroke-miterlimit="10" stroke-dasharray="" stroke-dashoffset="0" font-family="Sans Serif" font-weight="normal" text-anchor="start" style="mix-blend-mode: normal"><tspan x="0" dy="0">-8</tspan></text><path d="M200.35963,232.99861c0,-1.82173 3.29853,-6.42346 3.29853,-6.42346c0,0 3.29853,4.60173 3.29853,6.42346c0,1.82173 -1.4768,3.29853 -3.29853,3.29853c-1.82173,0 -3.29853,-1.4768 -3.29853,-3.29853z" fill="#0079cd" stroke-width="NaN"/></g></g></g></svg>