<svg version="1.1" xmlns="http://www.w3.org/2000/svg" xmlns:xlink="http://www.w3.org/1999/xlink" width="24.88438" height="21.93406" viewBox="0,0,24.88438,21.93406"><g transform="translate(-200.21175,-162.89063)"><g data-paper-data="{&quot;isPaintingLayer&quot;:true}" stroke-miterlimit="10" stroke-dasharray="" stroke-dashoffset="0" style="mix-blend-mode: normal"><g data-paper-data="{&quot;index&quot;:null}"><path d="M211.80441,182.27375c0.14636,0.11709 1.93201,2.22475 2.51747,1.69783c0.70255,-0.61473 1.66856,-1.81492 2.72238,-0.84892c0.34928,0.32016 0.36414,0.71428 0.19697,1.11416c-0.3372,0.80663 -6.21335,0.35076 -6.33528,0.17421c-0.30815,-0.44617 -0.62373,-1.00653 -0.62373,-1.55184c0.02927,-0.81965 1.02456,-1.02456 1.52219,-0.58546z" data-paper-data="{&quot;index&quot;:null}" fill="#ffab19" fill-rule="evenodd" stroke="#001026" stroke-width="0.25" stroke-linecap="round" stroke-linejoin="round"/><g data-paper-data="{&quot;index&quot;:null}" fill-rule="evenodd" stroke-width="0.25"><path d="M204.77149,184.02573c0.33547,-0.6211 0.91924,-1.16452 1.26615,-1.78126c0.73183,-1.20019 1.05383,-0.96601 2.8102,-0.61473c0.99528,0.14636 1.58074,0.23418 2.22475,0.20491c0.96601,-0.02927 0.79037,1.37583 0.52691,2.10766c0,0 -7.25684,0.87737 -6.82801,0.08342z" fill="#ffab19" stroke="#001026" stroke-linecap="round" stroke-linejoin="round"/><path d="M207.94852,184.2643c0.52691,-0.70255 1.02456,-1.63928 2.34184,-0.79037c0.63279,0.39734 0.8069,0.77988 0.82358,1.06208c0.00664,0.11225 -3.44703,0.16479 -3.16542,-0.27171z" fill="#ffffff" stroke="none" stroke-linecap="butt" stroke-linejoin="miter"/></g><path d="M201.88089,184.23503c-0.26345,-0.90746 0.49764,-1.49292 1.14165,-1.99056c1.25874,-0.90746 2.31257,-1.7271 3.48348,-1.28801c1.46365,0.52691 0.40982,1.69783 -0.322,2.22475c-0.43909,0.322 -0.87819,0.67328 -1.20019,0.87819c-0.08782,0.14636 -2.8102,1.20018 -3.10294,0.17563z" data-paper-data="{&quot;index&quot;:null}" fill="#ffab19" fill-rule="evenodd" stroke="#001026" stroke-width="0.25" stroke-linecap="round" stroke-linejoin="round"/><g data-paper-data="{&quot;index&quot;:null}"><path d="M214.17551,164.79779c0.08782,-0.05855 0.23418,-0.02927 0.26345,0.08782l0.7611,3.1322c0,0 1.87347,1.37583 2.42966,2.34184c0.93674,1.61001 0.96601,2.92729 0.96601,2.92729c0,0 2.07838,0.61473 2.42966,2.28329c0.35127,1.66856 -0.93674,4.83004 -6.44005,5.91313c-5.50331,1.0831 -9.92353,-0.40982 -12.00191,-3.74694c-2.07838,-3.33712 1.20019,-7.31824 1.02456,-7.08405l-0.61473,-5.23986c-0.02927,-0.11709 0.11709,-0.20491 0.23418,-0.14636l3.54203,2.31257c0,0 1.31728,-0.49764 2.69311,-0.55618c0.81965,-0.05855 1.52219,0 2.19547,0.11709z" fill="#ffab19" fill-rule="evenodd" stroke="#001026" stroke-width="0.25" stroke-linecap="butt" stroke-linejoin="miter"/><path d="M218.50792,173.40404c0,0 2.01983,0.52691 2.37111,2.19547c0.35127,1.66856 -1.05383,4.68367 -6.4986,5.73749c-7.08405,1.46365 -3.16147,-6.32295 -0.70254,-6.49859c2.10766,-0.14636 2.34184,-1.99056 4.83004,-1.43437z" fill="#ffffff" fill-rule="evenodd" stroke="none" stroke-width="0.25" stroke-linecap="butt" stroke-linejoin="miter"/><g fill-rule="evenodd" stroke-width="0.25"><path d="M217.01499,170.65239c0.84892,1.31728 0.87819,2.8102 0.05855,3.33712c-0.81965,0.52691 -2.1662,-0.08782 -3.04438,-1.4051c-0.84892,-1.31728 -0.87819,-2.8102 -0.05855,-3.33712c0.81965,-0.55618 2.19547,0.08782 3.04438,1.4051z" fill="#ffffff" stroke="#001026" stroke-linecap="round" stroke-linejoin="round"/><path d="M216.8979,172.32094c0,0.322 -0.23418,0.58546 -0.52691,0.58546c-0.29273,0 -0.52691,-0.26345 -0.52691,-0.58546c0,-0.322 0.23418,-0.58546 0.52691,-0.58546c0.29273,0 0.52691,0.26345 0.52691,0.58546" fill="#001026" stroke="none" stroke-linecap="butt" stroke-linejoin="miter"/></g><g fill="none" fill-rule="nonzero" stroke="none" stroke-width="1" stroke-linecap="butt" stroke-linejoin="miter" font-family="sans-serif" font-weight="normal" font-size="12" text-anchor="start"/></g></g><path d="M220.58525,174.72599c0.3794,0 0.58052,1.13665 0.47698,1.82885c-0.01129,0.07546 -0.221,1.03908 -0.65189,1.47506c-0.44663,0.4519 -1.12131,0.3753 -1.50391,0.3753c-0.75172,0 -1.36111,-0.53477 -1.36111,-1.19444c0,-0.65968 2.28821,-2.48477 3.03993,-2.48477z" fill="none" fill-rule="nonzero" stroke="#001026" stroke-width="0.25" stroke-linecap="butt" stroke-linejoin="miter"/><g fill="none" fill-rule="nonzero" stroke-linecap="round" stroke-linejoin="miter"><path d="M220.08654,179.7642l-3.22757,3.22687" stroke="#343f4d" stroke-width="1.5"/><path d="M220.41032,179.4528l0.76893,-0.76876" stroke="#c9d1dd" stroke-width="2"/></g><g fill-rule="nonzero" stroke-linejoin="miter"><path d="M224.34013,163.64663v20.32675h-6.08498l-7.62028,-20.32675h13.70525" fill-opacity="0.75294" fill="#b4e0d7" stroke="none" stroke-width="1" stroke-linecap="butt"/><path d="M210.6349,163.64663l7.62028,20.32675h-4.09437l-7.62028,-20.32675h4.09437" fill-opacity="0.74902" fill="#d4fff5" stroke="none" stroke-width="1" stroke-linecap="butt"/><path d="M204.2428,163.64663l7.59182,20.32675h-2.30296l-7.62028,-20.32675h2.33141" fill-opacity="0.74902" fill="#d4fff5" stroke="none" stroke-width="1" stroke-linecap="butt"/><path d="M206.54054,163.64663l7.62028,20.32675h-2.33141l-7.59182,-20.32675h2.30296" fill-opacity="0.75294" fill="#b4e0d7" stroke="none" stroke-width="1" stroke-linecap="butt"/><path d="M200.96776,163.64663h0.93839l7.62028,20.32675h-8.55867v-20.32675" fill-opacity="0.75294" fill="#b4e0d7" stroke="none" stroke-width="1" stroke-linecap="butt"/><g stroke-width="1.512" stroke-linecap="round"><path d="" fill="#5e154d" stroke="#5e154d"/><path d="M224.34013,163.64663v20.32675h-23.37238v-20.32675h23.37238" fill="none" stroke="#666666"/></g></g></g></g></svg>