<svg version="1.1" xmlns="http://www.w3.org/2000/svg" xmlns:xlink="http://www.w3.org/1999/xlink" width="99.20614" height="119.40827" viewBox="0,0,99.20614,119.40827"><defs><linearGradient x1="239.99999" y1="126.10996" x2="239.99999" y2="186.60172" gradientUnits="userSpaceOnUse" id="color-1"><stop offset="0" stop-color="#484138"/><stop offset="1" stop-color="#685a50"/></linearGradient><linearGradient x1="206.8889" y1="125.55441" x2="206.8889" y2="183.82395" gradientUnits="userSpaceOnUse" id="color-2"><stop offset="0" stop-color="#b09f88"/><stop offset="1" stop-color="#917e70"/></linearGradient><linearGradient x1="273.11112" y1="125.55441" x2="273.11112" y2="183.82395" gradientUnits="userSpaceOnUse" id="color-3"><stop offset="0" stop-color="#b09f88"/><stop offset="1" stop-color="#917e70"/></linearGradient><linearGradient x1="240.04167" y1="125.5544" x2="240.04167" y2="183.82394" gradientUnits="userSpaceOnUse" id="color-4"><stop offset="0" stop-color="#b09f88"/><stop offset="1" stop-color="#917e70"/></linearGradient></defs><g transform="translate(-190.39693,-120.29588)"><g data-paper-data="{&quot;isPaintingLayer&quot;:true}" stroke-miterlimit="10" stroke-dasharray="" stroke-dashoffset="0" style="mix-blend-mode: normal"><path d="M289.60307,129.31305v101.37565c0,4.97152 -4.04218,9.01545 -9.01718,9.01545h-81.17351c-4.96979,0 -9.01545,-4.04392 -9.01545,-9.01544v-101.37738c0,-4.97152 4.04566,-9.01545 9.01545,-9.01545h81.17351c4.975,0 9.01718,4.04566 9.01718,9.01719z" fill-opacity="0.74902" fill="#d2d3d4" fill-rule="nonzero" stroke="none" stroke-width="1" stroke-linecap="butt" stroke-linejoin="miter"/><path d="M287.06513,163.26163v65.07452c0,4.97152 -4.04219,9.01545 -9.01719,9.01545l-76.09761,0.25093c-4.96979,0 -9.01545,-4.04392 -9.01545,-9.01545v-65.07627z" fill-opacity="0.85882" fill="#ffffff" fill-rule="nonzero" stroke="none" stroke-width="1" stroke-linecap="butt" stroke-linejoin="miter"/><text transform="translate(197.4876,200.16945) scale(0.28036,0.28036)" font-size="40" xml:space="preserve" fill="#000000" fill-rule="nonzero" stroke="#000000" stroke-width="1" stroke-linecap="butt" stroke-linejoin="miter" stroke-miterlimit="10" stroke-dasharray="" stroke-dashoffset="0" font-family="&quot;ヒラギノ角ゴ Pro W3&quot;, &quot;Hiragino Kaku Gothic Pro&quot;, Osaka, &quot;メイリオ&quot;, Meiryo, &quot;ＭＳ Ｐゴシック&quot;, &quot;MS PGothic&quot;" font-weight="normal" text-anchor="start" style="mix-blend-mode: normal"><tspan x="0" dy="0">トイレ</tspan></text><g fill-rule="nonzero" stroke="none" stroke-linecap="butt" stroke-linejoin="miter"><g fill="#45b5e6" stroke-width="0"><path d="M208.75315,213.93832l-6.05509,-6.05509l0.90827,-0.90827l6.05509,6.05509z"/><path d="M207.66481,204.70311c0.3036,0.3036 0.30354,0.79598 0,1.09952l-6.13918,6.13917c-0.3036,0.3036 -0.79592,0.30347 -1.09945,-0.00006l-2.54359,-2.54359c-0.3036,-0.3036 -0.3036,-0.79579 0,-1.0994l6.13911,-6.13911c0.30374,-0.30374 0.79586,-0.30366 1.09946,-0.00006l2.54358,2.54358z"/></g><text transform="translate(209.44316,210.32878) scale(0.19587,0.20747)" font-size="40" xml:space="preserve" fill="#585858" fill-rule="nonzero" stroke="none" stroke-width="1" stroke-linecap="butt" stroke-linejoin="miter" stroke-miterlimit="10" stroke-dasharray="" stroke-dashoffset="0" font-family="Sans Serif" font-weight="normal" text-anchor="start" style="mix-blend-mode: normal"><tspan x="0" dy="0">15,000G</tspan></text></g><g fill-rule="nonzero" stroke="none" stroke-linecap="butt"><path d="M248.03087,215.93531c0.41438,-0.94222 1.30869,-1.59712 2.34778,-1.59712c1.4325,0 2.5951,1.24099 2.5951,2.77006c0,3.0114 -4.94287,7.00154 -4.94287,7.00154c0,0 -4.94286,-3.89088 -4.94286,-7.00154c0,-1.52908 1.1626,-2.77006 2.5951,-2.77006c1.03907,0 1.9334,0.65487 2.34776,1.59712z" fill="#45b5e6" stroke-width="0" stroke-linejoin="round"/><text transform="translate(253.23743,222.41856) scale(0.19589,0.20748)" font-size="40" xml:space="preserve" fill="#585858" fill-rule="nonzero" stroke="none" stroke-width="1" stroke-linecap="butt" stroke-linejoin="miter" stroke-miterlimit="10" stroke-dasharray="" stroke-dashoffset="0" font-family="Sans Serif" font-weight="normal" text-anchor="start" style="mix-blend-mode: normal"><tspan x="0" dy="0">6%</tspan></text></g><g fill-rule="nonzero" stroke="none" stroke-linecap="butt" stroke-linejoin="miter"><g fill="#45b5e6" stroke-width="0"><path d="M241.85852,206.60629l5.64578,-1.34827l3.23916,3.23917l-1.34825,5.64577l-3.23077,-3.23077l-0.02081,-1.06159h-1.04078z"/><path d="M254.06963,202.84012l-4.99544,4.99545l-0.90828,-0.90827l4.99544,-4.99545z"/></g><text transform="translate(252.97427,210.4311) scale(0.19589,0.20748)" font-size="40" xml:space="preserve" fill="#585858" fill-rule="nonzero" stroke="none" stroke-width="1" stroke-linecap="butt" stroke-linejoin="miter" stroke-miterlimit="10" stroke-dasharray="" stroke-dashoffset="0" font-family="Sans Serif" font-weight="normal" text-anchor="start" style="mix-blend-mode: normal"><tspan x="0" dy="0">320G</tspan></text></g><g><path d="M194.89039,186.60172v-60.49176h90.21921v60.49176z" fill="url(#color-1)" fill-rule="nonzero" stroke="#666666" stroke-width="2" stroke-linecap="butt" stroke-linejoin="miter"/><g fill="#a1a7b2" fill-rule="nonzero" stroke="none" stroke-linecap="butt" stroke-linejoin="miter"><path d="M235.91666,183.77251v-15.69706h8.16667v15.69706z" stroke-width="0.5"/><path d="M251.45833,166.86797c0,3.04257 -5.13007,5.50907 -11.45834,5.50907c-6.32826,0 -11.45834,-2.46649 -11.45834,-5.50907c0,-3.04257 22.91667,-3.04257 22.91667,0z" stroke-width="0"/></g><g fill-rule="nonzero" stroke="none" stroke-width="0" stroke-linecap="butt" stroke-linejoin="miter"><path d="M194.89041,183.82395v-58.26954h23.99699v58.26954z" fill="url(#color-2)"/><path d="M261.1126,183.82395v-58.26954h23.99699v58.26954z" data-paper-data="{&quot;index&quot;:null}" fill="url(#color-3)"/><path d="M237.15429,183.82394v-42.78754l-18.41667,-0.08334l-0.16667,-15.39866h45.1081l0.25,15.56533h-21v42.70422z" fill="url(#color-4)"/></g><path d="M195.90989,185.68422v-3.6523h88.18031v3.6523z" fill="#c0c0c0" fill-rule="nonzero" stroke="none" stroke-width="0" stroke-linecap="butt" stroke-linejoin="miter"/><path d="M194.89041,186.60172v-60.49176h90.21921v60.49176z" fill="none" fill-rule="nonzero" stroke="#666666" stroke-width="2" stroke-linecap="butt" stroke-linejoin="miter"/><g><g fill="#ff0000" fill-rule="evenodd" stroke="#ff0000" stroke-width="0.5" stroke-linecap="round" stroke-linejoin="round"><path d="M208.74373,150.17585c0.09894,0.04947 0.3092,0.16079 0.01236,0.58131c-0.29684,0.42051 -1.15023,0.50709 -1.24918,0.50709c-0.38341,0.01236 -0.85341,0.01237 -1.37287,-0.16079c-1.50892,-0.49472 -1.52129,-2.11496 -1.03893,-2.37469c0.46999,-0.25974 0.68025,0.74209 1.3605,1.34814c0.29684,0.2721 0.65551,0.37104 0.95235,0.43288c0.42051,0.07421 1.22445,-0.39579 1.33576,-0.33394z"/></g><path d="M209.36214,151.46214c-0.22262,0.14841 -0.98946,0.69262 -1.96654,1.00182l-0.04947,0.01236c-0.04947,0.01236 -0.07422,0.07422 -0.04948,0.12369c0.21026,0.29684 0.59368,0.89051 -0.08657,1.10076c-0.65551,0.21026 -1.87996,-1.53366 -1.3605,-1.99128c0.23499,-0.17316 0.44526,-0.08658 0.55657,-0.0371c0.06184,0.02474 0.12368,0.02473 0.18552,0.01236c0.14841,-0.04947 0.42051,-0.14842 0.63077,-0.25974c0.53183,-0.2721 0.65552,-0.38341 0.90288,-0.56893c0.24736,-0.18552 0.8163,-0.64315 1.27392,-0.24736c0.39578,0.33394 0.17316,0.70498 -0.0371,0.8534z" fill="#ff0000" fill-rule="evenodd" stroke="#ff0000" stroke-width="0.5" stroke-linecap="round" stroke-linejoin="round"/><path d="M211.32868,148.88956c0.06184,0.04947 0.8163,0.93998 1.06366,0.71735c0.29684,-0.25974 0.70499,-0.76683 1.15024,-0.35868c0.44526,0.40815 -0.39578,1.10077 -0.75446,1.28629c-0.85341,0.38341 -1.54602,-0.34631 -1.69444,-0.5442c-0.14841,-0.19789 -0.40815,-0.53184 -0.40815,-0.85341c0.01236,-0.34631 0.43289,-0.43289 0.64315,-0.24736z" fill="#ff0000" fill-rule="evenodd" stroke="#ff0000" stroke-width="0.5" stroke-linecap="round" stroke-linejoin="round"/><g fill="#ff0000" fill-rule="evenodd" stroke="#ff0000" stroke-width="0.5" stroke-linecap="round" stroke-linejoin="round"><path d="M211.34105,151.77134c0.25974,0.23499 0.82867,0.71735 0.82867,0.71735c0,0 1.76865,-0.30921 1.76865,0.5813c0,0.53183 -0.89051,0.65551 -2.09022,0.5442c-0.07421,-0.01236 -0.14841,-0.0371 -0.21026,-0.08658c-0.2721,-0.23499 -1.0513,-0.92761 -1.54602,-1.40997c-0.72972,-0.71735 -1.33576,-1.18735 -1.33576,-1.18735c-1.0513,-1.02656 -0.19789,-1.45945 0.13605,-2.05312c0.3092,-0.50709 0.44526,-0.40815 1.18735,-0.25973c0.42051,0.06184 0.66788,0.09894 0.93998,0.08658c0.40815,-0.01236 0.33394,0.58131 0.22263,0.89051c0,0 -0.17316,0.45762 -0.33394,0.69262c-0.19789,0.28447 -0.34632,0.46999 -0.49473,0.58131z"/></g><path d="M208.43453,149.84191c0.2721,0.34631 0.69262,0.77919 0.16079,1.13787c-0.72972,0.40815 -1.33576,-0.82867 -1.45945,-1.26156c-0.11131,-0.38341 0.21026,-0.63077 0.48236,-0.84103c0.53183,-0.38341 0.97709,-0.72972 1.47182,-0.5442c0.61841,0.22262 0.17315,0.71735 -0.13605,0.93998c-0.18552,0.13605 -0.37104,0.28447 -0.50709,0.37105c-0.0371,0.06184 -0.04948,0.13605 -0.01237,0.19789z" fill="#ff0000" fill-rule="evenodd" stroke="#ff0000" stroke-width="0.5" stroke-linecap="round" stroke-linejoin="round"/><g><path d="M212.3305,141.50576c0.0371,-0.02474 0.09895,-0.01237 0.11131,0.0371l0.32157,1.32339c0,0 0.79156,0.5813 1.02656,0.98945c0.39578,0.68025 0.40815,1.23682 0.40815,1.23682c0,0 0.87814,0.25973 1.02656,0.96471c0.14841,0.70498 -0.39578,2.04075 -2.721,2.49837c-2.32522,0.45762 -4.19281,-0.17316 -5.07095,-1.58312c-0.87814,-1.40997 0.50709,-3.09204 0.43288,-2.9931l-0.25973,-2.2139c-0.01236,-0.04947 0.04947,-0.08658 0.09894,-0.06184l1.49654,0.97708c0,0 0.55657,-0.21026 1.13788,-0.23499c0.34631,-0.02474 0.64314,0 0.92761,0.04948z" fill="#ff0000" fill-rule="evenodd" stroke="#ff0000" stroke-width="0.5" stroke-linecap="butt" stroke-linejoin="miter"/><path d="M216.43674,145.27805c-0.5813,0.46999 -1.47181,0.48236 -1.47181,0.48236" fill="#ff0000" fill-rule="evenodd" stroke="#ff0000" stroke-width="0.5" stroke-linecap="round" stroke-linejoin="round"/><path d="M216.27595,146.66329c-0.77919,0.06184 -1.26155,-0.17315 -1.26155,-0.17315" fill="#ff0000" fill-rule="evenodd" stroke="#ff0000" stroke-width="0.5" stroke-linecap="round" stroke-linejoin="round"/><path d="M206.50509,145.24095c0,0 1.06366,0.34632 1.49655,0.72973" fill="#ff0000" fill-rule="evenodd" stroke="#ff0000" stroke-width="0.5" stroke-linecap="round" stroke-linejoin="round"/><path d="M208.03875,146.40356c-0.53183,0.21026 -1.44708,0.07421 -1.44708,0.07421" fill="#ff0000" fill-rule="evenodd" stroke="#ff0000" stroke-width="0.5" stroke-linecap="round" stroke-linejoin="round"/><g fill="none" fill-rule="nonzero" stroke="none" stroke-width="1" stroke-linecap="butt" stroke-linejoin="miter" font-family="sans-serif" font-weight="normal" font-size="12" text-anchor="start"/><g fill="none" fill-rule="nonzero" stroke="none" stroke-width="1" stroke-linecap="butt" stroke-linejoin="miter" font-family="sans-serif" font-weight="normal" font-size="12" text-anchor="start"/></g></g><g data-paper-data="{&quot;index&quot;:null}"><g fill="#0066ff" fill-rule="evenodd" stroke="#0066ff" stroke-width="0.5" stroke-linecap="round" stroke-linejoin="round"><path d="M271.25625,150.17585c0.11131,-0.06185 0.91524,0.40815 1.33576,0.33394c0.29684,-0.06185 0.65551,-0.16079 0.95235,-0.43288c0.68025,-0.60604 0.89051,-1.60787 1.3605,-1.34814c0.48236,0.25973 0.46999,1.87997 -1.03893,2.37469c-0.51946,0.17316 -0.98945,0.17315 -1.37286,0.16079c-0.09895,0 -0.95235,-0.08658 -1.24919,-0.50709c-0.29684,-0.42051 -0.08658,-0.53184 0.01236,-0.58131z"/></g><path d="M270.63784,151.46214c-0.21026,-0.14841 -0.43289,-0.51946 -0.0371,-0.8534c0.45762,-0.39578 1.02656,0.06184 1.27392,0.24736c0.24737,0.18553 0.37105,0.29683 0.90288,0.56893c0.21026,0.11131 0.48236,0.21026 0.63078,0.25974c0.06184,0.01237 0.12368,0.01238 0.18552,-0.01236c0.11131,-0.04947 0.32157,-0.13605 0.55657,0.0371c0.51946,0.45762 -0.70499,2.20154 -1.3605,1.99128c-0.68025,-0.21025 -0.29684,-0.80392 -0.08658,-1.10076c0.02474,-0.04947 0,-0.11132 -0.04947,-0.12369l-0.04947,-0.01236c-0.97708,-0.3092 -1.74392,-0.85341 -1.96654,-1.00182z" fill="#0066ff" fill-rule="evenodd" stroke="#0066ff" stroke-width="0.5" stroke-linecap="round" stroke-linejoin="round"/><path d="M268.6713,148.88956c0.21026,-0.18553 0.63078,-0.09895 0.64315,0.24736c0,0.32157 -0.25973,0.65552 -0.40815,0.85341c-0.14841,0.19789 -0.84104,0.92761 -1.69444,0.5442c-0.35868,-0.18552 -1.19971,-0.87814 -0.75446,-1.28629c0.44525,-0.40815 0.8534,0.09894 1.15024,0.35868c0.24736,0.22262 1.00182,-0.66788 1.06366,-0.71735z" fill="#0066ff" fill-rule="evenodd" stroke="#0066ff" stroke-width="0.5" stroke-linecap="round" stroke-linejoin="round"/><g fill="#0066ff" fill-rule="evenodd" stroke="#0066ff" stroke-width="0.5" stroke-linecap="round" stroke-linejoin="round"><path d="M269.58653,150.86847c-0.14841,-0.11131 -0.29684,-0.29684 -0.49473,-0.58131c-0.16078,-0.23499 -0.33394,-0.69262 -0.33394,-0.69262c-0.11131,-0.3092 -0.18552,-0.90287 0.22263,-0.89051c0.2721,0.01236 0.51946,-0.02474 0.93998,-0.08658c0.74209,-0.14841 0.87814,-0.24736 1.18734,0.25973c0.33394,0.59367 1.18734,1.02656 0.13605,2.05312c0,0 -0.60604,0.46999 -1.33576,1.18735c-0.49473,0.48236 -1.27393,1.17497 -1.54603,1.40997c-0.06185,0.04947 -0.13605,0.07421 -0.21026,0.08658c-1.19971,0.11131 -2.09022,-0.01237 -2.09022,-0.5442c0,-0.89051 1.76865,-0.5813 1.76865,-0.5813c0,0 0.56893,-0.48236 0.82867,-0.71735z"/></g><path d="M271.56544,149.84191c0.0371,-0.06184 0.02474,-0.13605 -0.01237,-0.19789c-0.13605,-0.08658 -0.32157,-0.23499 -0.50709,-0.37105c-0.30921,-0.22262 -0.75446,-0.71735 -0.13605,-0.93998c0.49473,-0.18552 0.93998,0.16079 1.47181,0.5442c0.2721,0.21026 0.59367,0.45762 0.48236,0.84103c-0.12369,0.43289 -0.72973,1.66971 -1.45945,1.26156c-0.53183,-0.35868 -0.11132,-0.79156 0.16078,-1.13787z" fill="#0066ff" fill-rule="evenodd" stroke="#0066ff" stroke-width="0.5" stroke-linecap="round" stroke-linejoin="round"/><g><path d="M268.73314,142.49522c0.28447,-0.04947 0.5813,-0.07422 0.92761,-0.04948c0.5813,0.02473 1.13787,0.23499 1.13787,0.23499l1.49655,-0.97708c0.04947,-0.02474 0.11131,0.01236 0.09895,0.06184l-0.25973,2.2139c-0.07421,-0.09894 1.31102,1.58313 0.43288,2.9931c-0.87815,1.40997 -2.74574,2.04074 -5.07095,1.58312c-2.32522,-0.45762 -2.86942,-1.79339 -2.721,-2.49837c0.14842,-0.70498 1.02656,-0.96471 1.02656,-0.96471c0,0 0.01236,-0.55657 0.40815,-1.23682c0.235,-0.40815 1.02656,-0.98945 1.02656,-0.98945l0.32157,-1.32339c0.01236,-0.04947 0.07421,-0.06185 0.11131,-0.0371z" fill="#0066ff" fill-rule="evenodd" stroke="#0066ff" stroke-width="0.5" stroke-linecap="butt" stroke-linejoin="miter"/><path d="M265.03504,145.76041c0,0 -0.8905,-0.01237 -1.47181,-0.48236" fill="#0066ff" fill-rule="evenodd" stroke="#0066ff" stroke-width="0.5" stroke-linecap="round" stroke-linejoin="round"/><path d="M264.98558,146.49014c0,0 -0.48236,0.23499 -1.26155,0.17315" fill="#0066ff" fill-rule="evenodd" stroke="#0066ff" stroke-width="0.5" stroke-linecap="round" stroke-linejoin="round"/><path d="M271.99834,145.97067c0.43289,-0.38341 1.49655,-0.72973 1.49655,-0.72973" fill="#0066ff" fill-rule="evenodd" stroke="#0066ff" stroke-width="0.5" stroke-linecap="round" stroke-linejoin="round"/><path d="M273.4083,146.47777c0,0 -0.91524,0.13605 -1.44707,-0.07421" fill="#0066ff" fill-rule="evenodd" stroke="#0066ff" stroke-width="0.5" stroke-linecap="round" stroke-linejoin="round"/><g fill="none" fill-rule="nonzero" stroke="none" stroke-width="1" stroke-linecap="butt" stroke-linejoin="miter" font-family="sans-serif" font-weight="normal" font-size="12" text-anchor="start"/><g fill="none" fill-rule="nonzero" stroke="none" stroke-width="1" stroke-linecap="butt" stroke-linejoin="miter" font-family="sans-serif" font-weight="normal" font-size="12" text-anchor="start"/></g></g></g><path d="M286.08835,126.38078v59.3949c0,0.9386 -0.76314,1.70207 -1.7024,1.70207h-88.77223c-0.93827,0 -1.70207,-0.76347 -1.70207,-1.70207v-59.39522c0,-0.9386 0.7638,-1.70208 1.70207,-1.70208h88.77223c0.93926,0 1.7024,0.7638 1.7024,1.7024z" fill="none" fill-rule="nonzero" stroke="#666666" stroke-width="2" stroke-linecap="butt" stroke-linejoin="miter"/><g fill-rule="nonzero" stroke="none" stroke-linecap="butt" stroke-linejoin="miter"><text transform="translate(252.9769,234.29901) scale(0.19588,0.20747)" font-size="40" xml:space="preserve" fill="#585858" fill-rule="nonzero" stroke="none" stroke-width="1" stroke-linecap="butt" stroke-linejoin="miter" stroke-miterlimit="10" stroke-dasharray="" stroke-dashoffset="0" font-family="Sans Serif" font-weight="normal" text-anchor="start" style="mix-blend-mode: normal"><tspan x="0" dy="0">-1</tspan></text><path d="M244.4761,236.41881l1.7486,-4.14478l-2.20732,-0.69125l5.87862,-5.12252l-1.71443,4.10799l2.18486,0.71764z" fill="#e6c245" stroke-width="0"/></g><g fill-rule="nonzero" stroke="none" stroke-linecap="butt" stroke-linejoin="miter"><text transform="translate(209.44316,234.20486) scale(0.19588,0.20747)" font-size="40" xml:space="preserve" fill="#585858" fill-rule="nonzero" stroke="none" stroke-width="1" stroke-linecap="butt" stroke-linejoin="miter" stroke-miterlimit="10" stroke-dasharray="" stroke-dashoffset="0" font-family="Sans Serif" font-weight="normal" text-anchor="start" style="mix-blend-mode: normal"><tspan x="0" dy="0">-2</tspan></text><path d="M200.35963,232.99861c0,-1.82173 3.29853,-6.42346 3.29853,-6.42346c0,0 3.29853,4.60173 3.29853,6.42346c0,1.82173 -1.4768,3.29853 -3.29853,3.29853c-1.82173,0 -3.29853,-1.4768 -3.29853,-3.29853z" fill="#0079cd" stroke-width="NaN"/></g></g></g></svg>