<svg version="1.1" xmlns="http://www.w3.org/2000/svg" xmlns:xlink="http://www.w3.org/1999/xlink" width="99.20614" height="119.40827" viewBox="0,0,99.20614,119.40827"><defs><linearGradient x1="231.24542" y1="156.36229" x2="231.24542" y2="164.20487" gradientUnits="userSpaceOnUse" id="color-1"><stop offset="0" stop-color="#9aa8ad"/><stop offset="1" stop-color="#a3c3cf"/></linearGradient><linearGradient x1="220.19939" y1="157.69345" x2="220.19939" y2="161.78277" gradientUnits="userSpaceOnUse" id="color-2"><stop offset="0" stop-color="#866236"/><stop offset="1" stop-color="#874d42"/></linearGradient><linearGradient x1="226.6802" y1="157.72419" x2="226.6802" y2="161.81351" gradientUnits="userSpaceOnUse" id="color-3"><stop offset="0" stop-color="#866236"/><stop offset="1" stop-color="#874d42"/></linearGradient><linearGradient x1="237.82051" y1="157.66271" x2="237.82051" y2="161.75204" gradientUnits="userSpaceOnUse" id="color-4"><stop offset="0" stop-color="#ac7d45"/><stop offset="1" stop-color="#b07256"/></linearGradient><linearGradient x1="243.97227" y1="157.66271" x2="243.97227" y2="161.75204" gradientUnits="userSpaceOnUse" id="color-5"><stop offset="0" stop-color="#ac7d45"/><stop offset="1" stop-color="#b07256"/></linearGradient><linearGradient x1="256.25279" y1="157.70671" x2="256.25279" y2="161.79604" gradientUnits="userSpaceOnUse" id="color-6"><stop offset="0" stop-color="#80844e"/><stop offset="1" stop-color="#63984e"/></linearGradient><linearGradient x1="262.75171" y1="157.83387" x2="262.75171" y2="161.9232" gradientUnits="userSpaceOnUse" id="color-7"><stop offset="0" stop-color="#80844e"/><stop offset="1" stop-color="#63984e"/></linearGradient><linearGradient x1="231.24542" y1="147.70634" x2="231.24542" y2="164.26407" gradientUnits="userSpaceOnUse" id="color-8"><stop offset="0" stop-color="#b2fffe" stop-opacity="0.65098"/><stop offset="1" stop-color="#bbffff" stop-opacity="0.17255"/></linearGradient></defs><g transform="translate(-190.39693,-120.29588)"><g data-paper-data="{&quot;isPaintingLayer&quot;:true}" stroke-miterlimit="10" stroke-dasharray="" stroke-dashoffset="0" style="mix-blend-mode: normal"><path d="M289.60307,129.31305v101.37565c0,4.97152 -4.04218,9.01545 -9.01718,9.01545h-81.17351c-4.96979,0 -9.01545,-4.04392 -9.01545,-9.01544v-101.37738c0,-4.97152 4.04566,-9.01545 9.01545,-9.01545h81.17351c4.975,0 9.01718,4.04566 9.01718,9.01719z" fill-opacity="0.74902" fill="#d2d3d4" fill-rule="nonzero" stroke="none" stroke-width="1" stroke-linecap="butt" stroke-linejoin="miter"/><path d="M287.06513,163.26163v65.07452c0,4.97152 -4.04219,9.01545 -9.01719,9.01545l-76.09761,0.25093c-4.96979,0 -9.01545,-4.04392 -9.01545,-9.01545v-65.07627z" fill-opacity="0.85882" fill="#ffffff" fill-rule="nonzero" stroke="none" stroke-width="1" stroke-linecap="butt" stroke-linejoin="miter"/><text transform="translate(197.4876,200.16945) scale(0.28036,0.28036)" font-size="40" xml:space="preserve" fill="#000000" fill-rule="nonzero" stroke="#000000" stroke-width="1" stroke-linecap="butt" stroke-linejoin="miter" stroke-miterlimit="10" stroke-dasharray="" stroke-dashoffset="0" font-family="&quot;ヒラギノ角ゴ Pro W3&quot;, &quot;Hiragino Kaku Gothic Pro&quot;, Osaka, &quot;メイリオ&quot;, Meiryo, &quot;ＭＳ Ｐゴシック&quot;, &quot;MS PGothic&quot;" font-weight="normal" text-anchor="start" style="mix-blend-mode: normal"><tspan x="0" dy="0">ケーキ屋</tspan></text><g fill-rule="nonzero" stroke="none" stroke-linecap="butt" stroke-linejoin="miter"><g fill="#45b5e6" stroke-width="0"><path d="M208.75315,213.93832l-6.05509,-6.05509l0.90827,-0.90827l6.05509,6.05509z"/><path d="M207.66481,204.70311c0.3036,0.3036 0.30354,0.79598 0,1.09952l-6.13918,6.13917c-0.3036,0.3036 -0.79592,0.30347 -1.09945,-0.00006l-2.54359,-2.54359c-0.3036,-0.3036 -0.3036,-0.79579 0,-1.0994l6.13911,-6.13911c0.30374,-0.30374 0.79586,-0.30366 1.09946,-0.00006l2.54358,2.54358z"/></g><text transform="translate(209.44316,210.32878) scale(0.19587,0.20747)" font-size="40" xml:space="preserve" fill="#585858" fill-rule="nonzero" stroke="none" stroke-width="1" stroke-linecap="butt" stroke-linejoin="miter" stroke-miterlimit="10" stroke-dasharray="" stroke-dashoffset="0" font-family="Sans Serif" font-weight="normal" text-anchor="start" style="mix-blend-mode: normal"><tspan x="0" dy="0">60,000G</tspan></text></g><g stroke-width="1"><g data-paper-data="{&quot;index&quot;:null}"><path d="M204.68463,214.69793c0.0443,-0.02953 0.11815,-0.01477 0.13292,0.04431l0.38401,1.58035c0,0 0.94524,0.69416 1.22588,1.18158c0.47263,0.81232 0.48739,1.47697 0.48739,1.47697c0,0 1.04864,0.31017 1.22589,1.15203c0.17723,0.84187 -0.47263,2.43699 -3.24931,2.98347c-2.7767,0.54647 -5.00691,-0.20678 -6.05557,-1.89052c-1.04864,-1.68374 0.60554,-3.69241 0.51693,-3.57425l-0.31017,-2.64377c-0.01477,-0.05909 0.05908,-0.10339 0.11814,-0.07385l1.78713,1.16681c0,0 0.66464,-0.25109 1.35881,-0.28063c0.41356,-0.02953 0.76802,0 1.10772,0.05909z" fill="#45b5e6" fill-rule="evenodd" stroke="#45b5e6" stroke-linecap="butt" stroke-linejoin="miter"/><path d="M209.58817,219.20268c-0.69417,0.56124 -1.7576,0.57601 -1.7576,0.57601" fill="#45b5e6" fill-rule="evenodd" stroke="#45b5e6" stroke-linecap="round" stroke-linejoin="round"/><path d="M209.39615,220.85687c-0.93048,0.07385 -1.50651,-0.20676 -1.50651,-0.20676" fill="#45b5e6" fill-rule="evenodd" stroke="#45b5e6" stroke-linecap="round" stroke-linejoin="round"/><path d="M197.72814,219.15836c0,0 1.27017,0.41356 1.78711,0.87141" fill="#45b5e6" fill-rule="evenodd" stroke="#45b5e6" stroke-linecap="round" stroke-linejoin="round"/><path d="M199.55957,220.54671c-0.6351,0.25108 -1.72804,0.08862 -1.72804,0.08862" fill="#45b5e6" fill-rule="evenodd" stroke="#45b5e6" stroke-linecap="round" stroke-linejoin="round"/><g fill="none" fill-rule="nonzero" stroke="none" stroke-linecap="butt" stroke-linejoin="miter" font-family="sans-serif" font-weight="normal" font-size="12" text-anchor="start"/><g fill="none" fill-rule="nonzero" stroke="none" stroke-linecap="butt" stroke-linejoin="miter" font-family="sans-serif" font-weight="normal" font-size="12" text-anchor="start"/></g><text transform="translate(209.44316,222.38156) scale(0.19588,0.20747)" font-size="40" xml:space="preserve" fill="#585858" fill-rule="nonzero" stroke="none" stroke-width="1" stroke-linecap="butt" stroke-linejoin="miter" stroke-miterlimit="10" stroke-dasharray="" stroke-dashoffset="0" font-family="Sans Serif" font-weight="normal" text-anchor="start" style="mix-blend-mode: normal"><tspan x="0" dy="0">400G</tspan></text></g><g fill-rule="nonzero" stroke="none" stroke-linecap="butt"><path d="M248.03087,215.93531c0.41438,-0.94222 1.30869,-1.59712 2.34778,-1.59712c1.4325,0 2.5951,1.24099 2.5951,2.77006c0,3.0114 -4.94287,7.00154 -4.94287,7.00154c0,0 -4.94286,-3.89088 -4.94286,-7.00154c0,-1.52908 1.1626,-2.77006 2.5951,-2.77006c1.03907,0 1.9334,0.65487 2.34776,1.59712z" fill="#45b5e6" stroke-width="0" stroke-linejoin="round"/><text transform="translate(253.23743,222.41856) scale(0.19589,0.20748)" font-size="40" xml:space="preserve" fill="#585858" fill-rule="nonzero" stroke="none" stroke-width="1" stroke-linecap="butt" stroke-linejoin="miter" stroke-miterlimit="10" stroke-dasharray="" stroke-dashoffset="0" font-family="Sans Serif" font-weight="normal" text-anchor="start" style="mix-blend-mode: normal"><tspan x="0" dy="0">6%</tspan></text></g><g fill-rule="nonzero" stroke="none" stroke-linecap="butt" stroke-linejoin="miter"><g fill="#45b5e6" stroke-width="0"><path d="M241.85852,206.60629l5.64578,-1.34827l3.23916,3.23917l-1.34825,5.64577l-3.23077,-3.23077l-0.02081,-1.06159h-1.04078z"/><path d="M254.06963,202.84012l-4.99544,4.99545l-0.90828,-0.90827l4.99544,-4.99545z"/></g><text transform="translate(252.97427,210.4311) scale(0.19589,0.20748)" font-size="40" xml:space="preserve" fill="#585858" fill-rule="nonzero" stroke="none" stroke-width="1" stroke-linecap="butt" stroke-linejoin="miter" stroke-miterlimit="10" stroke-dasharray="" stroke-dashoffset="0" font-family="Sans Serif" font-weight="normal" text-anchor="start" style="mix-blend-mode: normal"><tspan x="0" dy="0">520G</tspan></text></g><g><path d="M194.89041,186.32393v-60.49176h90.21921v60.49176z" data-paper-data="{&quot;index&quot;:null}" fill="#d8e5eb" fill-rule="nonzero" stroke="#666666" stroke-width="2" stroke-linecap="butt" stroke-linejoin="miter"/><g fill="#b37b47" fill-rule="nonzero" stroke="none" stroke-width="0" stroke-linecap="butt" stroke-linejoin="miter"><path d="M284.09013,157.52405v5.39744l-12.48478,-2.19133v-3.20611z" data-paper-data="{&quot;index&quot;:null}"/><path d="M284.09013,157.52405v24.95546l-5.39386,0.55923l0.45454,-21.99171z" data-paper-data="{&quot;index&quot;:null}"/></g><g data-paper-data="{&quot;index&quot;:null}" fill-rule="evenodd" stroke-width="0.5"><g><path d="M220.91223,161.90455c1.40172,0.24736 4.08147,-1.31926 4.45252,-1.11313c0.32981,0.16491 1.03066,0.53596 0.04122,1.93767c-0.98944,1.40171 -3.83411,1.6903 -4.16392,1.6903c-1.27804,0.04122 -2.84466,0.04123 -4.5762,-0.53595c-5.02968,-1.64908 -5.07091,-7.04981 -3.46306,-7.91558c1.56663,-0.86577 2.26749,2.47362 4.53497,4.49374c0.98945,0.907 2.18504,1.23682 3.17448,1.44295z" fill="#ffab19" stroke="#001026" stroke-linecap="round" stroke-linejoin="round"/><path d="M213.45016,156.05033c0.82454,-0.16491 1.03067,0.45349 1.6903,1.40171c0.65963,1.11313 1.93767,2.67975 1.93767,2.67975c0,0 -1.52539,-0.37105 -2.39116,0.32981c-0.70086,0.53596 -0.53596,1.44295 -0.4535,1.73154c-0.53595,-0.53595 -1.19558,-1.27803 -1.60785,-2.72098c-0.41227,-1.44295 0,-3.17448 0.82454,-3.42184z" fill="#ffffff" stroke="none" stroke-linecap="butt" stroke-linejoin="miter"/></g><path d="M231.83743,157.32837c0.04122,-1.15436 1.44294,-1.44294 2.1438,-0.82454c0.20613,0.16491 2.72098,3.13325 3.54552,2.39116c0.98944,-0.86577 2.34994,-2.55607 3.83411,-1.19558c1.48417,1.36049 -1.31927,3.6692 -2.51485,4.2876c-2.84466,1.27803 -5.15338,-1.15436 -5.6481,-1.81399c-0.49472,-0.65963 -1.36049,-1.77276 -1.36049,-2.84466z" fill="#ffab19" stroke="#001026" stroke-linecap="round" stroke-linejoin="round"/><g><path d="M234.02242,166.1097c0.86576,0.78331 2.7622,2.39117 2.7622,2.39117c0,0 5.89545,-1.03067 5.89545,1.93767c0,1.77276 -2.96833,2.18504 -6.96735,1.81399c-0.24736,-0.04122 -0.49473,-0.12368 -0.70086,-0.28859c-0.90699,-0.78331 -3.50429,-3.09202 -5.15337,-4.69987c-2.43239,-2.39117 -4.45252,-3.95779 -4.45252,-3.95779c-3.50429,-3.42184 -0.65963,-4.86479 0.4535,-6.84368c1.03067,-1.6903 1.48417,-1.36049 3.95779,-0.86577c1.40172,0.20613 2.22626,0.32981 3.13325,0.28859c1.36049,-0.04123 1.11314,1.93766 0.74209,2.96834c0,0 -0.57717,1.5254 -1.11312,2.30871c-0.65963,0.94822 -1.15436,1.56661 -1.64908,1.93766z" fill="#ffab19" stroke="#001026" stroke-linecap="round" stroke-linejoin="round"/><path d="M232.74439,160.33794c-0.90699,1.85521 -2.18503,2.72098 -2.18503,2.72098c0,0 -0.6184,-0.49473 -1.27803,-1.11313c-0.82454,-0.74209 -1.64908,-1.3605 -0.82454,-2.63853c0.74209,-0.98945 1.44295,-2.30871 3.29816,-1.11313c1.77276,1.11313 0.98944,2.1438 0.98944,2.1438z" fill="#ffffff" stroke="none" stroke-linecap="butt" stroke-linejoin="miter"/></g><path d="M224.33409,159.67829c0.90699,1.15436 2.30871,2.59731 0.53595,3.79289c-2.43239,1.36049 -4.45252,-2.7622 -4.86479,-4.20515c-0.37104,-1.27804 0.70087,-2.10258 1.60786,-2.80344c1.77276,-1.27803 3.25693,-2.43239 4.90601,-1.81399c2.06135,0.74208 0.57718,2.39116 -0.4535,3.13325c-0.61841,0.4535 -1.23681,0.94822 -1.69031,1.23681c-0.12368,0.20613 -0.1649,0.4535 -0.04122,0.65963z" fill="#ffab19" stroke="#001026" stroke-linecap="round" stroke-linejoin="round"/><g><path d="M237.32057,131.89132c0.12368,-0.08246 0.32982,-0.04123 0.37104,0.12368l1.0719,4.41128c0,0 2.63853,1.93767 3.42184,3.29816c1.31927,2.26748 1.36049,4.12269 1.36049,4.12269c0,0 2.92712,0.86578 3.42184,3.21571c0.49472,2.34993 -1.31926,6.80244 -9.06993,8.32784c-7.75067,1.5254 -13.97595,-0.57718 -16.90306,-5.27705c-2.92711,-4.69987 1.69031,-10.30673 1.44295,-9.97692l-0.86577,-7.37963c-0.04122,-0.16491 0.16491,-0.2886 0.32982,-0.20614l4.98846,3.25693c0,0 1.85522,-0.70085 3.79289,-0.78331c1.15436,-0.08245 2.1438,0 3.09202,0.16491z" fill="#ffab19" stroke="#001026" stroke-linecap="butt" stroke-linejoin="miter"/><path d="M236.61971,146.03216c2.96835,-0.20613 3.29816,-2.80343 6.80246,-2.02012c0,0 2.84466,0.74209 3.33938,3.09202c0.49473,2.34994 -1.48416,6.59632 -9.15238,8.08049c-9.97693,2.06135 -14.71803,-3.87533 -11.95583,-8.24539c2.76221,-4.41128 7.50331,-0.65963 10.96638,-0.90699z" fill="#ffffff" stroke="none" stroke-linecap="butt" stroke-linejoin="miter"/><path d="M230.43567,148.42334c0,-0.16491 0.1649,-0.28859 0.32981,-0.24737c0.78331,0.28859 3.00957,0.94822 5.48319,1.11313c2.22625,0.12368 3.54552,0 4.16392,-0.12368c0.20614,-0.04122 0.37105,0.16491 0.28859,0.37104c-0.37104,1.11313 -1.93766,4.20515 -6.26649,3.95779c-3.75165,-0.41227 -4.1227,-3.05079 -3.99902,-5.07091z" fill="#ffffff" stroke="#001026" stroke-linecap="round" stroke-linejoin="round"/><path d="M251.00793,144.46554c-1.93767,1.56662 -4.90601,1.60785 -4.90601,1.60785" fill="none" stroke="#001026" stroke-linecap="round" stroke-linejoin="round"/><path d="M250.47198,149.08296c-2.5973,0.20614 -4.20515,-0.57717 -4.20515,-0.57717" fill="none" stroke="#001026" stroke-linecap="round" stroke-linejoin="round"/><path d="M236.45481,144.96027c0.86577,0 1.77277,0.08245 1.81399,0.37104c0.04122,0.57718 -0.57718,1.73154 -1.23681,1.77276c-0.74209,0.08246 -2.47362,-0.94822 -2.47362,-1.60785c-0.04123,-0.49473 1.0719,-0.53595 1.89644,-0.53595z" fill="#001026" stroke="#001026" stroke-linecap="round" stroke-linejoin="round"/><path d="M217.90267,144.34186c0,0 3.54552,1.15436 4.98847,2.43239" fill="none" stroke="#001026" stroke-linecap="round" stroke-linejoin="round"/><path d="M223.01483,148.2172c-1.77276,0.70086 -4.82355,0.24736 -4.82355,0.24736" fill="none" stroke="#001026" stroke-linecap="round" stroke-linejoin="round"/><g><path d="M241.31959,140.13671c1.19558,1.85521 1.23682,3.95778 0.08246,4.69987c-1.15436,0.74209 -3.0508,-0.12368 -4.28761,-1.97889c-1.19558,-1.85521 -1.23681,-3.95778 -0.08245,-4.69987c1.15435,-0.78331 3.09202,0.12368 4.2876,1.97889z" fill="#ffffff" stroke="#001026" stroke-linecap="round" stroke-linejoin="round"/><path d="M241.15469,142.48665c0,0.45349 -0.32982,0.82454 -0.74209,0.82454c-0.41228,0 -0.74209,-0.37104 -0.74209,-0.82454c0,-0.4535 0.32982,-0.82454 0.74209,-0.82454c0.41228,0 0.74209,0.37104 0.74209,0.82454" fill="#001026" stroke="none" stroke-linecap="butt" stroke-linejoin="miter"/></g><g><path d="M226.64279,139.43586c1.27803,-0.94822 3.2157,0.04123 4.45251,1.85522c1.23681,1.81398 1.15436,4.04024 0.04123,4.82355c-1.36049,0.78331 -3.17448,0.20613 -4.41129,-1.60786c-1.27803,-1.81399 -1.36048,-4.16393 -0.08245,-5.07092z" fill="#ffffff" stroke="#001026" stroke-linecap="round" stroke-linejoin="round"/><path d="M230.84794,143.68223c0,0.45349 -0.32982,0.82454 -0.74209,0.82454c-0.41228,0 -0.74209,-0.37104 -0.74209,-0.82454c0,-0.45349 0.32982,-0.82453 0.74209,-0.82453c0.41228,0.04122 0.74209,0.37103 0.74209,0.82453" fill="#001026" stroke="none" stroke-linecap="butt" stroke-linejoin="miter"/></g></g></g><path d="M195.90984,164.20487v-7.84259l74.254,0.10522l1.23295,7.73737z" data-paper-data="{&quot;index&quot;:null}" fill="url(#color-1)" fill-rule="nonzero" stroke="#666666" stroke-width="1" stroke-linecap="butt" stroke-linejoin="miter"/><g data-paper-data="{&quot;index&quot;:null}" fill="#e8dbb8" fill-rule="nonzero" stroke="#666666" stroke-width="0.5" stroke-linecap="butt" stroke-linejoin="miter"><path d="M197.34785,158.51977c0,-0.63278 0.5145,-1.14772 1.14772,-1.14772h12.29489c0.63257,0 1.1475,0.51471 1.1475,1.14749v3.34258c0,0.63278 -0.51494,1.1475 -1.1475,1.1475h-12.29489c-0.63322,0 -1.14772,-0.51472 -1.14772,-1.1475v-3.34236z"/><path d="M216.82264,157.37204h12.29489c0.63256,0 1.1475,0.51471 1.1475,1.1475v3.34257c0,0.63278 -0.51494,1.1475 -1.1475,1.1475h-12.29489c-0.63322,0 -1.14772,-0.51471 -1.14772,-1.1475v-3.34235c0,-0.63278 0.5145,-1.14772 1.14772,-1.14772z"/><path d="M234.75497,157.29309h12.29489c0.63256,0 1.1475,0.51471 1.1475,1.1475v3.34257c0,0.63278 -0.51494,1.1475 -1.1475,1.1475h-12.29489c-0.63323,0 -1.14773,-0.51471 -1.14773,-1.1475v-3.34235c0,-0.63278 0.51451,-1.14772 1.14773,-1.14772z"/><path d="M253.08204,157.37204h12.29488c0.63256,0 1.1475,0.51471 1.1475,1.1475v3.34257c0,0.63278 -0.51494,1.1475 -1.1475,1.1475h-12.29488c-0.63323,0 -1.14773,-0.51471 -1.14773,-1.1475v-3.34235c0,-0.63278 0.51451,-1.14772 1.14773,-1.14772z"/></g><g data-paper-data="{&quot;index&quot;:null}" fill-rule="nonzero" stroke="none" stroke-width="0.5" stroke-linecap="butt" stroke-linejoin="miter"><g><path d="M210.28152,161.02919c-0.65275,0.40081 -3.12512,1.17071 -3.24593,1.18581c-0.49614,0.06202 -1.2657,-1.14167 -1.2657,-1.14167c-0.06615,-0.57208 -0.12716,-2.34342 0.34726,-2.77809c0.38565,-0.35333 3.76997,-0.08453 4.25598,0.23173c0.52264,0.34008 0.25233,2.29103 -0.0916,2.50222z" fill="#eae8de"/><path d="M207.11821,158.61279c0,-0.27424 0.53412,-1.92511 0.98236,-0.13214c0.0115,0.04209 0.01764,0.08639 0.01764,0.13214c0,0.0447 -0.00586,0.08803 -0.01687,0.12927c-0.07821,0.56198 -0.43462,0.37073 -0.48313,0.37073c-0.27614,0 -0.5,-0.22386 -0.5,-0.5z" fill="#ea5252"/></g><g><path d="M200.76523,162.0571c-0.49614,0.06202 -1.26571,-1.14167 -1.26571,-1.14167c-0.06615,-0.57208 -0.12716,-2.34342 0.34726,-2.77809c0.38564,-0.35333 3.76997,-0.08453 4.25598,0.23173c0.52264,0.34008 0.25233,2.29103 -0.0916,2.50222c-0.65276,0.40081 -3.12512,1.17071 -3.24593,1.18581z" fill="#eae8de"/><path d="M200.84901,158.42415c0,-0.27424 0.53411,-1.92512 0.98235,-0.13215c0.01151,0.0421 0.01765,0.0864 0.01765,0.13215c0,0.0447 -0.00587,0.08803 -0.01687,0.12927c-0.07821,0.56197 -0.43462,0.37073 -0.48313,0.37073c-0.27614,0 -0.5,-0.22386 -0.5,-0.5z" fill="#ea5252"/></g><g fill="url(#color-2)"><path d="M222.28553,160.59465c-0.65275,0.40081 -3.12512,1.17071 -3.24593,1.18581c-0.49614,0.06202 -1.2657,-1.14167 -1.2657,-1.14167c-0.06615,-0.57208 -0.12716,-2.34342 0.34726,-2.77809c0.38565,-0.35333 3.76997,-0.08453 4.25598,0.23173c0.52264,0.34008 0.25233,2.29103 -0.0916,2.50222z"/></g><g fill="url(#color-3)"><path d="M225.52041,161.8112c-0.49614,0.06202 -1.2657,-1.14167 -1.2657,-1.14167c-0.06615,-0.57208 -0.12717,-2.34342 0.34725,-2.77809c0.38565,-0.35333 3.76997,-0.08453 4.25598,0.23173c0.52264,0.34008 0.25233,2.29103 -0.0916,2.50222c-0.65276,0.40081 -3.12512,1.17071 -3.24593,1.18581z"/></g><g><g fill="url(#color-4)"><path d="M239.90665,160.56391c-0.65276,0.40081 -3.12512,1.17071 -3.24593,1.18581c-0.49614,0.06202 -1.2657,-1.14167 -1.2657,-1.14167c-0.06615,-0.57208 -0.12716,-2.34342 0.34726,-2.77809c0.38565,-0.35333 3.76997,-0.08453 4.25598,0.23173c0.52264,0.34008 0.25233,2.29103 -0.0916,2.50222z"/></g><g fill="#c5436c"><path d="M239.36326,158.81768c-0.97411,0.32339 -2.50675,0.52538 -2.57959,0.53449c-0.49614,0.06201 -1.75614,-0.46772 -1.23728,-1.20307c0.08391,-0.11891 0.11639,-0.24632 0.19588,-0.31915c0.38565,-0.35333 3.76997,-0.08453 4.25598,0.23173c0.06209,0.0404 0.11298,0.10353 0.15389,0.18377c0.0243,0.04766 -0.28507,0.40499 -0.78887,0.57224z"/></g></g><g><g fill="url(#color-5)"><path d="M242.81248,161.74972c-0.49614,0.06202 -1.2657,-1.14167 -1.2657,-1.14167c-0.06615,-0.57208 -0.12717,-2.34342 0.34725,-2.77809c0.38565,-0.35333 3.76997,-0.08453 4.25598,0.23173c0.52264,0.34008 0.25233,2.29103 -0.0916,2.50222c-0.65276,0.40081 -3.12512,1.17071 -3.24593,1.18581z"/></g><g fill="#c5436c"><path d="M245.51502,158.8177c-0.97411,0.32339 -2.50675,0.52538 -2.57959,0.53449c-0.49614,0.06201 -1.75614,-0.46772 -1.23728,-1.20307c0.0839,-0.11891 0.11639,-0.24632 0.19588,-0.31915c0.38565,-0.35333 3.76997,-0.08453 4.25598,0.23173c0.06208,0.0404 0.11298,0.10352 0.15389,0.18376c0.0243,0.04766 -0.28507,0.40499 -0.78887,0.57224z"/></g></g><g fill="url(#color-6)"><path d="M255.093,161.79372c-0.49614,0.06202 -1.26571,-1.14167 -1.26571,-1.14167c-0.06615,-0.57208 -0.12716,-2.34342 0.34726,-2.77809c0.38565,-0.35333 3.76997,-0.08453 4.25598,0.23173c0.52264,0.34008 0.25233,2.29103 -0.0916,2.50222c-0.65275,0.40081 -3.12512,1.17071 -3.24593,1.18581z"/></g><g fill="url(#color-7)"><path d="M261.59192,161.92088c-0.49615,0.06202 -1.26571,-1.14167 -1.26571,-1.14167c-0.06615,-0.57208 -0.12716,-2.34342 0.34726,-2.77809c0.38565,-0.35333 3.76997,-0.08453 4.25598,0.23173c0.52263,0.34008 0.25233,2.29103 -0.0916,2.50222c-0.65276,0.40081 -3.12512,1.17071 -3.24593,1.18581z"/></g></g><path d="M195.90984,164.26407v-16.55774h72.84847l2.63849,16.55774z" data-paper-data="{&quot;index&quot;:null}" fill="url(#color-8)" fill-rule="nonzero" stroke="#666666" stroke-width="1" stroke-linecap="butt" stroke-linejoin="miter"/><path d="M271.39679,164.20486v17.15453h-75.48694v-17.15453z" data-paper-data="{&quot;index&quot;:null}" fill="#cccccc" fill-rule="nonzero" stroke="#666666" stroke-width="1" stroke-linecap="butt" stroke-linejoin="miter"/><path d="M195.90983,185.40643v-3.6523h88.18031v3.6523z" data-paper-data="{&quot;index&quot;:null}" fill="#c0c0c0" fill-rule="nonzero" stroke="none" stroke-width="0" stroke-linecap="butt" stroke-linejoin="miter"/><g data-paper-data="{&quot;index&quot;:null}" fill-rule="nonzero" stroke-linejoin="miter"><path d="M250.21016,180.85628l0.5,-33.9l-0.3,20.2l13.7,-0.4v14.1" data-paper-data="{&quot;index&quot;:null}" fill="none" stroke="#b37b47" stroke-width="2.5" stroke-linecap="round"/><path d="M258.61015,164.45628c3.36893,0 6.1,0.29102 6.1,0.65c0,0.35898 -2.73107,0.65 -6.1,0.65c-3.36893,0 -6.1,-0.29102 -6.1,-0.65c0,-0.35898 2.73107,-0.65 6.1,-0.65z" data-paper-data="{&quot;index&quot;:null}" fill="#997a6b" stroke="#997a6b" stroke-width="2" stroke-linecap="butt"/></g></g><path d="M286.08836,126.38077v59.3949c0,0.9386 -0.76314,1.70207 -1.7024,1.70207h-88.77223c-0.93827,0 -1.70207,-0.76347 -1.70207,-1.70207v-59.39522c0,-0.9386 0.7638,-1.70208 1.70207,-1.70208h88.77223c0.93926,0 1.7024,0.7638 1.7024,1.7024z" fill="none" fill-rule="nonzero" stroke="#666666" stroke-width="2" stroke-linecap="butt" stroke-linejoin="miter"/><g fill-rule="nonzero" stroke="none" stroke-linecap="butt" stroke-linejoin="miter"><text transform="translate(252.9769,234.29901) scale(0.19588,0.20747)" font-size="40" xml:space="preserve" fill="#585858" fill-rule="nonzero" stroke="none" stroke-width="1" stroke-linecap="butt" stroke-linejoin="miter" stroke-miterlimit="10" stroke-dasharray="" stroke-dashoffset="0" font-family="Sans Serif" font-weight="normal" text-anchor="start" style="mix-blend-mode: normal"><tspan x="0" dy="0">-6</tspan></text><path d="M244.4761,236.41881l1.7486,-4.14478l-2.20732,-0.69125l5.87862,-5.12252l-1.71443,4.10799l2.18486,0.71764z" fill="#e6c245" stroke-width="0"/></g><g fill-rule="nonzero" stroke="none" stroke-linecap="butt" stroke-linejoin="miter"><text transform="translate(209.44316,234.20486) scale(0.19588,0.20747)" font-size="40" xml:space="preserve" fill="#585858" fill-rule="nonzero" stroke="none" stroke-width="1" stroke-linecap="butt" stroke-linejoin="miter" stroke-miterlimit="10" stroke-dasharray="" stroke-dashoffset="0" font-family="Sans Serif" font-weight="normal" text-anchor="start" style="mix-blend-mode: normal"><tspan x="0" dy="0">-4</tspan></text><path d="M200.35963,232.99861c0,-1.82173 3.29853,-6.42346 3.29853,-6.42346c0,0 3.29853,4.60173 3.29853,6.42346c0,1.82173 -1.4768,3.29853 -3.29853,3.29853c-1.82173,0 -3.29853,-1.4768 -3.29853,-3.29853z" fill="#0079cd" stroke-width="NaN"/></g></g></g></svg>