<svg version="1.1" xmlns="http://www.w3.org/2000/svg" xmlns:xlink="http://www.w3.org/1999/xlink" width="92.43423" height="62.49176" viewBox="0,0,92.43423,62.49176"><defs><radialGradient cx="279.00158" cy="202.1566" r="42.17246" gradientUnits="userSpaceOnUse" id="color-1"><stop offset="0" stop-color="#73fffe"/><stop offset="1" stop-color="#73fffe" stop-opacity="0"/></radialGradient><radialGradient cx="214.10162" cy="197.8566" r="42.17246" gradientUnits="userSpaceOnUse" id="color-2"><stop offset="0" stop-color="#94fffa"/><stop offset="1" stop-color="#94fffa" stop-opacity="0"/></radialGradient><radialGradient cx="214.10162" cy="197.8566" r="42.17246" gradientUnits="userSpaceOnUse" id="color-3"><stop offset="0" stop-color="#94fffa" stop-opacity="0"/><stop offset="1" stop-color="#94fffa" stop-opacity="0"/></radialGradient></defs><g transform="translate(-193.67539,-148.75412)"><g data-paper-data="{&quot;isPaintingLayer&quot;:true}" fill-rule="nonzero" stroke-linejoin="miter" stroke-miterlimit="10" stroke-dasharray="" stroke-dashoffset="0" style="mix-blend-mode: normal"><g data-paper-data="{&quot;index&quot;:null}"><path d="M285.35006,150.4323v54.50438h-23.59043l-29.54254,-54.50438h53.13295" fill-opacity="0.75294" fill="#b4e0d7" stroke="none" stroke-width="1" stroke-linecap="butt"/><path d="M232.21722,150.4323l29.54254,54.50438h-15.87317l-29.54254,-54.50438h15.87317" fill-opacity="0.74902" fill="#d4fff5" stroke="none" stroke-width="1" stroke-linecap="butt"/><path d="M207.4361,150.4323l29.43221,54.50438h-8.92818l-29.54254,-54.50438h9.03849" fill-opacity="0.74902" fill="#d4fff5" stroke="none" stroke-width="1" stroke-linecap="butt"/><path d="M216.34403,150.4323l29.54254,54.50438h-9.03849l-29.43221,-54.50438h8.92818" fill-opacity="0.75294" fill="#b4e0d7" stroke="none" stroke-width="1" stroke-linecap="butt"/><path d="M194.83938,150.4323h3.63798l29.54254,54.50438h-33.18052v-54.50438" fill-opacity="0.75294" fill="#b4e0d7" stroke="none" stroke-width="1" stroke-linecap="butt"/><g stroke-width="1.512" stroke-linecap="round"><path d="" fill="#5e154d" stroke="#5e154d"/><path d="M285.35006,150.4323v54.50438h-90.61076v-54.50438h90.61076" fill="none" stroke="#666666"/></g></g><path d="M195.90999,209.38465c0,0 0,-1.95432 0,-3.7909c0,-0.4173 5.3,-13.59146 5.3,-13.59146l77.28031,0.8c0,0 5.6,9.44499 5.6,12.6821c0,1.70362 0,3.90027 0,3.90027z" fill="#bfbfbf" stroke="none" stroke-width="0" stroke-linecap="butt"/><path d="M197.82762,204.76978l3.66186,-12.20622h77.0212l3.66187,12.20622z" fill="url(#color-1)" stroke="#8fbfb2" stroke-width="4" stroke-linecap="butt"/><path d="M197.82762,204.76978l3.66186,-12.20622h77.0212l3.66187,12.20622z" data-paper-data="{&quot;index&quot;:null}" fill="url(#color-2)" stroke="#8fbfb2" stroke-width="4" stroke-linecap="butt"/><path d="M278.59389,198.40377c0.1644,0.81811 -0.822,0.95445 -0.822,0.95445l-0.70986,0.08668c-3.7947,-0.00848 -7.55778,-0.60137 -11.40923,-0.60404c-7.4376,0.56079 -14.8457,0.52864 -22.31804,0.52864c0,0 -0.02035,0 -0.05523,-0.0024c-0.03499,-0.00081 -0.05521,-0.00267 -0.05521,-0.00267l-0.70775,-0.07032c-6.88744,0 -13.88202,-0.21939 -20.73036,0.44919c-6.98389,0.34071 -13.8554,-0.37379 -20.8151,-0.37379c0,0 -1,0 -1,-0.82939c0,-0.82939 1,-0.82939 1,-0.82939c6.90124,0 13.7152,0.71804 20.63945,0.3802c6.90693,-0.67359 13.95972,-0.4556 20.906,-0.4556l0.87008,0.0754c7.42524,0.00015 14.78461,0.03033 22.17551,-0.52694c3.87372,-0.00251 7.68947,0.61213 11.49986,0.60234l0.38106,-0.06411c0,0 0.9864,-0.13636 1.1508,0.68175z" fill="#e6fff8" stroke="none" stroke-width="0.5" stroke-linecap="butt"/><path d="M277.17555,196.39375l-0.14299,-0.15753c-1.75232,0.44654 -3.66745,0.24721 -5.52356,0.24721c-3.89375,0 -7.78511,-0.0663 -11.67474,-0.06805c-6.50549,-0.37157 -13.06975,0.12586 -19.57216,0.13543l-0.75347,0.13207c-5.97558,0.39872 -11.87965,-0.1258 -17.85619,-0.47c-6.64913,0.00318 -12.9746,0.58918 -19.59012,0.20049c0,0 -0.99655,-0.06167 -0.9135,-0.80161c0.08304,-0.73994 1.07959,-0.67828 1.07959,-0.67828c6.58121,0.4246 12.87921,-0.20748 19.50079,-0.20451c5.88691,0.3336 11.71385,0.87639 17.59836,0.47501l0.57527,-0.11588c0,0 0.0461,-0.00856 0.12071,-0.01448c0.07432,-0.00769 0.12183,-0.00769 0.12183,-0.00769c6.56676,0.00402 13.19449,-0.50977 19.76565,-0.13446c3.8637,-0.00185 7.73008,0.06696 11.59799,0.06696c1.53792,0 3.42366,0.25751 4.84007,-0.1578l1.31155,0.11247c0,0 0.97014,0.18008 0.72761,0.90042c-0.24254,0.72034 -1.21268,0.54026 -1.21268,0.54026z" data-paper-data="{&quot;index&quot;:null}" fill="#e6fff8" stroke="none" stroke-width="0.5" stroke-linecap="butt"/><path d="M197.82762,204.76978l3.66186,-12.20622h77.0212l3.66187,12.20622z" data-paper-data="{&quot;index&quot;:null}" fill="url(#color-3)" stroke="#b6f3e2" stroke-width="4" stroke-linecap="butt"/><path d="M203.06314,203.0707v-7.33245l1.28639,-0.90048l2.95871,8.49022" fill="none" stroke="#666666" stroke-width="1.5" stroke-linecap="round"/><path d="M208.85442,203.0707v-7.33245l1.28639,-0.90048l2.95871,8.49022" fill="none" stroke="#666666" stroke-width="1.5" stroke-linecap="round"/><path d="M205.32552,206.45897v-3.61295h2.64874l0.33757,1.74416l1.86547,0.24399c0,0 -0.06107,-1.98815 0.04748,-1.98815c2.61437,0 5.97564,0 5.97564,0v3.61295z" fill="#b6f3e2" stroke="none" stroke-width="0" stroke-linecap="butt"/><path d="M194.89042,210.24588v-60.49176h90.21921v60.49176z" fill="none" stroke="#666666" stroke-width="2" stroke-linecap="butt"/><g stroke="#9b9b9b" stroke-linecap="butt"><path d="M198.00749,158.49053l10.39639,1.79787l-8.37769,18.00282z" fill="#ffdf00" stroke-width="0"/><path d="M208.48796,160.03621l10.46695,1.32674l-7.55649,18.36264z" fill="#005cff" stroke-width="0"/><path d="M219.85706,161.3566l10.49958,1.03732l-7.04676,18.56422z" fill="#ffdf00" stroke-width="0"/><path d="M230.48165,162.42653l10.54741,-0.26341l-4.70728,19.29063z" fill="#005cff" stroke-width="0"/><path d="M241.13487,162.19379l10.53032,-0.65535l-3.98685,19.45231z" fill="#ffdf00" stroke-width="0"/><path d="M251.45006,162.00389l10.50919,-0.935l-3.46842,19.5514z" fill="#005cff" stroke-width="0"/><path d="M262.17377,160.84738l10.47467,-1.2643l-2.85324,19.65061z" fill="#ffdf00" stroke-width="0"/><path d="M272.33369,159.74121l10.38042,-1.88789l-1.67404,19.78597z" fill="#005cff" stroke-width="0"/><path d="M284.3207,157.92245c-13.2181,2.41842 -28.30406,3.78878 -44.32067,3.78878c-16.22054,0 -31.48658,-1.40548 -44.82464,-3.88166" fill="none" stroke-width="3"/></g><g fill="none"><path d="M274.75255,204.44436c0.02846,1.25208 0.06706,2.95053 0.06706,2.95053" stroke="#666666" stroke-width="1.5" stroke-linecap="round"/><path d="M279.60733,200.58589c0.48221,1.38784 -2.69545,3.75285 -7.09751,5.28238c-4.40207,1.52953 -8.36157,1.64439 -8.84378,0.25655c-0.48221,-1.38784 2.69545,-3.75285 7.09751,-5.28238c4.40207,-1.52953 8.36157,-1.64439 8.84378,-0.25655z" stroke="#ff0000" stroke-width="3.5" stroke-linecap="butt"/><path d="M282.9063,202.97994c-0.46352,1.3942 -4.42419,1.33257 -8.84643,-0.13766c-4.42223,-1.47023 -7.6314,-3.7923 -7.16788,-5.18651c0.46352,-1.3942 4.42419,-1.33257 8.84643,0.13766c4.42223,1.47023 7.6314,3.7923 7.16788,5.18651z" stroke="#ffd239" stroke-width="3.5" stroke-linecap="butt"/><path d="M274.71781,202.91534c-0.04964,-2.18392 -0.17092,-7.52045 -0.17092,-7.52045" stroke="#666666" stroke-width="1.5" stroke-linecap="round"/><path d="M282.9063,202.97994c-0.46352,1.3942 -4.42419,1.33257 -8.84643,-0.13766c-4.42223,-1.47023 -7.6314,-3.7923 -7.16788,-5.18651" stroke="#ffd239" stroke-width="3.5" stroke-linecap="butt"/></g></g></g></svg>