<svg version="1.1" xmlns="http://www.w3.org/2000/svg" xmlns:xlink="http://www.w3.org/1999/xlink" width="92.21921" height="62.49176" viewBox="0,0,92.21921,62.49176"><defs><linearGradient x1="239.78394" y1="176.98338" x2="239.78394" y2="191.65232" gradientUnits="userSpaceOnUse" id="color-1"><stop offset="0" stop-color="#c0c0c0"/><stop offset="1" stop-color="#c0c0c0" stop-opacity="0"/></linearGradient></defs><g transform="translate(-193.89046,-148.75412)"><g data-paper-data="{&quot;isPaintingLayer&quot;:true}" fill-rule="nonzero" stroke-linecap="butt" stroke-linejoin="miter" stroke-miterlimit="10" stroke-dasharray="" stroke-dashoffset="0" style="mix-blend-mode: normal"><path d="M194.89047,210.24588v-60.49176h90.21921v60.49176z" fill="#e47e1d" stroke="#666666" stroke-width="2"/><path d="M195.90994,209.32838v-3.6523h88.18031v3.6523z" fill="#c0c0c0" stroke="none" stroke-width="0"/><path d="M195.90995,187.35542v-7.484h88.18031v7.484z" fill="#bfa85c" stroke="none" stroke-width="0"/><path d="M284.09022,175.44172v4.57333h-88.18031v-4.57333z" fill="#9e8d54" stroke="none" stroke-width="0"/><path d="M195.90995,202.35541v-7.484h88.18031v7.484z" fill="#bfa85c" stroke="none" stroke-width="0"/><path d="M284.09022,187.29886v7.71619h-88.18031v-7.71619z" fill="#9e8d54" stroke="none" stroke-width="0"/><g><path d="M235.63406,184.50429c0.40517,-0.13385 -0.75015,-0.53349 -0.95905,-0.96074c-0.30397,-0.62169 -0.44881,-2.3079 -0.13975,-2.93999c0.83593,-1.70969 7.62886,-3.0209 9.06503,-1.90192c1.38697,1.08065 0.34645,3.93197 0.67139,4.25334c4.00374,3.95972 -2.19896,12.49527 -5.53962,7.94029c-0.45791,0.67557 -1.16602,1.10895 -1.96073,1.10895c-1.38071,0 -2.5,-1.30813 -2.5,-2.92178c0,-0.0147 0.00009,-0.02938 0.00028,-0.04402c-0.76415,-1.79632 -0.7472,-3.8372 1.36246,-4.53414z" fill="#000000" stroke="none" stroke-width="0.5"/><path d="M233.87026,191.65232v-13.27792h11.82739v13.27792z" fill="url(#color-1)" stroke="#754c26" stroke-width="0.5"/><path d="M232.89023,206.26986v-17.09219h14.21955v17.09219z" fill="#754c26" stroke="none" stroke-width="0"/></g></g></g></svg>