<svg version="1.1" xmlns="http://www.w3.org/2000/svg" xmlns:xlink="http://www.w3.org/1999/xlink" width="480" height="697.58933" viewBox="0,0,480,697.58933"><g transform="translate(0,179.98881)"><g data-paper-data="{&quot;isPaintingLayer&quot;:true}" stroke-linecap="butt" stroke-linejoin="miter" stroke-miterlimit="10" stroke-dasharray="" stroke-dashoffset="0" style="mix-blend-mode: normal"><path d="M0,360.01119v-540h480v540z" fill-opacity="0.6" fill="#333333" fill-rule="nonzero" stroke="none" stroke-width="NaN"/><path d="M362.33101,496.39631c0,11.69291 -9.50718,21.20421 -21.20826,21.20421h-202.24953c-11.68886,0 -21.20422,-9.51122 -21.20422,-21.20421v-236.39292c0,-11.69296 9.51531,-21.20421 21.20422,-21.20421h202.24953c11.7011,0 21.20826,9.51535 21.20826,21.20828z" fill="#8c858a" fill-rule="nonzero" stroke="none" stroke-width="1"/><text transform="translate(152.08654,305.83255) scale(0.43748,0.43748)" font-size="40" xml:space="preserve" fill="#f2e6ef" fill-rule="nonzero" stroke="none" stroke-width="1" stroke-linecap="butt" stroke-linejoin="miter" stroke-miterlimit="10" stroke-dasharray="" stroke-dashoffset="0" font-family="&quot;ヒラギノ角ゴ Pro W3&quot;, &quot;Hiragino Kaku Gothic Pro&quot;, Osaka, &quot;メイリオ&quot;, Meiryo, &quot;ＭＳ Ｐゴシック&quot;, &quot;MS PGothic&quot;" font-weight="normal" text-anchor="start" style="mix-blend-mode: normal"><tspan x="0" dy="0">設定を保存しています。</tspan><tspan x="0" dy="48px">少々お待ちください。</tspan></text><path d="M123.75008,350.73688c0,-1.98794 1.54754,-3.599 3.4502,-3.599c0.03757,0.00002 0.0507,0.00015 0.06743,0.00079c0.01741,0.00067 0.02884,0.00177 0.03246,0.00247l0.70102,0.13525l-0.24946,-0.67808c-0.10022,-0.27243 -0.14963,-0.56778 -0.14963,-0.89017c0,-1.51697 1.18653,-2.74782 2.63952,-2.74782c0.48784,0 0.94838,0.13642 1.35372,0.39643l0.30335,0.19458l0.22474,-0.28384c1.23345,-1.5578 3.0655,-2.47689 5.04051,-2.47689c3.60201,0 6.52049,3.02741 6.52049,6.77133c0,0.09904 -0.00049,0.13997 -0.00281,0.18812c-0.00205,0.04249 -0.00545,0.08008 -0.01062,0.11606l-0.11182,0.77866l0.69157,-0.35665c0.41737,-0.21524 0.87223,-0.3278 1.34862,-0.3278c1.68639,0 3.06374,1.42589 3.06374,3.18646c0,1.76224 -1.37643,3.18647 -3.06374,3.18647h-18.3991c-1.90595,0 -3.4502,-1.60401 -3.4502,-3.59639z" fill="#e6ffff" fill-rule="evenodd" stroke="none" stroke-width="0"/><text transform="translate(163.88455,272.22745) scale(0.63427,0.63427)" font-size="40" xml:space="preserve" fill="#ffffff" fill-rule="nonzero" stroke="#ffffff" stroke-width="1" stroke-linecap="butt" stroke-linejoin="miter" stroke-miterlimit="10" stroke-dasharray="" stroke-dashoffset="0" font-family="&quot;ヒラギノ角ゴ Pro W3&quot;, &quot;Hiragino Kaku Gothic Pro&quot;, Osaka, &quot;メイリオ&quot;, Meiryo, &quot;ＭＳ Ｐゴシック&quot;, &quot;MS PGothic&quot;" font-weight="normal" text-anchor="start" style="mix-blend-mode: normal"><tspan x="0" dy="0">設定を更新中</tspan></text></g></g></svg>