<svg version="1.1" xmlns="http://www.w3.org/2000/svg" xmlns:xlink="http://www.w3.org/1999/xlink" width="15.58694" height="17.98921" viewBox="0,0,15.58694,17.98921"><g transform="translate(-241.1887,-163.19289)"><g data-paper-data="{&quot;isPaintingLayer&quot;:true}" fill-rule="nonzero" stroke-miterlimit="10" stroke-dasharray="" stroke-dashoffset="0" style="mix-blend-mode: normal"><path d="M251.31707,169.81511v0c0.7844,0.42704 1.45996,-0.34205 2.05561,-1.02077c0.48832,-0.55591 1.09155,-1.26665 1.5135,-1.10328c0.11409,0.04428 0.19083,0.11424 0.23456,0.21386c0.15882,0.3622 -0.25472,1.23974 -0.47314,1.79524c-0.23221,0.59152 -0.39986,1.01884 -0.14431,1.18897c0.24572,0.16379 0.59964,-0.08456 0.9675,-0.26036c0.45367,-0.21636 0.90293,-0.44223 1.02864,-0.23002c0.11329,0.19153 -0.38828,1.00656 -0.699,1.5651c-0.52045,0.9355 -1.11018,1.99572 -0.79684,2.75806l0.24822,0.41339c0.43202,0.64493 1.47322,1.81845 1.27383,3.87957c-0.04293,0.44376 -0.15756,0.86235 -0.31561,1.2497c-0.21666,0.53103 -0.29109,-0.50379 -2.05666,-1.06537c-1.1113,-0.35347 -3.63136,-0.24547 -4.96023,-0.25195c-1.56047,-0.00761 -3.80166,-0.11295 -5.11414,0.26164c-1.40069,0.39976 -1.80716,1.42753 -2.0711,0.90514c-0.36801,-0.72835 -0.5692,-1.54883 -0.5692,-2.43727c0,-1.62402 0.85725,-3.35745 2.00995,-4.78705l0.00855,-0.01048l0.0062,-0.01256c0,0 0.01685,-0.03119 0.02706,-0.05519c0.03201,-0.09865 0.77848,-2.42513 0.92157,-3.1989l0.0603,-0.34799c0.10913,-0.65057 0.38923,-2.40676 0.81531,-2.40027c0.28285,0.00483 0.37559,0.95867 0.46099,1.48576c0.09301,0.57371 0.05436,0.8465 0.3466,1.0903c0.35848,0.29791 0.87742,0.37849 0.88709,0.36842c0.54887,-0.58035 1.26609,-1.46024 1.26609,-1.46024l1.00324,-1.14276c0.98422,-1.15474 3.41196,-4.01975 3.92014,-3.74434c0.2627,0.14226 -0.54557,1.6603 -0.99883,2.55911c-0.82926,1.64387 -1.6864,3.34323 -0.85589,3.79457z" data-paper-data="{&quot;index&quot;:null}" fill="#454545" stroke="#001026" stroke-width="0.5" stroke-linecap="round" stroke-linejoin="round"/><path d="M255.97821,180.62256c-0.9655,-0.67772 -2.88236,-1.3739 -6.68654,-1.4161c-4.78905,-0.08582 -6.80874,0.972 -7.65315,1.79393c-0.5232,0.50927 -0.45122,-0.16592 -0.19813,-0.62852c0.55286,-1.01054 1.62633,-1.69734 2.85676,-1.69734h9.40509c1.2449,0 2.32797,0.70188 2.8752,1.73039c0.24206,0.45494 0.34392,0.87967 -0.59922,0.21765z" fill="#7f0024" stroke="#666666" stroke-width="0" stroke-linecap="butt" stroke-linejoin="miter"/></g></g></svg>