<svg version="1.1" xmlns="http://www.w3.org/2000/svg" xmlns:xlink="http://www.w3.org/1999/xlink" width="46.98479" height="17.88415" viewBox="0,0,46.98479,17.88415"><g transform="translate(-191.30158,-168.47071)"><g data-paper-data="{&quot;isPaintingLayer&quot;:true}" fill-rule="nonzero" stroke-miterlimit="10" stroke-dasharray="" stroke-dashoffset="0" style="mix-blend-mode: normal"><g stroke-width="0.6"><g><path d="M198.20777,175.53218c-0.07136,-0.94991 -1.98758,-0.86492 -3.84126,-0.78258c-1.01346,0.04487 -2.74283,0.15994 -2.76493,-0.14031c-0.04296,-0.58093 3.59402,-1.62733 5.06226,-2.05433l1.4651,-0.44944c0,0 1.10523,-0.29528 1.86558,-0.55971c0.01325,-0.00473 0.15379,-0.51497 0.02825,-0.96762c-0.10322,-0.36939 -0.36989,-0.44667 -0.85868,-0.76941c-0.44909,-0.29645 -1.28736,-0.77612 -1.17482,-1.03806c0.17023,-0.39426 1.90006,0.07456 2.54307,0.2433l0.34475,0.08849c0.7703,0.18848 3.21708,0.46452 3.32099,0.4759c0.02628,0.00054 0.06191,-0.00203 0.06191,-0.00203l0.01411,-0.00051l0.01317,-0.00352c1.79053,-0.46818 3.7381,-0.53919 5.23062,0.1324c3.16054,1.42213 4.13874,5.19371 2.47011,8.90206c-0.30948,0.6878 -0.70855,1.31714 -1.18553,1.87088l-0.02535,0.02992c0,0 -0.53566,0.96508 0.57362,3.0072c0.22274,0.40974 0.54871,0.52883 0.28832,0.8479c-0.08677,0.10641 -0.21568,0.15532 -0.40973,0.1552c-0.46304,0.00026 -1.31754,-0.53824 -1.80495,-1.01251l-0.07655,-0.07456l-0.09507,0.04932c-0.02341,0.01203 -2.47635,1.41084 -4.74404,0.64325c-1.97669,-0.66909 -2.62461,-2.11126 -3.03866,-2.77501l-0.27727,-0.39908c-0.57103,-0.60322 -1.78929,-0.49968 -2.86426,-0.40823c-0.6418,0.05459 -1.59826,0.17851 -1.72744,-0.00482c-0.14303,-0.20327 0.25032,-0.52276 0.63678,-0.85022c0.31367,-0.26538 0.68829,-0.48794 0.63937,-0.7815c-0.05068,-0.30521 -0.51272,-0.32783 -1.15238,-0.35905c-0.60084,-0.02898 -1.57834,-0.01182 -1.84554,-0.30756c-0.07347,-0.08139 -0.10604,-0.18084 -0.09955,-0.304c0.02435,-0.45535 0.92699,-0.71582 1.63982,-0.93472c0.87009,-0.26675 1.85628,-0.56954 1.78819,-1.46704v0z" fill="#ffc93e" stroke="#603813" stroke-linecap="round" stroke-linejoin="round"/><g fill="#ffffff" stroke="none" stroke-linecap="butt" stroke-linejoin="miter"><path d="M205.95224,178.24735v0c-0.57037,-0.25664 -0.82493,-0.92713 -0.56847,-1.49777c0.2566,-0.57026 0.92748,-0.82431 1.49785,-0.56767c0.57001,0.25648 0.82423,0.92667 0.56759,1.49704c-0.25665,0.57038 -0.92697,0.82488 -1.49697,0.5684z"/></g><g fill="#ffffff" stroke="none" stroke-linecap="butt" stroke-linejoin="miter"><path d="M208.19077,173.27247v0c-0.57037,-0.25664 -0.82493,-0.92713 -0.56842,-1.49788c0.2566,-0.57026 0.92749,-0.82433 1.49786,-0.56769c0.57001,0.25648 0.82406,0.92705 0.56758,1.49706c-0.25677,0.57064 -0.92702,0.82499 -1.49702,0.56851z"/></g><path d="M211.21845,175.22948c0,0 -0.42225,0.94037 -1.28259,1.34477" fill="none" stroke="#603813" stroke-linecap="round" stroke-linejoin="round"/></g><path d="M208.89,171.93412c0,0 -0.01055,0.273 -0.06068,0.3844c-0.0478,0.10622 -0.23343,0.26925 -0.23343,0.26925" fill="none" stroke="#603813" stroke-linecap="round" stroke-linejoin="miter"/><path d="M206.66779,176.99752c0,0 -0.01055,0.27299 -0.06068,0.3844c-0.0478,0.10622 -0.23344,0.26924 -0.23344,0.26924" fill="none" stroke="#603813" stroke-linecap="round" stroke-linejoin="miter"/></g><path d="M232.18392,173.45492c10.51582,-0.48814 4.25,12.89994 4.25,12.89994h-26.81953c0,0 -1.47395,-12.53861 3.71429,-12.5891c6.52362,-0.06349 13.80105,-0.07622 18.85524,-0.31084z" data-paper-data="{&quot;index&quot;:null}" fill="#998290" stroke="none" stroke-width="0" stroke-linecap="butt" stroke-linejoin="miter"/></g></g></svg>