<svg version="1.1" xmlns="http://www.w3.org/2000/svg" xmlns:xlink="http://www.w3.org/1999/xlink" width="92.21921" height="62.49176" viewBox="0,0,92.21921,62.49176"><g transform="translate(-193.8904,-148.75412)"><g data-paper-data="{&quot;isPaintingLayer&quot;:true}" stroke-miterlimit="10" stroke-dasharray="" stroke-dashoffset="0" style="mix-blend-mode: normal"><path d="M194.8904,210.24588v-60.49176h90.21921v60.49176z" data-paper-data="{&quot;index&quot;:null}" fill="#d1ca76" fill-rule="nonzero" stroke="#666666" stroke-width="2" stroke-linecap="butt" stroke-linejoin="miter"/><g fill-rule="evenodd" stroke-width="0.5"><path d="M218.03383,163.92176c0.11688,-0.07792 0.31167,-0.03896 0.35063,0.11688l1.01295,4.16867c0,0 2.49341,1.8311 3.23364,3.11676c1.2467,2.14278 1.28566,3.89596 1.28566,3.89596c0,0 2.76613,0.81815 3.23364,3.03884c0.46751,2.2207 -1.2467,6.42833 -8.5711,7.86983c-7.3244,1.44151 -13.20729,-0.54543 -15.97342,-4.98682c-2.76613,-4.44139 1.59734,-9.73989 1.36359,-9.42821l-0.81815,-6.97376c-0.03896,-0.15584 0.15584,-0.27272 0.31168,-0.19479l4.71411,3.0778c0,0 1.75317,-0.66231 3.58427,-0.74023c1.09087,-0.07792 2.0259,0 2.92197,0.15584z" fill="#ffab19" stroke="#001026" stroke-linecap="butt" stroke-linejoin="miter"/><path d="M223.79985,175.37587c0,0 2.6882,0.70127 3.15572,2.92197c0.46751,2.2207 -1.40254,6.23353 -8.64902,7.63608c-9.42821,1.94798 -13.90856,-3.6622 -11.29827,-7.79191c2.61029,-4.16867 7.09064,-0.62336 10.36324,-0.85711c2.80509,-0.1948 3.11677,-2.64925 6.42833,-1.90902z" fill="#ffffff" stroke="none" stroke-linecap="butt" stroke-linejoin="miter"/><path d="M211.52759,179.54454c0,-0.15584 0.15583,-0.27272 0.31168,-0.23376c0.74023,0.27272 2.84405,0.89606 5.18162,1.05191c2.10381,0.11688 3.35052,0 3.93491,-0.11688c0.1948,-0.03896 0.35064,0.15584 0.27272,0.35064c-0.35064,1.05191 -1.8311,3.97387 -5.92185,3.74012c-3.54532,-0.3896 -3.89596,-2.883 -3.77908,-4.79202z" fill="#ffffff" stroke="#001026" stroke-linecap="round" stroke-linejoin="round"/><path d="M230.9684,175.80442c-1.8311,1.48047 -4.63619,1.51942 -4.63619,1.51942" fill="none" stroke="#001026" stroke-linecap="round" stroke-linejoin="round"/><path d="M230.46193,180.16789c-2.45445,0.1948 -3.97387,-0.54544 -3.97387,-0.54544" fill="none" stroke="#001026" stroke-linecap="round" stroke-linejoin="round"/><path d="M217.21568,176.27194c0.81815,0 1.67526,0.07792 1.71422,0.35064c0.03896,0.54543 -0.54543,1.6363 -1.16879,1.67526c-0.70127,0.07792 -2.33757,-0.89606 -2.33757,-1.51942c-0.03896,-0.46751 1.01295,-0.50647 1.79214,-0.50647z" fill="#001026" stroke="#001026" stroke-linecap="round" stroke-linejoin="round"/><path d="M199.68388,175.68754c0,0 3.35052,1.09087 4.71411,2.29862" fill="none" stroke="#001026" stroke-linecap="round" stroke-linejoin="round"/><path d="M204.51487,179.34974c-1.67526,0.66231 -4.55827,0.23376 -4.55827,0.23376" fill="none" stroke="#001026" stroke-linecap="round" stroke-linejoin="round"/><g><path d="M221.81291,171.71367c1.12983,1.75318 1.16878,3.74012 0.07792,4.44139c-1.09087,0.70127 -2.88301,-0.11688 -4.05179,-1.87006c-1.12983,-1.75318 -1.16878,-3.74012 -0.07791,-4.44138c1.09087,-0.74023 2.92197,0.11688 4.05179,1.87006z" fill="#ffffff" stroke="#001026" stroke-linecap="round" stroke-linejoin="round"/><path d="M221.65707,173.93436c0,0.42855 -0.31168,0.77919 -0.70128,0.77919c-0.3896,0 -0.70127,-0.35064 -0.70127,-0.77919c0,-0.42855 0.31167,-0.77919 0.70127,-0.77919c0.3896,0 0.70128,0.35064 0.70128,0.77919" fill="#001026" stroke="none" stroke-linecap="butt" stroke-linejoin="miter"/></g><g><path d="M212.15094,172.80454c1.16879,1.71422 1.09086,3.81804 0.03895,4.55827c-1.28566,0.74023 -2.99988,0.1948 -4.16867,-1.51942c-1.20774,-1.71422 -1.28566,-3.93491 -0.07792,-4.79202c1.20774,-0.89607 3.03885,0.03896 4.20764,1.75318z" fill="#ffffff" stroke="#001026" stroke-linecap="round" stroke-linejoin="round"/><path d="M211.91718,175.06419c0,0.42855 -0.31168,0.77919 -0.70127,0.77919c-0.3896,0 -0.70127,-0.35064 -0.70127,-0.77919c0,-0.42855 0.31168,-0.7792 0.70127,-0.7792c0.3896,0.03896 0.70127,0.35064 0.70127,0.7792" fill="#001026" stroke="none" stroke-linecap="butt" stroke-linejoin="miter"/></g></g><path d="M195.90987,207.18553v-21.93802h53.98388v21.93802z" fill="#d1d5da" fill-rule="nonzero" stroke="#666666" stroke-width="1" stroke-linecap="butt" stroke-linejoin="miter"/><path d="M195.90987,209.32838v-3.6523h88.18031v3.6523z" fill="#c0c0c0" fill-rule="nonzero" stroke="none" stroke-width="0" stroke-linecap="butt" stroke-linejoin="miter"/><g fill="#a59d66" fill-rule="nonzero" stroke="#666666" stroke-width="1.5" stroke-linecap="butt" stroke-linejoin="miter"><path d="M232.34663,184.76905v-7.5162h15.91667v7.5162z"/><path d="M232.34663,177.18968v-7.5162h15.91667v7.5162z"/><path d="M232.34663,169.61032v-7.5162h15.91667v7.5162z"/></g><path d="M239.10544,165.42244c1.38629,0.19851 2.4098,1.06 2.28605,1.92418c-0.12375,0.86418 -1.34788,1.40382 -2.73418,1.20531c-1.38629,-0.19851 -2.40979,-1.06 -2.28604,-1.92418c0.12375,-0.86418 1.34788,-1.40382 2.73417,-1.20531z" fill="#914e00" fill-rule="nonzero" stroke="#666666" stroke-width="0" stroke-linecap="butt" stroke-linejoin="miter"/><path d="M238.05782,165.51828c1.38629,0.20146 2.4098,1.07572 2.28605,1.95271c-0.12375,0.87699 -1.34789,1.42464 -2.73418,1.22318c-1.38629,-0.20146 -2.40979,-1.07572 -2.28604,-1.95272c0.12375,-0.87699 1.34788,-1.42463 2.73418,-1.22317z" fill="#aa5b00" fill-rule="nonzero" stroke="#666666" stroke-width="0" stroke-linecap="butt" stroke-linejoin="miter"/><path d="M236.39116,165.80339c1.38629,0.19851 2.40979,1.06 2.28604,1.92418c-0.12375,0.86418 -1.34788,1.40381 -2.73417,1.2053c-1.38629,-0.19851 -2.4098,-1.06 -2.28605,-1.92418c0.12375,-0.86418 1.34788,-1.40381 2.73418,-1.2053z" fill="#d27000" fill-rule="nonzero" stroke="#666666" stroke-width="0" stroke-linecap="butt" stroke-linejoin="miter"/><path d="M243.39115,165.61291c1.38629,0.19851 2.4098,1.06 2.28605,1.92419c-0.12375,0.86418 -1.34789,1.40382 -2.73418,1.2053c-1.38629,-0.19851 -2.40979,-1.06 -2.28604,-1.92418c0.12375,-0.86418 1.34788,-1.40382 2.73417,-1.20531z" fill="#aa5b00" fill-rule="nonzero" stroke="#666666" stroke-width="0" stroke-linecap="butt" stroke-linejoin="miter"/><path d="M245.10544,165.75577c1.38629,0.19851 2.4098,1.06 2.28605,1.92418c-0.12375,0.86418 -1.34788,1.40382 -2.73418,1.2053c-1.38629,-0.19851 -2.40979,-1.06 -2.28604,-1.92418c0.12375,-0.86418 1.34788,-1.40382 2.73417,-1.2053z" fill="#d27000" fill-rule="nonzero" stroke="#666666" stroke-width="0" stroke-linecap="butt" stroke-linejoin="miter"/><g fill-rule="nonzero" stroke-linejoin="miter"><g fill="none" stroke="#ae7b10" stroke-width="0.5" stroke-linecap="round"><path d="M235.70179,172.19931l-0.79304,1.9372l-0.33598,-2.27722"/><path d="M237.46257,172.01396l-0.6796,2.34771l-0.71049,-3.0582"/><path d="M237.33254,171.13229l-1.20475,4.10849l-2.0079,-3.08909"/></g><path d="M234.71907,176.4406l-0.65824,-3.2912h3.68614l-0.65824,3.2912z" fill="#d1d1d1" stroke="#666666" stroke-width="0" stroke-linecap="butt"/></g><g fill-rule="nonzero" stroke-linejoin="miter"><g fill="none" stroke="#ae7b10" stroke-width="0.5" stroke-linecap="round"><path d="M240.33543,172.19931l-0.79304,1.9372l-0.33598,-2.27722"/><path d="M242.0962,172.01396l-0.6796,2.34771l-0.71049,-3.0582"/><path d="M240.06141,171.75134l0.79525,3.53706l-2.00791,-3.08909"/></g><path d="M239.3527,176.4406l-0.65824,-3.2912h3.68614l-0.65824,3.2912z" fill="#d1d1d1" stroke="#666666" stroke-width="0" stroke-linecap="butt"/></g><g data-paper-data="{&quot;index&quot;:null}" fill-rule="nonzero" stroke-linejoin="miter"><g fill="none" stroke="#ae7b10" stroke-width="0.5" stroke-linecap="round"><path d="M246.22801,171.85929l-0.33598,2.27722l-0.79304,-1.9372"/><path d="M244.72831,171.30347l-0.71049,3.0582l-0.6796,-2.34771"/><path d="M245.6809,171.9136l-0.96029,3.23194l-1.20475,-4.10849"/></g><path d="M243.71205,176.4406l-0.65824,-3.2912h3.68614l-0.65824,3.2912z" fill="#d1d1d1" stroke="#666666" stroke-width="0" stroke-linecap="butt"/></g><g fill="none" fill-rule="nonzero" stroke-linecap="round" stroke-linejoin="miter"><path d="M235.47882,182.49939l2.17663,-1.3921" stroke="#d19754" stroke-width="1"/><path d="M234.78121,182.95484l1.95959,-1.2504" stroke="#ffb899" stroke-width="2"/></g><g fill="none" fill-rule="nonzero" stroke-linecap="round" stroke-linejoin="miter"><path d="M238.50065,182.49938l2.17663,-1.3921" stroke="#d19754" stroke-width="1"/><path d="M239.76264,181.70444l-1.95959,1.2504" stroke="#ffb899" stroke-width="2"/></g><g fill="none" fill-rule="nonzero" stroke-linecap="round" stroke-linejoin="miter"><path d="M241.52249,182.49938l2.17663,-1.3921" stroke="#d19754" stroke-width="1"/><path d="M240.82489,182.95484l1.95959,-1.2504" stroke="#ffb899" stroke-width="2"/></g><g fill="none" fill-rule="nonzero" stroke-linecap="round" stroke-linejoin="miter"><path d="M244.54433,182.49938l2.17663,-1.3921" stroke="#d19754" stroke-width="1"/><path d="M243.84672,182.95484l1.95959,-1.2504" stroke="#ffb899" stroke-width="2"/></g><path d="M273.68496,204.83036v-39.57143h9.50352v39.57143z" fill="#b28059" fill-rule="nonzero" stroke="#b28059" stroke-width="2" stroke-linecap="butt" stroke-linejoin="miter"/><path d="M195.90987,159.60963v-8.93801h88.18031v8.93801z" data-paper-data="{&quot;index&quot;:null}" fill="#ffffff" fill-rule="nonzero" stroke="none" stroke-width="0" stroke-linecap="butt" stroke-linejoin="miter"/><path d="M195.90987,159.60963v-3.22373h88.18031v3.22373z" data-paper-data="{&quot;index&quot;:null}" fill="#05bdff" fill-rule="nonzero" stroke="none" stroke-width="0" stroke-linecap="butt" stroke-linejoin="miter"/><path d="M195.90987,153.75249v-3.08087h88.18031v3.08087z" data-paper-data="{&quot;index&quot;:null}" fill="#ffe600" fill-rule="nonzero" stroke="none" stroke-width="0" stroke-linecap="butt" stroke-linejoin="miter"/></g></g></svg>