<svg version="1.1" xmlns="http://www.w3.org/2000/svg" xmlns:xlink="http://www.w3.org/1999/xlink" width="99.20614" height="119.40827" viewBox="0,0,99.20614,119.40827"><defs><linearGradient x1="240.00001" y1="125.83217" x2="240.00001" y2="186.32393" gradientUnits="userSpaceOnUse" id="color-1"><stop offset="0" stop-color="#c8d9db"/><stop offset="1" stop-color="#6c6f66"/></linearGradient><radialGradient cx="235.14046" cy="161.90481" r="12.82618" gradientUnits="userSpaceOnUse" id="color-2"><stop offset="0" stop-color="#9b968a"/><stop offset="1" stop-color="#b2ab9e"/></radialGradient><radialGradient cx="252.96429" cy="161.90481" r="12.82618" gradientUnits="userSpaceOnUse" id="color-3"><stop offset="0" stop-color="#9b968a"/><stop offset="1" stop-color="#b2ab9e"/></radialGradient><radialGradient cx="217.31662" cy="161.90481" r="12.82618" gradientUnits="userSpaceOnUse" id="color-4"><stop offset="0" stop-color="#9b968a"/><stop offset="1" stop-color="#b2ab9e"/></radialGradient></defs><g transform="translate(-190.39693,-120.29588)"><g data-paper-data="{&quot;isPaintingLayer&quot;:true}" fill-rule="nonzero" stroke-linejoin="miter" stroke-miterlimit="10" stroke-dasharray="" stroke-dashoffset="0" style="mix-blend-mode: normal"><path d="M289.60307,129.31305v101.37565c0,4.97152 -4.04218,9.01545 -9.01718,9.01545h-81.17351c-4.96979,0 -9.01545,-4.04392 -9.01545,-9.01544v-101.37738c0,-4.97152 4.04566,-9.01545 9.01545,-9.01545h81.17351c4.975,0 9.01718,4.04566 9.01718,9.01719z" fill-opacity="0.74902" fill="#d2d3d4" stroke="none" stroke-width="1" stroke-linecap="butt"/><path d="M287.06513,163.32664v65.07452c0,4.97152 -4.04219,9.01545 -9.01719,9.01545l-76.09761,0.25093c-4.96979,0 -9.01545,-4.04392 -9.01545,-9.01545v-65.07627z" fill-opacity="0.96471" fill="#fafafa" stroke="none" stroke-width="1" stroke-linecap="butt"/><text transform="translate(197.4876,200.16945) scale(0.28036,0.28036)" font-size="40" xml:space="preserve" fill="#000000" fill-rule="nonzero" stroke="#000000" stroke-width="1" stroke-linecap="butt" stroke-linejoin="miter" stroke-miterlimit="10" stroke-dasharray="" stroke-dashoffset="0" font-family="&quot;ヒラギノ角ゴ Pro W3&quot;, &quot;Hiragino Kaku Gothic Pro&quot;, Osaka, &quot;メイリオ&quot;, Meiryo, &quot;ＭＳ Ｐゴシック&quot;, &quot;MS PGothic&quot;" font-weight="normal" text-anchor="start" style="mix-blend-mode: normal"><tspan x="0" dy="0">給水室</tspan></text><g stroke="none" stroke-linecap="butt"><g fill="#45b5e6" stroke-width="0"><path d="M208.75315,213.93832l-6.05509,-6.05509l0.90827,-0.90827l6.05509,6.05509z"/><path d="M207.66481,204.70311c0.3036,0.3036 0.30354,0.79598 0,1.09952l-6.13918,6.13917c-0.3036,0.3036 -0.79592,0.30347 -1.09945,-0.00006l-2.54359,-2.54359c-0.3036,-0.3036 -0.3036,-0.79579 0,-1.0994l6.13911,-6.13911c0.30374,-0.30374 0.79586,-0.30366 1.09946,-0.00006l2.54358,2.54358z"/></g><text transform="translate(209.44316,210.32878) scale(0.19587,0.20747)" font-size="40" xml:space="preserve" fill="#585858" fill-rule="nonzero" stroke="none" stroke-width="1" stroke-linecap="butt" stroke-linejoin="miter" stroke-miterlimit="10" stroke-dasharray="" stroke-dashoffset="0" font-family="Sans Serif" font-weight="normal" text-anchor="start" style="mix-blend-mode: normal"><tspan x="0" dy="0">170,000G</tspan></text></g><g stroke="none" stroke-linecap="butt"><g fill="#45b5e6" stroke-width="0"><path d="M241.85852,206.60629l5.64578,-1.34827l3.23916,3.23917l-1.34825,5.64577l-3.23077,-3.23077l-0.02081,-1.06159h-1.04078z"/><path d="M254.06963,202.84012l-4.99544,4.99545l-0.90828,-0.90827l4.99544,-4.99545z"/></g><text transform="translate(252.97427,210.4311) scale(0.19589,0.20748)" font-size="40" xml:space="preserve" fill="#585858" fill-rule="nonzero" stroke="none" stroke-width="1" stroke-linecap="butt" stroke-linejoin="miter" stroke-miterlimit="10" stroke-dasharray="" stroke-dashoffset="0" font-family="Sans Serif" font-weight="normal" text-anchor="start" style="mix-blend-mode: normal"><tspan x="0" dy="0">1,600G</tspan></text></g><path d="M194.89041,186.32393v-60.49176h90.21921v60.49176z" fill="#ffffff" stroke="#666666" stroke-width="2" stroke-linecap="butt"/><path d="M286.08836,126.38077v59.3949c0,0.9386 -0.76314,1.70207 -1.7024,1.70207h-88.77223c-0.93827,0 -1.70207,-0.76347 -1.70207,-1.70207v-59.39522c0,-0.9386 0.7638,-1.70208 1.70207,-1.70208h88.77223c0.93926,0 1.7024,0.7638 1.7024,1.7024z" fill="none" stroke="#666666" stroke-width="2" stroke-linecap="butt"/><g stroke="none" stroke-linecap="butt"><text transform="translate(252.9769,234.29901) scale(0.19588,0.20747)" font-size="40" xml:space="preserve" fill="#585858" fill-rule="nonzero" stroke="none" stroke-width="1" stroke-linecap="butt" stroke-linejoin="miter" stroke-miterlimit="10" stroke-dasharray="" stroke-dashoffset="0" font-family="Sans Serif" font-weight="normal" text-anchor="start" style="mix-blend-mode: normal"><tspan x="0" dy="0">-20</tspan></text><path d="M244.4761,236.41881l1.7486,-4.14478l-2.20732,-0.69125l5.87862,-5.12252l-1.71443,4.10799l2.18486,0.71764z" fill="#e6c245" stroke-width="0"/></g><g stroke="none" stroke-linecap="butt"><text transform="translate(209.44316,234.20486) scale(0.19588,0.20747)" font-size="40" xml:space="preserve" fill="#585858" fill-rule="nonzero" stroke="none" stroke-width="1" stroke-linecap="butt" stroke-linejoin="miter" stroke-miterlimit="10" stroke-dasharray="" stroke-dashoffset="0" font-family="Sans Serif" font-weight="normal" text-anchor="start" style="mix-blend-mode: normal"><tspan x="0" dy="0">+130</tspan></text><path d="M200.35963,232.99861c0,-1.82173 3.29853,-6.42346 3.29853,-6.42346c0,0 3.29853,4.60173 3.29853,6.42346c0,1.82173 -1.4768,3.29853 -3.29853,3.29853c-1.82173,0 -3.29853,-1.4768 -3.29853,-3.29853z" fill="#0079cd" stroke-width="NaN"/></g><g><path d="M194.89041,186.32393v-60.49176h90.21921v60.49176z" fill="url(#color-1)" stroke="#666666" stroke-width="2" stroke-linecap="butt"/><path d="M262.14409,178.6399h4.7504" fill="none" stroke="#5f5f5f" stroke-width="2" stroke-linecap="round"/><path d="M266.89449,176.18279h-4.7504" fill="none" stroke="#5e4a4a" stroke-width="2" stroke-linecap="round"/><path d="M278.13241,125.83217v32.44242h0.001c0,4.752 -3.854,8.605 -8.605,8.605h-28.10948" fill="none" stroke="#666666" stroke-width="6.5" stroke-linecap="butt"/><path d="M200.11884,183.66219v-13.68651h-0.001c0,-4.752 3.854,-8.605 8.605,-8.605h28.10948" data-paper-data="{&quot;index&quot;:null}" fill="none" stroke="#666666" stroke-width="6.5" stroke-linecap="butt"/><path d="M268.53156,125.83217v13.11319h0.001c0,4.752 -3.854,8.605 -8.605,8.605h-28.10948" fill="none" stroke="#666666" stroke-width="6.5" stroke-linecap="butt"/><g stroke="#5f5f5f" stroke-width="2" stroke-linecap="butt"><path d="M226.22855,181.83604v-39.86246h17.82384v39.86246z" fill="url(#color-2)"/><path d="M244.05238,181.83604v-39.86246h17.82384v39.86246z" fill="url(#color-3)"/><path d="M208.40471,181.83604v-39.86246h17.82384v39.86246z" fill="url(#color-4)"/></g><path d="M267.30401,181.83604v-10.23795h9.1732v10.23795z" fill="#9b968a" stroke="#5f5f5f" stroke-width="2" stroke-linecap="butt"/><path d="M276.47721,181.83604v-13.8417h5.72085v13.8417z" fill="#6b8994" stroke="#5f5f5f" stroke-width="2" stroke-linecap="butt"/><path d="M195.90988,185.48834v-3.6523h88.18031v3.6523z" fill="#c0c0c0" stroke="none" stroke-width="0" stroke-linecap="butt"/><path d="M194.89041,141.97358v-16.05951h19.4574v16.05951z" fill="#c8baa2" stroke="#666666" stroke-width="2" stroke-linecap="butt"/><path d="M200.20677,135.66106c0,-2.43687 4.41234,-7.8468 4.41234,-7.8468c0,0 4.41234,5.40994 4.41234,7.8468c0,2.43687 -1.97547,4.41234 -4.41234,4.41234c-2.43687,0 -4.41234,-1.97547 -4.41234,-4.41234z" fill="#b0f0ff" stroke="none" stroke-width="0" stroke-linecap="butt"/><path d="M263.36087,178.6399c0,-0.63977 0.51864,-1.15841 1.15841,-1.15841c0.63977,0 1.15841,0.51864 1.15841,1.15841c0,0.63977 -0.51864,1.15841 -1.15841,1.15841c-0.63977,0 -1.15841,-0.51864 -1.15841,-1.15841z" fill="#b2b2b2" stroke="none" stroke-width="2" stroke-linecap="butt"/></g></g></g></svg>