<svg version="1.1" xmlns="http://www.w3.org/2000/svg" xmlns:xlink="http://www.w3.org/1999/xlink" width="259.9798" height="278.02313" viewBox="0,0,259.9798,278.02313"><g transform="translate(137.70149,-9.11171)"><g data-paper-data="{&quot;isPaintingLayer&quot;:true}" fill-rule="nonzero" stroke-linejoin="miter" stroke-miterlimit="10" stroke-dasharray="" stroke-dashoffset="0" style="mix-blend-mode: normal"><path d="M122.27831,15.50092v19.38508c0,2.862 -2.327,5.19 -5.191,5.19h-109.17562c-2.861,0 -5.19,-2.328 -5.19,-5.19v-19.38608c0,-2.862 2.329,-5.19 5.19,-5.19h109.17562c2.864,0 5.191,2.329 5.191,5.191z" fill-opacity="0.70196" fill="#4d4d4d" stroke="none" stroke-width="1" stroke-linecap="butt"/><path d="M20.05995,33.6186l-9.2691,-8.42778l9.26911,-8.42349" data-paper-data="{&quot;index&quot;:null}" fill="none" stroke="#cccccc" stroke-width="3.5" stroke-linecap="round"/><text transform="translate(32.5,30.96171) scale(0.5,0.5)" font-size="40" xml:space="preserve" fill="#ffffff" fill-rule="nonzero" stroke="none" stroke-width="1" stroke-linecap="butt" stroke-linejoin="miter" stroke-miterlimit="10" stroke-dasharray="" stroke-dashoffset="0" font-family="Sans Serif" font-weight="normal" text-anchor="start" style="mix-blend-mode: normal"><tspan x="0" dy="0">ヘルプ</tspan></text><path d="M122.27831,86.08916v19.38508c0,2.862 -2.327,5.19 -5.191,5.19h-109.17562c-2.861,0 -5.19,-2.328 -5.19,-5.19v-19.38608c0,-2.862 2.329,-5.19 5.19,-5.19h109.17562c2.864,0 5.191,2.329 5.191,5.191z" fill-opacity="0.70196" fill="#4d4d4d" stroke="none" stroke-width="1" stroke-linecap="butt"/><path d="M122.27831,121.38328v19.38508c0,2.862 -2.327,5.19 -5.191,5.19h-109.17562c-2.861,0 -5.19,-2.328 -5.19,-5.19v-19.38608c0,-2.862 2.329,-5.19 5.19,-5.19h109.17562c2.864,0 5.191,2.329 5.191,5.191z" fill-opacity="0.70196" fill="#4d4d4d" stroke="none" stroke-width="1" stroke-linecap="butt"/><text transform="translate(12.5,101.7812) scale(0.5,0.5)" font-size="40" xml:space="preserve" fill="#ffffff" fill-rule="nonzero" stroke="none" stroke-width="1" stroke-linecap="butt" stroke-linejoin="miter" stroke-miterlimit="10" stroke-dasharray="" stroke-dashoffset="0" font-family="Sans Serif" font-weight="normal" text-anchor="start" style="mix-blend-mode: normal"><tspan x="0" dy="0">プレイ方法</tspan></text><text transform="translate(12.5,137.07532) scale(0.35714,0.5)" font-size="40" xml:space="preserve" fill="#ffffff" fill-rule="nonzero" stroke="none" stroke-width="1" stroke-linecap="butt" stroke-linejoin="miter" stroke-miterlimit="10" stroke-dasharray="" stroke-dashoffset="0" font-family="Sans Serif" font-weight="normal" text-anchor="start" style="mix-blend-mode: normal"><tspan x="0" dy="0">ステータスバー</tspan></text><path d="M-18.14487,86.08916v19.38508c0,2.862 -2.327,5.19 -5.191,5.19h-109.17562c-2.861,0 -5.19,-2.328 -5.19,-5.19v-19.38608c0,-2.862 2.329,-5.19 5.19,-5.19h109.17562c2.864,0 5.191,2.329 5.191,5.191z" fill-opacity="0.70196" fill="#4d4d4d" stroke="none" stroke-width="1" stroke-linecap="butt"/><path d="M-18.14487,121.38328v19.38508c0,2.862 -2.327,5.19 -5.191,5.19h-109.17562c-2.861,0 -5.19,-2.328 -5.19,-5.19v-19.38608c0,-2.862 2.329,-5.19 5.19,-5.19h109.17562c2.864,0 5.191,2.329 5.191,5.191z" fill-opacity="0.70196" fill="#4d4d4d" stroke="none" stroke-width="1" stroke-linecap="butt"/><path d="M-18.14487,156.6774v19.38508c0,2.862 -2.327,5.19 -5.191,5.19h-109.17562c-2.861,0 -5.19,-2.328 -5.19,-5.19v-19.38608c0,-2.862 2.329,-5.19 5.19,-5.19h109.17562c2.864,0 5.191,2.329 5.191,5.191z" fill-opacity="0.70196" fill="#4d4d4d" stroke="none" stroke-width="1" stroke-linecap="butt"/><path d="M-18.14487,191.97152v19.38508c0,2.862 -2.327,5.19 -5.191,5.19h-109.17562c-2.861,0 -5.19,-2.328 -5.19,-5.19v-19.38608c0,-2.862 2.329,-5.19 5.19,-5.19h109.17562c2.864,0 5.191,2.329 5.191,5.191z" fill-opacity="0.70196" fill="#4d4d4d" stroke="none" stroke-width="1" stroke-linecap="butt"/><path d="M-18.14487,227.26564v19.38508c0,2.862 -2.327,5.19 -5.191,5.19h-109.17562c-2.861,0 -5.19,-2.328 -5.19,-5.19v-19.38608c0,-2.862 2.329,-5.19 5.19,-5.19h109.17562c2.864,0 5.191,2.329 5.191,5.191z" fill-opacity="0.70196" fill="#4d4d4d" stroke="none" stroke-width="1" stroke-linecap="butt"/><text transform="translate(-127.92318,101.7812) scale(0.5,0.5)" font-size="40" xml:space="preserve" fill="#ffffff" fill-rule="nonzero" stroke="none" stroke-width="1" stroke-linecap="butt" stroke-linejoin="miter" stroke-miterlimit="10" stroke-dasharray="" stroke-dashoffset="0" font-family="Sans Serif" font-weight="normal" text-anchor="start" style="mix-blend-mode: normal"><tspan x="0" dy="0">プレイ方法</tspan></text><text transform="translate(-127.92318,137.07532) scale(0.35714,0.5)" font-size="40" xml:space="preserve" fill="#ffffff" fill-rule="nonzero" stroke="none" stroke-width="1" stroke-linecap="butt" stroke-linejoin="miter" stroke-miterlimit="10" stroke-dasharray="" stroke-dashoffset="0" font-family="Sans Serif" font-weight="normal" text-anchor="start" style="mix-blend-mode: normal"><tspan x="0" dy="0">ステータスバー</tspan></text><text transform="translate(-127.92318,172.36944) scale(0.5,0.5)" font-size="40" xml:space="preserve" fill="#ffffff" fill-rule="nonzero" stroke="none" stroke-width="1" stroke-linecap="butt" stroke-linejoin="miter" stroke-miterlimit="10" stroke-dasharray="" stroke-dashoffset="0" font-family="Sans Serif" font-weight="normal" text-anchor="start" style="mix-blend-mode: normal"><tspan x="0" dy="0">タブレット</tspan></text><text transform="translate(-127.92318,207.66356) scale(0.5,0.5)" font-size="40" xml:space="preserve" fill="#ffffff" fill-rule="nonzero" stroke="none" stroke-width="1" stroke-linecap="butt" stroke-linejoin="miter" stroke-miterlimit="10" stroke-dasharray="" stroke-dashoffset="0" font-family="Sans Serif" font-weight="normal" text-anchor="start" style="mix-blend-mode: normal"><tspan x="0" dy="0">建築リスト</tspan></text><path d="M-18.14487,262.55976v19.38508c0,2.862 -2.327,5.19 -5.191,5.19h-109.17562c-2.861,0 -5.19,-2.328 -5.19,-5.19v-19.38608c0,-2.862 2.329,-5.19 5.19,-5.19h109.17562c2.864,0 5.191,2.329 5.191,5.191z" fill-opacity="0.70196" fill="#4d4d4d" stroke="none" stroke-width="1" stroke-linecap="butt"/><text transform="translate(-111.76318,242.95768) scale(0.5,0.5)" font-size="40" xml:space="preserve" fill="#ffffff" fill-rule="nonzero" stroke="none" stroke-width="1" stroke-linecap="butt" stroke-linejoin="miter" stroke-miterlimit="10" stroke-dasharray="" stroke-dashoffset="0" font-family="Sans Serif" font-weight="normal" text-anchor="start" style="mix-blend-mode: normal"><tspan x="0" dy="0">猫/ゴボ</tspan></text><text transform="translate(-99.68317,278.2518) scale(0.5,0.5)" font-size="40" xml:space="preserve" fill="#ffffff" fill-rule="nonzero" stroke="none" stroke-width="1" stroke-linecap="butt" stroke-linejoin="miter" stroke-miterlimit="10" stroke-dasharray="" stroke-dashoffset="0" font-family="Sans Serif" font-weight="normal" text-anchor="start" style="mix-blend-mode: normal"><tspan x="0" dy="0">Q&amp;A</tspan></text></g></g></svg>